<?xml version="1.0" encoding="utf-8"?>
<!-- Generator: Adobe Illustrator 16.0.0, SVG Export Plug-In . SVG Version: 6.00 Build 0)  -->
<!DOCTYPE svg PUBLIC "-//W3C//DTD SVG 1.1//EN" "http://www.w3.org/Graphics/SVG/1.1/DTD/svg11.dtd">
<svg version="1.1" xmlns="http://www.w3.org/2000/svg" xmlns:xlink="http://www.w3.org/1999/xlink" x="0px" y="0px"
	 width="433.943px" height="517px" viewBox="0 0 433.943 517" enable-background="new 0 0 433.943 517" xml:space="preserve">
<g id="Layer_1">
	<g>
		<path fill-rule="evenodd" clip-rule="evenodd" fill="#3088CA" d="M209.96,416.977c-86.033,1.774-160.283-72.575-157.315-162.431
			c2.676-81.025,70.871-150.487,154.933-151.95c86.146-1.499,164.247,71.373,159.604,165.697
			C363.27,347.727,295.632,418.313,209.96,416.977z"/>
		<path fill-rule="evenodd" clip-rule="evenodd" fill="#FEFEFE" d="M80.033,259.075c28.192-9.501,56.374-19.032,84.579-28.494
			c46.341-15.545,92.696-31.051,139.056-46.538c1.206-0.403,2.361-1.286,4.431-0.636c-3.156,7.972-6.253,15.908-9.438,23.81
			c-18.213,45.195-36.436,90.385-54.731,135.546c-0.589,1.454-0.266,3.895-2.917,3.941c-4.999-7.383-10.988-14.089-15.241-21.972
			c-1.287-2.385-3.397-4.066-4.713-6.376c-5.926-10.146-12.796-19.67-19.346-29.404c-2.114-3.143-4.485-6.143-5.554-9.876
			c-0.002-3.489,2.657-5.226,4.894-7.127c26.743-22.729,53.591-45.335,80.156-68.274c6.23-5.38,12.892-10.247,16.508-13.111
			c-10.377,7.858-24.68,16.341-38.489,25.547c-23.669,15.776-47.623,31.122-71.275,46.924c-2.372,1.585-4.653,3.254-7.682,3.282
			c-17.162-0.934-34.34-1.33-51.459-2.836c-4.456-0.393-8.95,0.178-13.408-0.379c-8.006-1.411-16.14-0.218-24.18-1.185
			c-2.443-0.293-4.945-0.302-7.405-0.572C82.287,261.178,80.364,261.369,80.033,259.075z"/>
		<path fill-rule="evenodd" clip-rule="evenodd" fill="#E9E9E9" d="M222.032,318.141c6.536,9.381,14.253,17.979,18.98,28.564
			c-17.991-9.39-35.981-18.782-53.976-28.164c-2.359-1.23-4.749-2.406-7.123-3.606c-5.031-0.995-9.293-3.574-13.395-6.491
			c-1.953-2.712,0.131-4.381,1.757-5.908c3.987-3.74,8.148-7.295,12.444-10.682c3.142-2.479,4.937-5.364,3.285-9.477
			c-0.811-5.325-2.501-10.5-2.72-15.925c0.081-0.529,0.289-1.004,0.616-1.426c6.05-2.43,10.836-6.883,16.276-10.288
			c12.767-7.991,25.189-16.53,37.808-24.76c19.003-12.395,38.068-24.695,57.073-37.086c3.307-2.155,6.449-4.559,10.313-6.087
			c-4.609,3.947-9.193,7.922-13.829,11.836c-12.139,10.252-24.309,20.465-36.448,30.716c-12.645,10.678-25.272,21.376-37.9,32.077
			c-4.927,4.174-9.879,8.32-14.717,12.598c-1.573,1.391-3.493,2.685-3.628,5.151c-1.242,2.656,1.204,3.984,2.299,5.553
			C206.875,295.802,214.354,307.04,222.032,318.141z"/>
		<path fill-rule="evenodd" clip-rule="evenodd" fill="#B3BBBE" d="M185.16,282.85c1.799,3.257,0.964,5.891-1.776,8.222
			c-5.005,4.254-9.967,8.562-14.888,12.913c-1.136,1.005-2.947,1.933-1.546,3.998c-4.89,7.75-7.697,16.454-11.301,24.79
			c-1.382,3.197-2.713,6.395-4.601,9.33c-2.665,3.354-2.376-0.521-2.559-1.27c-1.967-8.047-3.708-16.146-5.601-24.212
			c-1.928-8.217-3.955-16.411-5.938-24.616c0.574-1.987,2.389-2.669,3.899-3.636c10.614-6.794,21.099-13.785,32.146-20.684
			c-20.987-1.421-41.576-2.096-62.018-4.71c1.238-1.934,2.618-1.551,4.007-1.086c22.305,1.045,44.611,2.091,66.917,3.136
			c0.054,0.313,0.078,0.626,0.071,0.942c-1.266,1.154-2.349,2.366-1.395,4.251C182.617,274.243,183.046,278.852,185.16,282.85z"/>
		<path fill-rule="evenodd" clip-rule="evenodd" fill="#E9E9E9" d="M114.985,261.89c-0.94,0.108-1.88,0.216-2.82,0.324
			c0.011,0.141,0.023,0.281,0.034,0.423c21.22,1.272,42.439,2.546,65,3.898c-13.966,8.801-26.67,17.797-40.249,25.47
			c-18.938-10.019-37.882-20.024-56.792-30.095c-0.869-0.461-2.592-0.429-2.271-2.029c0.17-0.846,1.289-0.874,2.146-0.806
			c6.993,1.859,14.221,1.034,21.303,1.864C105.872,261.472,110.555,259.861,114.985,261.89z"/>
		<path fill-rule="evenodd" clip-rule="evenodd" fill="#859CAA" d="M151.047,342.103c3.134-11.136,8.48-21.384,12.863-32.02
			c0.559-1.356,1.538-2.107,3.04-2.101c4.322,2.317,8.644,4.635,12.965,6.953c-2.109,0.057-3.116,1.757-4.388,3.008
			C167.351,325.979,159.204,334.046,151.047,342.103z"/>
		<path fill-rule="evenodd" clip-rule="evenodd" fill="#93A5AF" d="M222.032,318.141c-4.896-4.393-7.655-10.386-11.554-15.529
			c-4.821-6.356-9.243-13.018-13.794-19.577c-0.868-1.251-3.333-2.726,0.165-3.853c7.476,11.267,14.977,22.515,22.404,33.813
			C220.317,314.613,221.876,316.014,222.032,318.141z"/>
		<path fill-rule="evenodd" clip-rule="evenodd" fill="#899EAB" d="M185.16,282.85c-4.141-4.339-4.766-10.263-6.659-15.549
			c-0.677-1.889,2.195-1.012,3.472-1.333C183.036,271.595,184.098,277.223,185.16,282.85z"/>
	</g>
</g>
<g id="Layer_1_copy" display="none">
	<g display="inline">
		<g>
			<path fill-rule="evenodd" clip-rule="evenodd" fill="#FEFEFE" d="M-15,259.972C-15,185.981-14.97,111.99-15.096,38
				c-0.006-3.424,0.672-4.097,4.096-4.094c147.648,0.11,295.295,0.11,442.944,0c3.424-0.003,4.098,0.671,4.095,4.094
				c-0.11,147.981-0.11,295.962,0,443.944c0.003,3.424-0.671,4.098-4.095,4.095c-147.648-0.11-295.296-0.11-442.944,0
				c-3.423,0.003-4.102-0.67-4.096-4.095C-14.97,407.953-15,333.962-15,259.972z"/>
			<path fill-rule="evenodd" clip-rule="evenodd" fill="#3088CA" d="M209.96,416.977c-86.033,1.774-160.283-72.575-157.315-162.431
				c2.676-81.025,70.871-150.487,154.933-151.95c86.146-1.499,164.247,71.373,159.604,165.697
				C363.27,347.727,295.632,418.313,209.96,416.977z"/>
			<path fill-rule="evenodd" clip-rule="evenodd" fill="#FEFEFE" d="M80.033,259.075c28.192-9.501,56.374-19.032,84.579-28.494
				c46.341-15.545,92.696-31.051,139.056-46.538c1.206-0.403,2.361-1.286,4.431-0.636c-3.156,7.972-6.253,15.908-9.438,23.81
				c-18.213,45.195-36.436,90.385-54.731,135.546c-0.589,1.454-0.266,3.895-2.917,3.941c-4.999-7.383-10.988-14.089-15.241-21.972
				c-1.287-2.385-3.397-4.066-4.713-6.376c-5.926-10.146-12.796-19.67-19.346-29.404c-2.114-3.143-4.485-6.143-5.554-9.876
				c-0.002-3.489,2.657-5.226,4.894-7.127c26.743-22.729,53.591-45.335,80.156-68.274c6.23-5.38,12.892-10.247,16.508-13.111
				c-10.377,7.858-24.68,16.341-38.489,25.547c-23.669,15.776-47.623,31.122-71.275,46.924c-2.372,1.585-4.653,3.254-7.682,3.282
				c-17.162-0.934-34.34-1.33-51.459-2.836c-4.456-0.393-8.95,0.178-13.408-0.379c-8.006-1.411-16.14-0.218-24.18-1.185
				c-2.443-0.293-4.945-0.302-7.405-0.572C82.287,261.178,80.364,261.369,80.033,259.075z"/>
			<path fill-rule="evenodd" clip-rule="evenodd" fill="#E9E9E9" d="M222.032,318.141c6.536,9.381,14.253,17.979,18.98,28.564
				c-17.991-9.39-35.981-18.782-53.976-28.164c-2.359-1.23-4.749-2.406-7.123-3.606c-5.031-0.995-9.293-3.574-13.395-6.491
				c-1.953-2.712,0.131-4.381,1.757-5.908c3.987-3.74,8.148-7.295,12.444-10.682c3.142-2.479,4.937-5.364,3.285-9.477
				c-0.811-5.325-2.501-10.5-2.72-15.925c0.081-0.529,0.289-1.004,0.616-1.426c6.05-2.43,10.836-6.883,16.276-10.288
				c12.767-7.991,25.189-16.53,37.808-24.76c19.003-12.395,38.068-24.695,57.073-37.086c3.307-2.155,6.449-4.559,10.313-6.087
				c-4.609,3.947-9.193,7.922-13.829,11.836c-12.139,10.252-24.309,20.465-36.448,30.716c-12.645,10.678-25.272,21.376-37.9,32.077
				c-4.927,4.174-9.879,8.32-14.717,12.598c-1.573,1.391-3.493,2.685-3.628,5.151c-1.242,2.656,1.204,3.984,2.299,5.553
				C206.875,295.802,214.354,307.04,222.032,318.141z"/>
			<path fill-rule="evenodd" clip-rule="evenodd" fill="#B3BBBE" d="M185.16,282.85c1.799,3.257,0.964,5.891-1.776,8.222
				c-5.005,4.254-9.967,8.562-14.888,12.913c-1.136,1.005-2.947,1.933-1.546,3.998c-4.89,7.75-7.697,16.454-11.301,24.79
				c-1.382,3.197-2.713,6.395-4.601,9.33c-2.665,3.354-2.376-0.521-2.559-1.27c-1.967-8.047-3.708-16.146-5.601-24.212
				c-1.928-8.217-3.955-16.411-5.938-24.616c0.574-1.987,2.389-2.669,3.899-3.636c10.614-6.794,21.099-13.785,32.146-20.684
				c-20.987-1.421-41.576-2.096-62.018-4.71c1.238-1.934,2.618-1.551,4.007-1.086c22.305,1.045,44.611,2.091,66.917,3.136
				c0.054,0.313,0.078,0.626,0.071,0.942c-1.266,1.154-2.349,2.366-1.395,4.251C182.617,274.243,183.046,278.852,185.16,282.85z"/>
			<path fill-rule="evenodd" clip-rule="evenodd" fill="#E9E9E9" d="M114.985,261.89c-0.94,0.108-1.88,0.216-2.82,0.324
				c0.011,0.141,0.023,0.281,0.034,0.423c21.22,1.272,42.439,2.546,65,3.898c-13.966,8.801-26.67,17.797-40.249,25.47
				c-18.938-10.019-37.882-20.024-56.792-30.095c-0.869-0.461-2.592-0.429-2.271-2.029c0.17-0.846,1.289-0.874,2.146-0.806
				c6.993,1.859,14.221,1.034,21.303,1.864C105.872,261.472,110.555,259.861,114.985,261.89z"/>
			<path fill-rule="evenodd" clip-rule="evenodd" fill="#859CAA" d="M151.047,342.103c3.134-11.136,8.48-21.384,12.863-32.02
				c0.559-1.356,1.538-2.107,3.04-2.101c4.322,2.317,8.644,4.635,12.965,6.953c-2.109,0.057-3.116,1.757-4.388,3.008
				C167.351,325.979,159.204,334.046,151.047,342.103z"/>
			<path fill-rule="evenodd" clip-rule="evenodd" fill="#93A5AF" d="M222.032,318.141c-4.896-4.393-7.655-10.386-11.554-15.529
				c-4.821-6.356-9.243-13.018-13.794-19.577c-0.868-1.251-3.333-2.726,0.165-3.853c7.476,11.267,14.977,22.515,22.404,33.813
				C220.317,314.613,221.876,316.014,222.032,318.141z"/>
			<path fill-rule="evenodd" clip-rule="evenodd" fill="#899EAB" d="M185.16,282.85c-4.141-4.339-4.766-10.263-6.659-15.549
				c-0.677-1.889,2.195-1.012,3.472-1.333C183.036,271.595,184.098,277.223,185.16,282.85z"/>
		</g>
	</g>
</g>
</svg>
