<?xml version="1.0" encoding="utf-8"?>
<!-- Generator: Adobe Illustrator 16.0.0, SVG Export Plug-In . SVG Version: 6.00 Build 0)  -->
<!DOCTYPE svg PUBLIC "-//W3C//DTD SVG 1.1//EN" "http://www.w3.org/Graphics/SVG/1.1/DTD/svg11.dtd">
<svg version="1.1" xmlns="http://www.w3.org/2000/svg" xmlns:xlink="http://www.w3.org/1999/xlink" x="0px" y="0px" width="312.5px"
	 height="63px" viewBox="0 0 312.5 63" enable-background="new 0 0 312.5 63" xml:space="preserve">
<g id="Layer_6" display="none">
	<rect x="-4" display="inline" fill-rule="evenodd" clip-rule="evenodd" fill="#1E1E1E" width="316.5" height="63"/>
</g>
<g id="Layer_1_white" display="none">
	<rect x="60.385" y="22.928" display="inline" fill="none" width="211.365" height="69.822"/>
	<text transform="matrix(1 0 0 1 60.3848 56.8164)" display="inline"><tspan x="0" y="0" fill="#FFFFFF" font-family="'Catamaran-Thin'" font-size="48">Flash</tspan><tspan x="99.022" y="0" fill="#FFFFFF" font-family="'Catamaran-Black'" font-size="48">Fire</tspan></text>
</g>
<g id="Layer_1_white_copy" display="none">
	<path display="inline" fill="#FFFFFF" d="M78.817,41.217h-11.28v15.6h-2.352v-32.64h16.128l0.336,1.872H67.537v13.295h10.992
		L78.817,41.217z"/>
	<path display="inline" fill="#FFFFFF" d="M86.448,56.816V23.408l2.352-0.48v33.888H86.448z"/>
	<path display="inline" fill="#FFFFFF" d="M96.769,34.928c0.607-0.416,1.368-0.768,2.28-1.056c0.912-0.288,1.839-0.52,2.784-0.696
		c0.944-0.175,1.736-0.264,2.376-0.264c1.792,0,3.28,0.312,4.464,0.936c1.183,0.624,2.079,1.504,2.688,2.64
		c0.607,1.137,0.911,2.473,0.911,4.008v16.32h-1.823l-0.385-2.496c-0.8,0.896-1.816,1.641-3.048,2.232
		c-1.232,0.592-2.584,0.888-4.056,0.888c-2.624,0-4.584-0.688-5.88-2.064c-1.296-1.375-1.944-3.071-1.944-5.088
		c0-2.208,0.775-3.919,2.328-5.136c1.552-1.216,3.543-1.824,5.976-1.824h6.48v-2.88c0-1.6-0.456-2.928-1.368-3.984
		s-2.313-1.584-4.2-1.584c-1.568,0-2.832,0.161-3.792,0.48c-0.96,0.32-1.92,0.704-2.88,1.152L96.769,34.928z M98.257,52.904
		c0.448,0.784,1.087,1.408,1.92,1.872c0.832,0.464,1.824,0.696,2.976,0.696c1.503,0,2.824-0.376,3.96-1.128
		c1.135-0.752,2.071-1.672,2.808-2.761v-6.479h-6.288c-2.112,0-3.648,0.504-4.608,1.512c-0.96,1.008-1.44,2.232-1.44,3.672
		C97.584,51.248,97.808,52.121,98.257,52.904z"/>
	<path display="inline" fill="#FFFFFF" d="M118.32,53.648c0.576,0.257,1.191,0.528,1.848,0.816c0.656,0.287,1.36,0.527,2.112,0.72
		c0.752,0.191,1.528,0.288,2.328,0.288c1.279,0,2.376-0.184,3.288-0.553c0.912-0.367,1.615-0.879,2.112-1.535
		c0.495-0.656,0.743-1.416,0.743-2.28c0-0.769-0.271-1.464-0.815-2.088c-0.545-0.624-1.28-1.2-2.208-1.729
		c-0.929-0.527-1.968-1.016-3.12-1.464c-1.185-0.479-2.297-1.023-3.336-1.632c-1.04-0.607-1.872-1.319-2.496-2.136
		s-0.936-1.721-0.936-2.713c0-1.823,0.679-3.351,2.04-4.583c1.359-1.231,3.352-1.848,5.976-1.848c0.672,0,1.416,0.08,2.232,0.24
		c0.815,0.161,1.615,0.384,2.399,0.672c0.784,0.288,1.432,0.624,1.944,1.008l-0.96,1.68c-0.641-0.319-1.433-0.672-2.376-1.056
		c-0.944-0.384-2.137-0.576-3.576-0.576c-1.632,0-2.944,0.432-3.937,1.296c-0.992,0.864-1.487,1.857-1.487,2.976
		c0,1.088,0.576,2.016,1.728,2.784c1.152,0.769,2.527,1.472,4.128,2.112c1.279,0.512,2.448,1.088,3.504,1.728
		c1.057,0.641,1.912,1.385,2.568,2.232c0.655,0.848,0.984,1.816,0.984,2.903c0,2.049-0.672,3.648-2.017,4.801
		c-1.344,1.151-3.504,1.728-6.479,1.728c-0.641,0-1.4-0.072-2.28-0.216c-0.881-0.145-1.744-0.353-2.592-0.624
		c-0.849-0.271-1.577-0.601-2.185-0.984L118.32,53.648z"/>
	<path display="inline" fill="#FFFFFF" d="M138.768,56.816V23.408l2.353-0.48v33.888H138.768z M141.071,37.185
		c0.673-0.768,1.465-1.472,2.376-2.112c0.912-0.64,1.88-1.159,2.904-1.56c1.023-0.399,2.017-0.6,2.977-0.6
		c1.663,0,3,0.336,4.008,1.008s1.743,1.584,2.208,2.736c0.463,1.152,0.695,2.48,0.695,3.984v16.176h-2.352V40.641
		c0-1.6-0.288-2.96-0.864-4.08s-1.744-1.68-3.504-1.68c-0.929,0-1.864,0.2-2.808,0.6c-0.944,0.4-1.889,0.953-2.832,1.656
		c-0.944,0.705-1.864,1.52-2.76,2.448L141.071,37.185z"/>
	<path display="inline" fill="#FFFFFF" d="M182.831,44.48h-10.848v12.336h-8.736V24.225h21.168l0.816,6.864h-13.248v6.528h10.032
		L182.831,44.48z"/>
	<path display="inline" fill="#FFFFFF" d="M189.6,28.977c-0.929-0.928-1.393-2.032-1.393-3.312c0-1.312,0.464-2.44,1.393-3.384
		c0.928-0.943,2.031-1.416,3.312-1.416c1.313,0,2.44,0.473,3.384,1.416c0.944,0.944,1.416,2.072,1.416,3.384
		c0,1.28-0.472,2.384-1.416,3.312c-0.943,0.928-2.071,1.392-3.384,1.392C191.631,30.368,190.527,29.905,189.6,28.977z
		 M188.592,56.816v-23.28h8.735v23.28H188.592z"/>
	<path display="inline" fill="#FFFFFF" d="M202.128,56.816V33.584h4.367l2.112,2.832c0.64-0.448,1.399-0.888,2.28-1.32
		c0.88-0.432,1.808-0.799,2.784-1.104c0.976-0.304,1.896-0.456,2.76-0.456l1.776,7.008c-0.769,0-1.593,0.111-2.473,0.336
		c-0.88,0.224-1.744,0.527-2.592,0.912c-0.849,0.383-1.608,0.832-2.28,1.344v13.68H202.128z"/>
	<path display="inline" fill="#FFFFFF" d="M229.151,47.36c0.224,0.641,0.56,1.2,1.008,1.68c0.448,0.48,1.024,0.849,1.729,1.104
		c0.703,0.257,1.552,0.384,2.544,0.384c1.407,0,2.647-0.176,3.72-0.528c1.072-0.352,1.96-0.703,2.664-1.056l2.448,5.904
		c-0.608,0.448-1.425,0.864-2.448,1.248c-1.024,0.384-2.16,0.688-3.408,0.912c-1.248,0.223-2.528,0.336-3.84,0.336
		c-2.656,0-5.04-0.465-7.152-1.393c-2.111-0.928-3.768-2.296-4.968-4.104s-1.8-4.024-1.8-6.648c0-2.623,0.552-4.864,1.656-6.72
		c1.104-1.855,2.607-3.28,4.512-4.272c1.903-0.992,4.023-1.488,6.36-1.488c2.496,0,4.567,0.552,6.216,1.656
		c1.647,1.104,2.88,2.576,3.696,4.417c0.815,1.84,1.224,3.848,1.224,6.023v2.544H229.151z M234.96,43.041
		c0-0.448-0.104-0.928-0.313-1.44c-0.208-0.512-0.528-0.952-0.96-1.32c-0.432-0.367-1.017-0.552-1.752-0.552
		c-0.513,0-1.008,0.152-1.488,0.456c-0.479,0.304-0.856,0.704-1.128,1.2c-0.272,0.496-0.408,1.049-0.408,1.656H234.96z"/>
</g>
<g id="Layer_1_white_copy_2">
	<path fill="#FFFFFF" d="M84.416,39.387H72.344v16.695h-2.517V21.151h17.26l0.359,2.003H72.344v14.229h11.764L84.416,39.387z"/>
	<path fill="#FFFFFF" d="M92.583,56.082V20.329l2.517-0.514v36.267H92.583z"/>
	<path fill="#FFFFFF" d="M103.627,32.658c0.65-0.445,1.465-0.822,2.441-1.13c0.975-0.309,1.968-0.557,2.979-0.745
		c1.01-0.188,1.857-0.282,2.543-0.282c1.917,0,3.51,0.334,4.777,1.001c1.266,0.667,2.225,1.61,2.877,2.825
		c0.65,1.216,0.976,2.646,0.976,4.288v17.467h-1.951l-0.412-2.672c-0.857,0.959-1.944,1.756-3.262,2.389
		c-1.319,0.635-2.767,0.949-4.34,0.949c-2.81,0-4.907-0.734-6.294-2.209c-1.386-1.471-2.08-3.285-2.08-5.445
		c0-2.361,0.83-4.193,2.492-5.494c1.66-1.302,3.792-1.952,6.395-1.952h6.935v-3.083c0-1.711-0.487-3.133-1.464-4.263
		c-0.976-1.13-2.475-1.695-4.494-1.695c-1.679,0-3.031,0.172-4.059,0.514c-1.027,0.343-2.055,0.753-3.082,1.232L103.627,32.658z
		 M105.221,51.895c0.479,0.838,1.163,1.508,2.055,2.002c0.89,0.498,1.951,0.748,3.184,0.748c1.609,0,3.022-0.404,4.239-1.209
		c1.214-0.805,2.216-1.789,3.004-2.953v-6.936h-6.729c-2.261,0-3.904,0.539-4.933,1.617c-1.027,1.08-1.541,2.391-1.541,3.93
		C104.5,50.123,104.74,51.057,105.221,51.895z"/>
	<path fill="#FFFFFF" d="M126.691,52.691c0.617,0.273,1.275,0.564,1.978,0.873s1.456,0.564,2.261,0.77s1.636,0.311,2.491,0.311
		c1.369,0,2.543-0.197,3.519-0.592c0.977-0.395,1.729-0.941,2.261-1.643c0.53-0.703,0.796-1.516,0.796-2.441
		c0-0.822-0.291-1.566-0.873-2.234c-0.583-0.668-1.37-1.285-2.363-1.852c-0.993-0.564-2.105-1.086-3.339-1.564
		c-1.268-0.514-2.458-1.096-3.57-1.747c-1.112-0.65-2.003-1.412-2.671-2.285c-0.668-0.874-1.001-1.841-1.001-2.903
		c0-1.951,0.727-3.586,2.183-4.905c1.455-1.318,3.587-1.977,6.396-1.977c0.719,0,1.516,0.085,2.389,0.256
		c0.873,0.172,1.729,0.412,2.568,0.719c0.839,0.308,1.532,0.668,2.08,1.079l-1.027,1.797c-0.686-0.342-1.533-0.719-2.542-1.129
		c-1.011-0.412-2.287-0.617-3.827-0.617c-1.747,0-3.151,0.462-4.213,1.387c-1.062,0.925-1.592,1.987-1.592,3.185
		c0,1.164,0.616,2.156,1.849,2.979c1.233,0.822,2.705,1.576,4.418,2.262c1.369,0.547,2.62,1.163,3.749,1.847
		c1.131,0.686,2.047,1.482,2.749,2.389c0.701,0.908,1.054,1.945,1.054,3.109c0,2.191-0.72,3.904-2.158,5.137
		s-3.75,1.848-6.935,1.848c-0.686,0-1.498-0.076-2.44-0.23s-1.866-0.377-2.773-0.668c-0.908-0.291-1.688-0.643-2.338-1.053
		L126.691,52.691z"/>
	<path fill="#FFFFFF" d="M148.574,56.082V20.329l2.518-0.514v36.267H148.574z M151.039,35.072c0.72-0.822,1.567-1.575,2.543-2.261
		c0.976-0.685,2.012-1.24,3.108-1.669c1.095-0.427,2.157-0.642,3.185-0.642c1.78,0,3.211,0.359,4.289,1.079
		c1.079,0.719,1.866,1.695,2.363,2.928c0.495,1.233,0.744,2.654,0.744,4.265v17.311h-2.517V38.771c0-1.712-0.309-3.168-0.925-4.367
		s-1.866-1.798-3.75-1.798c-0.994,0-1.995,0.214-3.005,0.642c-1.01,0.429-2.021,1.02-3.03,1.772
		c-1.011,0.754-1.995,1.626-2.953,2.62L151.039,35.072z"/>
	<path fill="#FFFFFF" d="M195.729,42.882H184.12v13.2h-9.349V21.203h22.653l0.873,7.346H184.12v6.986h10.736L195.729,42.882z"/>
	<path fill="#FFFFFF" d="M202.973,26.288c-0.993-0.993-1.49-2.174-1.49-3.544c0-1.404,0.497-2.611,1.49-3.622
		c0.993-1.01,2.174-1.516,3.544-1.516c1.405,0,2.612,0.506,3.621,1.516c1.011,1.011,1.516,2.218,1.516,3.622
		c0,1.37-0.505,2.552-1.516,3.544c-1.009,0.994-2.216,1.489-3.621,1.489C205.146,27.777,203.966,27.282,202.973,26.288z
		 M201.895,56.082V31.168h9.349v24.914H201.895z"/>
	<path fill="#FFFFFF" d="M216.381,56.082V31.219h4.673l2.261,3.031c0.685-0.479,1.498-0.95,2.44-1.413
		c0.941-0.462,1.935-0.855,2.979-1.182c1.044-0.325,2.028-0.487,2.953-0.487l1.901,7.5c-0.822,0-1.704,0.119-2.646,0.359
		c-0.941,0.24-1.866,0.565-2.773,0.978c-0.908,0.408-1.721,0.889-2.44,1.438v14.64H216.381z"/>
	<path fill="#FFFFFF" d="M245.301,45.961c0.239,0.686,0.599,1.285,1.078,1.797c0.479,0.516,1.096,0.91,1.85,1.184
		c0.753,0.273,1.661,0.41,2.723,0.41c1.506,0,2.833-0.188,3.98-0.564s2.098-0.752,2.852-1.131l2.62,6.318
		c-0.651,0.48-1.525,0.926-2.62,1.336c-1.097,0.412-2.313,0.738-3.647,0.977c-1.336,0.238-2.706,0.359-4.109,0.359
		c-2.843,0-5.394-0.498-7.654-1.49c-2.26-0.994-4.032-2.457-5.316-4.393c-1.284-1.934-1.927-4.305-1.927-7.115
		c0-2.806,0.591-5.203,1.773-7.189c1.181-1.986,2.79-3.51,4.828-4.572c2.037-1.061,4.306-1.593,6.807-1.593
		c2.671,0,4.888,0.591,6.651,1.772c1.764,1.182,3.082,2.757,3.956,4.727c0.873,1.968,1.31,4.118,1.31,6.447v2.721H245.301z
		 M251.517,41.341c0-0.48-0.112-0.994-0.335-1.543c-0.223-0.548-0.565-1.019-1.027-1.413c-0.462-0.393-1.088-0.59-1.874-0.59
		c-0.549,0-1.079,0.162-1.593,0.488c-0.514,0.324-0.917,0.752-1.207,1.284c-0.292,0.531-0.438,1.123-0.438,1.773H251.517z"/>
</g>
<g id="Layer_1_blue" display="none">
	<path display="inline" fill="#FFFFFF" d="M76.317,41.217h-11.28v15.6h-2.352v-32.64h16.128l0.336,1.872H65.037v13.295h10.992
		L76.317,41.217z"/>
	<path display="inline" fill="#FFFFFF" d="M83.948,56.816V23.408l2.352-0.48v33.888H83.948z"/>
	<path display="inline" fill="#FFFFFF" d="M94.269,34.928c0.607-0.416,1.368-0.768,2.28-1.056c0.912-0.288,1.839-0.52,2.784-0.696
		c0.944-0.175,1.736-0.264,2.376-0.264c1.792,0,3.28,0.312,4.464,0.936c1.183,0.624,2.08,1.504,2.688,2.64
		c0.607,1.137,0.912,2.473,0.912,4.008v16.32h-1.824l-0.384-2.496c-0.8,0.896-1.816,1.641-3.048,2.232
		c-1.232,0.592-2.584,0.888-4.056,0.888c-2.624,0-4.584-0.688-5.88-2.064c-1.296-1.375-1.944-3.071-1.944-5.088
		c0-2.208,0.775-3.919,2.328-5.136c1.552-1.216,3.543-1.824,5.976-1.824h6.48v-2.88c0-1.6-0.456-2.928-1.368-3.984
		s-2.313-1.584-4.2-1.584c-1.568,0-2.832,0.161-3.792,0.48c-0.96,0.32-1.92,0.704-2.88,1.152L94.269,34.928z M95.757,52.904
		c0.448,0.784,1.087,1.408,1.92,1.872c0.832,0.464,1.824,0.696,2.976,0.696c1.503,0,2.824-0.376,3.96-1.128
		c1.135-0.752,2.071-1.672,2.808-2.761v-6.479h-6.288c-2.112,0-3.648,0.504-4.608,1.512c-0.96,1.008-1.44,2.232-1.44,3.672
		C95.084,51.248,95.308,52.121,95.757,52.904z"/>
	<path display="inline" fill="#FFFFFF" d="M115.82,53.648c0.576,0.257,1.191,0.528,1.848,0.816c0.656,0.287,1.36,0.527,2.112,0.72
		c0.752,0.191,1.528,0.288,2.328,0.288c1.279,0,2.376-0.184,3.288-0.553c0.912-0.367,1.615-0.879,2.112-1.535
		c0.495-0.656,0.743-1.416,0.743-2.28c0-0.769-0.271-1.464-0.815-2.088c-0.545-0.624-1.28-1.2-2.208-1.729
		c-0.929-0.527-1.968-1.016-3.12-1.464c-1.185-0.479-2.297-1.023-3.336-1.632c-1.04-0.607-1.872-1.319-2.496-2.136
		s-0.936-1.721-0.936-2.713c0-1.823,0.679-3.351,2.04-4.583c1.359-1.231,3.352-1.848,5.976-1.848c0.672,0,1.416,0.08,2.232,0.24
		c0.815,0.161,1.615,0.384,2.399,0.672c0.784,0.288,1.432,0.624,1.944,1.008l-0.96,1.68c-0.641-0.319-1.433-0.672-2.376-1.056
		c-0.944-0.384-2.137-0.576-3.576-0.576c-1.632,0-2.944,0.432-3.937,1.296c-0.992,0.864-1.487,1.857-1.487,2.976
		c0,1.088,0.576,2.016,1.728,2.784c1.152,0.769,2.527,1.472,4.128,2.112c1.279,0.512,2.448,1.088,3.504,1.728
		c1.057,0.641,1.912,1.385,2.568,2.232c0.655,0.848,0.984,1.816,0.984,2.903c0,2.049-0.672,3.648-2.017,4.801
		c-1.344,1.151-3.504,1.728-6.479,1.728c-0.641,0-1.4-0.072-2.28-0.216c-0.881-0.145-1.744-0.353-2.592-0.624
		c-0.849-0.271-1.577-0.601-2.185-0.984L115.82,53.648z"/>
	<path display="inline" fill="#FFFFFF" d="M136.268,56.816V23.408l2.353-0.48v33.888H136.268z M138.571,37.185
		c0.673-0.768,1.465-1.472,2.376-2.112c0.912-0.64,1.88-1.159,2.904-1.56c1.023-0.399,2.017-0.6,2.977-0.6
		c1.663,0,3,0.336,4.008,1.008s1.743,1.584,2.208,2.736c0.463,1.152,0.695,2.48,0.695,3.984v16.176h-2.352V40.641
		c0-1.6-0.288-2.96-0.864-4.08s-1.744-1.68-3.504-1.68c-0.929,0-1.864,0.2-2.808,0.6c-0.944,0.4-1.889,0.953-2.832,1.656
		c-0.944,0.705-1.864,1.52-2.76,2.448L138.571,37.185z"/>
	<path display="inline" fill="#FFFFFF" d="M180.331,44.48h-10.848v12.336h-8.736V24.225h21.168l0.816,6.864h-13.248v6.528h10.032
		L180.331,44.48z"/>
	<path display="inline" fill="#EF4136" d="M187.1,28.977c-0.929-0.928-1.393-2.032-1.393-3.312c0-1.312,0.464-2.44,1.393-3.384
		c0.928-0.943,2.031-1.416,3.312-1.416c1.313,0,2.44,0.473,3.384,1.416c0.944,0.944,1.416,2.072,1.416,3.384
		c0,1.28-0.472,2.384-1.416,3.312c-0.943,0.928-2.071,1.392-3.384,1.392C189.131,30.368,188.027,29.905,187.1,28.977z"/>
	<path display="inline" fill="#FFFFFF" d="M199.628,56.816V33.584h4.367l2.112,2.832c0.64-0.448,1.399-0.888,2.28-1.32
		c0.88-0.432,1.808-0.799,2.784-1.104c0.976-0.304,1.896-0.456,2.76-0.456l1.776,7.008c-0.769,0-1.593,0.111-2.473,0.336
		c-0.88,0.224-1.744,0.527-2.592,0.912c-0.849,0.383-1.608,0.832-2.28,1.344v13.68H199.628z"/>
	<path display="inline" fill="#FFFFFF" d="M226.651,47.36c0.224,0.641,0.56,1.2,1.008,1.68c0.448,0.48,1.024,0.849,1.729,1.104
		c0.703,0.257,1.552,0.384,2.544,0.384c1.407,0,2.647-0.176,3.72-0.528c1.072-0.352,1.96-0.703,2.664-1.056l2.448,5.904
		c-0.608,0.448-1.425,0.864-2.448,1.248c-1.024,0.384-2.16,0.688-3.408,0.912c-1.248,0.223-2.528,0.336-3.84,0.336
		c-2.656,0-5.04-0.465-7.152-1.393c-2.111-0.928-3.768-2.296-4.968-4.104s-1.8-4.024-1.8-6.648c0-2.623,0.552-4.864,1.656-6.72
		c1.104-1.855,2.607-3.28,4.512-4.272c1.903-0.992,4.023-1.488,6.36-1.488c2.496,0,4.567,0.552,6.216,1.656
		c1.647,1.104,2.88,2.576,3.696,4.417c0.815,1.84,1.224,3.848,1.224,6.023v2.544H226.651z M232.46,43.041
		c0-0.448-0.104-0.928-0.313-1.44c-0.208-0.512-0.528-0.952-0.96-1.32c-0.432-0.367-1.017-0.552-1.752-0.552
		c-0.513,0-1.008,0.152-1.488,0.456c-0.479,0.304-0.856,0.704-1.128,1.2c-0.272,0.496-0.408,1.049-0.408,1.656H232.46z"/>
</g>
<g id="_x31__copy" display="none">
	<polygon display="inline" fill-rule="evenodd" clip-rule="evenodd" fill="#1E1E1E" points="179.25,32.492 203.208,32.492 
		203.208,9 173.5,9 	"/>
	<g display="inline">
		<path fill-rule="evenodd" clip-rule="evenodd" fill="#FFFFFF" d="M183.6,10.463c-0.604,2.314-0.603,4.596,0.237,6.87
			c0.013-0.073,0.043-0.146,0.04-0.218c-0.109-1.979,0.567-3.688,1.874-5.219c0.661-0.776,1.332-1.582,1.791-2.472
			c0.91-1.777,0.69-3.643,0.159-5.488c-0.104-0.358-0.227-0.711-0.3-1.1c2.314,1.301,4.353,2.901,5.884,5.023
			c1.544,2.138,2.394,4.496,2.255,7.146c1.095-0.961,1.417-2.203,1.574-3.575c0.25,0.277,0.527,0.538,0.749,0.835
			c1.652,2.209,2.796,4.642,3.214,7.328c0.541,3.454-0.689,6.359-3.311,8.735c-0.723,0.653-1.57,1.182-2.363,1.763
			c-0.103,0.074-0.226,0.125-0.442,0.242c0.177-0.589,0.332-1.075,0.467-1.562c0.581-2.101,0.675-4.191-0.295-6.215
			c-0.289-0.602-0.737-1.134-1.124-1.693c-0.067-0.098-0.182-0.168-0.365-0.33c-0.059,1.112-0.432,1.972-1.368,2.585
			c0.021-1.436-0.242-2.796-0.965-4.049c-0.724-1.258-1.711-2.271-3.138-3.007c0.042,0.276,0.066,0.459,0.097,0.641
			c0.267,1.524-0.045,2.927-0.986,4.191c-0.313,0.42-0.624,0.845-0.971,1.242c-1.558,1.786-1.837,3.802-1.164,5.971
			c0.229,0.735,0.574,1.438,0.899,2.238c-0.494-0.282-0.949-0.519-1.386-0.789c-1.712-1.068-3.156-2.399-4.189-4.095
			c-1.403-2.303-1.674-4.755-1.048-7.33c0.557-2.279,1.7-4.287,3.069-6.197C182.852,11.438,183.231,10.953,183.6,10.463z"/>
	</g>
</g>
<g id="Layer_9" display="none">
	<g display="inline">
		<path fill-rule="evenodd" clip-rule="evenodd" fill="#00AEEF" d="M56.183,56.485c-17.064,0-34.124,0-51.178,0
			c0-15.095,0-30.186,0-45.271c17.064,0,34.124,0,51.178,0C56.183,26.309,56.183,41.399,56.183,56.485z M22.87,49.584
			c0.122,0.134,0.18,0.216,0.255,0.278c6.176,5.052,16.285,3,19.261-4.724c1.502-3.899,1.278-7.652-1.956-10.654
			c-1.459-1.354-3.234-2.388-4.938-3.452c-1.214-0.759-2.559-1.307-3.826-1.984c-0.978-0.522-1.786-1.234-2.186-2.313
			c-0.674-1.815,0.491-4.05,2.289-4.304c-0.086,0.129-0.153,0.229-0.219,0.329c-0.891,1.344-0.867,2.917,0.064,4.168
			c0.917,1.233,2.479,1.773,3.981,1.223c0.864-0.317,1.673-0.817,2.456-1.314c1.574-0.999,3.134-1.918,5.159-0.561
			c-0.595-1.402-1.687-1.873-2.839-2.405c2.411-0.447,3.842,0.827,3.933,3.354c1.706-1.409,2.052-3.429,0.922-5.417
			c-0.881-1.55-2.245-2.867-2.204-4.957c-0.225,0.21-0.321,0.288-0.402,0.378c-1.243,1.382-2.762,2.221-4.611,2.539
			c-0.857,0.147-1.674,0.526-2.513,0.789c-0.152,0.048-0.368,0.114-0.475,0.046c-0.491-0.309-0.954-0.662-1.553-1.089
			c1.278,0,2.413,0,3.547,0c0.011-0.064,0.022-0.128,0.033-0.192c-2.134-0.298-3.754-1.6-5.513-2.66
			c-1.155-0.696-2.408-1.301-3.694-1.695c-3.286-1.006-6.354-0.458-9.104,1.674c1.939-0.475,3.883-0.856,5.884-0.456
			c2.075,0.416,3.651,1.556,4.893,3.328c-0.15,0-0.212,0.02-0.239-0.003c-1.722-1.46-3.729-1.804-5.893-1.483
			c-1.792,0.266-3.575,0.598-5.37,0.85c-3.255,0.456-6.185-0.132-8.437-2.764c-0.05-0.059-0.125-0.097-0.309-0.236
			c0.939,2.562,2.463,4.419,4.964,5.12c1.826,0.511,3.753,0.678,5.644,0.932c1.247,0.167,2.515,0.18,3.765,0.331
			c0.798,0.097,1.356,0.717,1.464,1.528c0.098,0.738-0.171,1.391-0.815,1.74c-0.391,0.212-0.908,0.219-1.374,0.259
			c-1.198,0.103-2.407,0.11-3.593,0.288c-0.452,0.068-0.851,0.495-1.274,0.758c0.038,0.061,0.076,0.121,0.113,0.182
			c1.234-0.258,2.029,0.145,2.161,1.097c0.163,1.172-0.774,2.004-2.04,1.672c-0.972-0.254-1.889-0.715-2.789-1.067
			c0.648,1.667,2.304,2.62,4.366,2.635c1.531,0.011,3.095,0.028,4.583,0.337c3.462,0.717,6.211,2.483,7.592,5.919
			c0.546,1.358,0.788,2.775,0.601,4.266c-0.75-2.902-2.266-5.278-4.763-6.944c-2.524-1.685-5.312-2.287-8.299-1.689
			c-3.89,0.779-8.055,4.468-8.095,7.05c0.843-0.667,1.662-1.426,2.583-2.027c4.042-2.638,8.939-1.832,11.577,1.858
			c2.397,3.355,1.526,7.145-2.093,9.099C23.348,49.325,23.15,49.433,22.87,49.584z"/>
		<path fill-rule="evenodd" clip-rule="evenodd" d="M22.87,49.584c0.28-0.151,0.478-0.259,0.676-0.365
			c3.619-1.954,4.49-5.743,2.093-9.099c-2.638-3.69-7.535-4.496-11.577-1.858c-0.921,0.602-1.741,1.36-2.583,2.027
			c0.04-2.582,4.205-6.271,8.095-7.05c2.987-0.598,5.774,0.005,8.299,1.689c2.497,1.666,4.013,4.042,4.763,6.944
			c0.188-1.49-0.055-2.907-0.601-4.266c-1.381-3.436-4.13-5.202-7.592-5.919c-1.488-0.309-3.052-0.326-4.583-0.337
			c-2.062-0.015-3.718-0.968-4.366-2.635c0.899,0.353,1.817,0.813,2.789,1.067c1.266,0.332,2.202-0.5,2.04-1.672
			c-0.132-0.952-0.927-1.355-2.161-1.097c-0.038-0.061-0.075-0.121-0.113-0.182c0.423-0.263,0.822-0.69,1.274-0.758
			c1.186-0.177,2.395-0.185,3.593-0.288c0.466-0.04,0.983-0.047,1.374-0.259c0.644-0.35,0.914-1.002,0.815-1.74
			c-0.108-0.812-0.666-1.432-1.464-1.528c-1.25-0.151-2.518-0.164-3.765-0.331c-1.891-0.254-3.818-0.421-5.644-0.932
			c-2.501-0.701-4.025-2.559-4.964-5.12c0.184,0.139,0.259,0.177,0.309,0.236c2.252,2.632,5.182,3.22,8.437,2.764
			c1.794-0.251,3.577-0.583,5.37-0.85c2.164-0.321,4.171,0.023,5.893,1.483c0.026,0.022,0.088,0.003,0.239,0.003
			c-1.242-1.771-2.818-2.912-4.893-3.328c-2-0.401-3.945-0.019-5.884,0.456c2.751-2.132,5.818-2.68,9.104-1.674
			c1.286,0.394,2.539,0.999,3.694,1.695c1.759,1.06,3.379,2.362,5.513,2.66c-0.011,0.064-0.022,0.128-0.033,0.192
			c-1.134,0-2.269,0-3.547,0c0.599,0.427,1.062,0.78,1.553,1.089c0.107,0.068,0.323,0.002,0.475-0.046
			c0.839-0.263,1.655-0.642,2.513-0.789c1.849-0.317,3.368-1.157,4.611-2.539c0.081-0.091,0.177-0.168,0.402-0.378
			c-0.041,2.09,1.323,3.407,2.204,4.957c1.13,1.987,0.783,4.008-0.922,5.417c-0.091-2.527-1.522-3.802-3.933-3.354
			c1.152,0.532,2.244,1.003,2.839,2.405c-2.025-1.358-3.585-0.438-5.159,0.561c-0.783,0.497-1.592,0.998-2.456,1.314
			c-1.502,0.55-3.063,0.01-3.981-1.223c-0.931-1.25-0.955-2.824-0.064-4.168c0.066-0.1,0.133-0.2,0.219-0.329
			c-1.798,0.254-2.963,2.489-2.289,4.304c0.4,1.08,1.208,1.791,2.186,2.313c1.267,0.678,2.611,1.226,3.826,1.984
			c1.704,1.064,3.479,2.098,4.938,3.452c3.234,3.002,3.458,6.755,1.956,10.654c-2.976,7.724-13.085,9.775-19.261,4.724
			C23.05,49.8,22.992,49.718,22.87,49.584z"/>
	</g>
</g>
<g id="Layer_3" display="none">
	<g display="inline">
		<path fill-rule="evenodd" clip-rule="evenodd" d="M39.765,39.137c0.163-0.475,0.284-0.826,0.405-1.18
			c-0.037-0.02-0.073-0.043-0.11-0.066c-0.301,0.145-0.595,0.315-0.908,0.426c-0.295,0.104-0.611,0.145-0.993,0.229
			c0.301-0.451,0.543-0.809,0.775-1.17c0.175-0.276,0.15-0.544-0.015-0.833c-0.955-1.65-2.345-2.771-4.187-3.219
			c-0.989-0.24-2.034-0.247-3.056-0.35c-0.163-0.015-0.332,0.022-0.648,0.047c0.203,0.214,0.304,0.352,0.432,0.453
			c2.158,1.705,4.079,3.633,5.618,5.925c0.234,0.349,0.459,0.706,0.662,1.075c0.16,0.289,0.303,0.563,0.754,0.346
			c-0.028,0.346-0.05,0.631-0.079,1.006c0.282-0.119,0.484-0.203,0.804-0.336c-0.102,0.564-0.187,1.037-0.299,1.664
			c0.573-0.35,1.058-0.646,1.618-0.986c0.082,0.83-0.31,1.488-0.518,2.311c0.464-0.086,0.819-0.152,1.264-0.236
			c0.341,1.318,0.587,2.652,0.438,4.117c-0.503-0.203-0.911-0.387-1.333-0.531c-0.836-0.289-1.699-0.422-2.582-0.328
			c-0.398,0.045-0.469-0.109-0.461-0.469c0.041-1.928-0.371-3.723-1.646-5.238c-0.12-0.145-0.26-0.27-0.383-0.41
			c-0.228-0.256-0.471-0.279-0.795-0.154c-0.998,0.387-2.03,0.479-3.083,0.266c-0.128-0.025-0.248-0.096-0.39-0.152
			c0.175-0.385,0.4-0.71,0.461-1.063c0.063-0.361,0.054-0.787-0.086-1.115c-0.241-0.568-0.583-1.103-0.932-1.619
			c-0.119-0.174-0.375-0.327-0.584-0.354c-1.072-0.129-2.138-0.244-3.108-0.783c-1.725-0.959-2.364-2.742-1.927-4.603
			c0.148-0.63,0.557-1.199,0.845-1.796c0.032-0.065,0.064-0.13,0.132-0.271c-0.169,0.038-0.27,0.046-0.357,0.083
			c-0.959,0.418-1.779,1.035-2.48,1.804c-0.177,0.195-0.322,0.245-0.555,0.093c-2.122-1.384-4.46-1.883-6.965-1.68
			c-0.09,0.008-0.181-0.011-0.356-0.021c0.101-0.158,0.157-0.277,0.238-0.372c1.473-1.727,3.019-3.378,4.92-4.648
			c0.349-0.234,0.188-0.382-0.013-0.571c-1.529-1.435-3.279-2.539-5.172-3.418c-0.706-0.327-1.442-0.589-2.163-0.884
			c-0.079-0.032-0.146-0.091-0.33-0.207c4.187-0.605,8.111-0.128,11.896,1.53c0.023-0.043,0.047-0.088,0.07-0.132
			c-0.095-0.125-0.182-0.257-0.286-0.375c-1.388-1.562-3.163-2.546-5.103-3.193c-2.425-0.808-4.892-1.484-7.339-2.225
			c-1.901-0.576-3.772-1.222-5.401-2.408c-1.811-1.317-2.72-3.117-2.864-5.4c0.099,0.075,0.169,0.104,0.201,0.156
			c1.171,1.907,2.985,2.865,5.065,3.424c1.972,0.529,4.002,0.633,6.02,0.84c2.141,0.22,4.293,0.393,6.411,0.757
			c1.196,0.207,2.333,0.755,3.496,1.15c0.097,0.034,0.191,0.074,0.346,0.026c-0.184-0.145-0.355-0.312-0.553-0.432
			c-1.879-1.143-3.771-2.265-5.645-3.419c-1.55-0.955-3.005-2.028-4.001-3.604c-0.749-1.182-1.129-2.481-1.271-3.936
			c0.091,0.073,0.133,0.09,0.148,0.122c0.979,2.072,2.725,3.175,4.854,3.708c1.859,0.464,3.747,0.817,5.626,1.194
			c4.043,0.811,7.725,2.302,10.404,5.612c0.782,0.965,1.414,2.051,2.115,3.083c0.084,0.125,0.162,0.253,0.289,0.452
			c0.506-0.561,0.971-1.073,1.493-1.649c0.041,0.175,0.086,0.27,0.081,0.362c-0.073,1.32,0.484,2.389,1.318,3.352
			c1.441,1.664,2.907,3.307,4.308,5.004c0.952,1.155,1.851,2.362,2.359,3.8c0.322,0.909,0.178,1.264-0.595,1.85
			c-0.122,0.092-0.151,0.485-0.062,0.647c0.413,0.749,0.821,1.513,1.344,2.185c1.135,1.458,2.494,2.708,3.945,3.852
			c0.343,0.269,0.347,0.459,0.115,0.799c-0.63,0.919-1.125,1.908-1.29,3.029c-0.036,0.247-0.1,0.506-0.059,0.742
			c0.082,0.475-0.11,0.695-0.533,0.879c-1.651,0.725-3.367,1.227-5.125,1.604c-0.041,0.008-0.087-0.012-0.179-0.027
			c0.045-0.777,0.14-1.572-0.371-2.305c-0.688,0.607-1.36,1.152-2.35,1.395c0.489-0.818,0.857-1.578,0.869-2.563
			c-0.423,0.236-0.763,0.426-1.181,0.66c0.161-0.504,0.295-0.92,0.427-1.338c0.082-0.258,0.075-0.479-0.181-0.66
			c-0.266-0.188-0.47-0.13-0.711,0.057C40.451,38.729,40.149,38.891,39.765,39.137z M41.777,28.958
			c0.014-0.043,0.027-0.086,0.041-0.13c-3.233-1.697-6.503-3.339-9.192-5.904c-0.014,0.19,0.005,0.354,0.047,0.513
			c0.597,2.254,1.919,4.031,3.664,5.521c0.183,0.156,0.476,0.263,0.715,0.258c1.464-0.033,2.928-0.102,4.392-0.167
			C41.556,29.045,41.666,28.99,41.777,28.958z M44.455,37.496c0.272,0.928,1.732,2.101,2.528,2.101c0-0.182-0.017-0.366,0.003-0.55
			c0.042-0.385-0.094-0.586-0.491-0.699c-0.474-0.137-0.922-0.365-1.38-0.557C44.924,37.711,44.735,37.623,44.455,37.496z"/>
		<path fill-rule="evenodd" clip-rule="evenodd" d="M14.277,28.274c-0.31,0.743-0.64,1.479-0.929,2.229
			c-1.442,3.758-2.082,7.646-1.745,11.663c0.408,4.865,2.235,9.184,5.191,13.041c1.835,2.396,3.995,4.463,6.36,6.326
			c0.083,0.066,0.165,0.135,0.309,0.256c-0.138,0.014-0.21,0.043-0.267,0.023c-3.574-1.137-6.834-2.809-9.45-5.572
			c-1.571-1.662-2.536-3.645-3.158-5.826c-0.938-3.295-1.292-6.646-1.013-10.057c0.359-4.359,1.794-8.335,4.405-11.866
			c0.067-0.093,0.155-0.172,0.234-0.257C14.234,28.247,14.255,28.26,14.277,28.274z"/>
		<path fill-rule="evenodd" clip-rule="evenodd" d="M7.831,49.43c-0.218-0.611-0.451-1.215-0.651-1.832
			c-1.117-3.439-1.566-6.974-1.329-10.575c0.352-5.341,2.058-10.218,5.141-14.607c0.256-0.365,0.531-0.494,0.978-0.44
			c1.157,0.136,2.204,0.548,3.185,1.152c0.128,0.079,0.245,0.177,0.387,0.281C8.167,30.677,6.054,39.445,7.831,49.43z"/>
		<path fill-rule="evenodd" clip-rule="evenodd" d="M16.295,49.416c1.095-0.295,2.121-0.621,3.168-0.844
			c1.448-0.309,2.915-0.529,4.368-0.811c0.622-0.121,1.047-0.006,1.453,0.566c1.198,1.688,2.662,3.139,4.242,4.473
			c0.152,0.129,0.3,0.264,0.541,0.475c-0.53,0.117-0.959,0.225-1.392,0.307c-2.184,0.424-4.297,1.053-6.298,2.043
			c-0.152,0.074-0.449,0.045-0.582-0.057c-2.082-1.627-3.88-3.521-5.319-5.746C16.42,49.732,16.39,49.627,16.295,49.416z"/>
		<path fill-rule="evenodd" clip-rule="evenodd" d="M-6.395,21.026c0.245-0.178,0.48-0.375,0.738-0.534
			c2.148-1.32,4.467-2.212,6.934-2.711c3.007-0.606,6.049-0.622,9.097-0.493c0.46,0.02,0.917,0.119,1.468,0.195
			c-0.132,0.179-0.2,0.292-0.287,0.387c-1.602,1.743-3.006,3.63-4.158,5.699c-0.184,0.33-0.331,0.398-0.684,0.189
			c-2.248-1.333-4.654-2.262-7.234-2.704c-1.862-0.32-3.726-0.356-5.584,0.056c-0.072,0.015-0.146,0.022-0.22,0.032
			C-6.349,21.104-6.371,21.065-6.395,21.026z"/>
		<path fill-rule="evenodd" clip-rule="evenodd" d="M-6.947,44.768c1.322-5.959,5.422-10.846,10.818-11.905
			c-0.014,0.239-0.002,0.466-0.043,0.684c-0.399,2.127-0.51,4.272-0.454,6.431c0.017,0.657,0.013,0.651-0.614,0.743
			c-3.489,0.506-6.694,1.697-9.458,3.947c-0.036,0.029-0.074,0.057-0.116,0.076C-6.841,44.756-6.874,44.756-6.947,44.768z"/>
		<path fill-rule="evenodd" clip-rule="evenodd" d="M13.422,40.1c-0.02-0.826-0.097-1.645-0.046-2.457
			c0.113-1.78,0.422-3.531,0.969-5.235c0.109-0.342,0.286-0.533,0.639-0.577c2.334-0.289,4.542,0.032,6.556,1.332
			c0.325,0.21,0.43,0.405,0.275,0.793c-0.463,1.163-0.597,2.391-0.544,3.631c0.018,0.423-0.146,0.583-0.546,0.636
			c-2.423,0.312-4.793,0.832-7.028,1.859C13.658,40.1,13.606,40.09,13.422,40.1z"/>
		<path fill-rule="evenodd" clip-rule="evenodd" d="M23.656,46.023c-0.86,0.145-1.664,0.238-2.448,0.418
			c-1.73,0.398-3.453,0.832-5.17,1.281c-0.285,0.074-0.426,0.047-0.555-0.215c-0.789-1.619-1.363-3.313-1.792-5.059
			c-0.07-0.283,0.036-0.457,0.289-0.551c1.237-0.459,2.457-0.983,3.722-1.347c1.088-0.315,2.231-0.442,3.347-0.659
			c0.238-0.044,0.378-0.006,0.429,0.271c0.356,1.936,1.06,3.744,2.015,5.459C23.553,45.729,23.587,45.85,23.656,46.023z"/>
		<path fill-rule="evenodd" clip-rule="evenodd" d="M-8.927,32.667c1.978-2.339,4.312-4.192,7.076-5.48
			c2.547-1.188,5.214-1.751,8.115-1.527c-0.14,0.352-0.266,0.643-0.373,0.941c-0.459,1.275-0.932,2.546-1.358,3.832
			c-0.134,0.407-0.279,0.551-0.724,0.432c-1.886-0.504-3.802-0.467-5.716-0.206c-2.332,0.317-4.561,1.01-6.722,1.93
			C-8.723,32.628-8.828,32.64-8.927,32.667z"/>
		<path fill-rule="evenodd" clip-rule="evenodd" d="M23.644,56.883c0.981-0.35,1.854-0.748,2.769-0.963
			c1.819-0.424,3.662-0.754,5.499-1.105c0.16-0.031,0.373,0.033,0.518,0.121c1.874,1.176,3.847,2.129,5.972,2.758
			c0.152,0.043,0.288,0.141,0.454,0.225C36.16,60.236,26.804,59.627,23.644,56.883z"/>
		<path fill-rule="evenodd" clip-rule="evenodd" d="M-2.862,51.793c-0.502-3.295,3.167-8.719,6.332-9.438
			c0.406,1.92,0.811,3.84,1.226,5.803c-1.47,0.064-2.92,0.209-4.284,0.82C-0.944,49.588-2.008,50.531-2.862,51.793z"/>
		<path fill-rule="evenodd" clip-rule="evenodd" d="M5.214,49.574c0.362,0.969,0.68,1.813,0.994,2.656
			c0.212,0.57,0.394,1.154,0.636,1.709c0.139,0.318,0.033,0.516-0.154,0.754c-1.03,1.309-1.898,2.707-2.387,4.313
			c-0.049,0.162-0.093,0.324-0.14,0.492c-0.412-0.326-0.849-1.967-0.904-3.676C3.186,53.576,3.798,51.521,5.214,49.574z"/>
		<path fill-rule="evenodd" clip-rule="evenodd" fill="#FFFFFF" d="M41.777,28.958c-0.111,0.032-0.222,0.087-0.334,0.092
			c-1.464,0.064-2.927,0.134-4.392,0.167c-0.239,0.004-0.533-0.102-0.715-0.258c-1.744-1.49-3.066-3.267-3.664-5.521
			c-0.042-0.158-0.061-0.322-0.047-0.513c2.689,2.564,5.959,4.207,9.192,5.904C41.805,28.872,41.792,28.915,41.777,28.958z"/>
		<path fill-rule="evenodd" clip-rule="evenodd" fill="#FFFFFF" d="M44.455,37.496c0.281,0.127,0.469,0.215,0.661,0.295
			c0.458,0.191,0.906,0.42,1.38,0.557c0.397,0.113,0.533,0.314,0.491,0.699c-0.02,0.184-0.003,0.368-0.003,0.55
			C46.187,39.597,44.727,38.424,44.455,37.496z"/>
	</g>
</g>
<g id="Layer_4" display="none">
	<circle display="inline" fill-rule="evenodd" clip-rule="evenodd" fill="#00AEEF" cx="23.055" cy="38.37" r="29.367"/>
	<g display="inline">
		<path fill-rule="evenodd" clip-rule="evenodd" fill="#FFFFFF" d="M36.937,42.482c0.128-0.375,0.224-0.65,0.319-0.93
			c-0.029-0.016-0.058-0.033-0.086-0.051c-0.237,0.113-0.468,0.246-0.715,0.334c-0.232,0.082-0.481,0.113-0.782,0.18
			c0.237-0.355,0.428-0.637,0.61-0.92c0.138-0.219,0.118-0.429-0.012-0.656c-0.752-1.298-1.846-2.183-3.296-2.534
			c-0.779-0.189-1.602-0.194-2.406-0.275c-0.128-0.013-0.261,0.017-0.51,0.037c0.16,0.169,0.239,0.276,0.34,0.356
			c1.698,1.343,3.211,2.86,4.422,4.662c0.185,0.275,0.362,0.557,0.521,0.848c0.125,0.229,0.238,0.443,0.593,0.273
			c-0.022,0.271-0.039,0.496-0.062,0.791c0.222-0.094,0.381-0.16,0.633-0.264c-0.08,0.443-0.147,0.816-0.235,1.309
			c0.451-0.275,0.833-0.508,1.273-0.775c0.064,0.652-0.244,1.172-0.408,1.818c0.366-0.068,0.645-0.119,0.995-0.186
			c0.269,1.037,0.462,2.088,0.345,3.24c-0.396-0.16-0.717-0.305-1.049-0.418c-0.658-0.227-1.338-0.332-2.032-0.258
			c-0.314,0.035-0.37-0.086-0.363-0.369c0.032-1.518-0.292-2.93-1.296-4.123c-0.094-0.115-0.205-0.213-0.302-0.324
			c-0.179-0.201-0.371-0.219-0.626-0.121c-0.785,0.305-1.598,0.377-2.428,0.209c-0.101-0.02-0.195-0.074-0.307-0.119
			c0.138-0.303,0.315-0.561,0.363-0.836c0.049-0.285,0.042-0.621-0.067-0.879c-0.19-0.447-0.459-0.869-0.734-1.275
			c-0.094-0.137-0.295-0.258-0.46-0.277c-0.844-0.102-1.683-0.192-2.447-0.616c-1.358-0.755-1.861-2.159-1.517-3.624
			c0.117-0.496,0.438-0.944,0.666-1.414c0.025-0.052,0.05-0.103,0.104-0.214c-0.133,0.03-0.212,0.036-0.281,0.065
			c-0.755,0.329-1.401,0.814-1.953,1.42c-0.139,0.153-0.253,0.193-0.437,0.073c-1.671-1.089-3.511-1.482-5.483-1.322
			c-0.071,0.007-0.143-0.008-0.281-0.016c0.08-0.124,0.124-0.218,0.188-0.293c1.16-1.359,2.376-2.659,3.873-3.659
			c0.275-0.185,0.148-0.301-0.01-0.45c-1.204-1.129-2.581-1.999-4.072-2.691c-0.556-0.258-1.136-0.464-1.703-0.696
			c-0.062-0.025-0.116-0.071-0.26-0.163c3.296-0.477,6.385-0.101,9.365,1.205c0.018-0.034,0.037-0.069,0.055-0.104
			c-0.075-0.099-0.143-0.203-0.225-0.295c-1.093-1.229-2.49-2.004-4.017-2.514c-1.909-0.636-3.851-1.168-5.777-1.752
			c-1.497-0.454-2.97-0.962-4.252-1.896c-1.426-1.037-2.141-2.454-2.255-4.251c0.078,0.059,0.133,0.082,0.158,0.123
			c0.922,1.501,2.35,2.255,3.987,2.696c1.552,0.417,3.151,0.498,4.739,0.661c1.686,0.174,3.38,0.309,5.047,0.596
			c0.941,0.163,1.836,0.594,2.752,0.905c0.076,0.026,0.15,0.058,0.272,0.02c-0.145-0.114-0.279-0.245-0.435-0.34
			c-1.479-0.899-2.969-1.783-4.444-2.692c-1.221-0.751-2.366-1.597-3.15-2.837c-0.589-0.93-0.889-1.954-1.001-3.098
			c0.072,0.058,0.105,0.071,0.117,0.096c0.771,1.631,2.145,2.5,3.821,2.918c1.463,0.365,2.949,0.644,4.429,0.94
			c3.183,0.638,6.082,1.813,8.191,4.418c0.615,0.759,1.113,1.614,1.665,2.427c0.066,0.098,0.128,0.2,0.228,0.356
			c0.399-0.441,0.764-0.844,1.176-1.298c0.032,0.138,0.067,0.212,0.063,0.285c-0.058,1.04,0.381,1.881,1.038,2.639
			c1.135,1.31,2.289,2.604,3.392,3.939c0.749,0.909,1.457,1.859,1.857,2.991c0.253,0.716,0.14,0.995-0.468,1.457
			c-0.096,0.072-0.119,0.381-0.048,0.51c0.325,0.589,0.646,1.19,1.058,1.72c0.894,1.148,1.963,2.133,3.105,3.032
			c0.27,0.212,0.273,0.361,0.091,0.629c-0.496,0.723-0.886,1.502-1.015,2.385c-0.028,0.193-0.079,0.398-0.046,0.584
			c0.065,0.373-0.086,0.547-0.419,0.691c-1.3,0.57-2.651,0.965-4.035,1.262c-0.032,0.008-0.068-0.008-0.141-0.021
			c0.035-0.611,0.11-1.236-0.292-1.814c-0.542,0.479-1.071,0.908-1.85,1.1c0.385-0.645,0.675-1.244,0.685-2.018
			c-0.333,0.186-0.601,0.334-0.93,0.52c0.126-0.396,0.232-0.725,0.336-1.055c0.064-0.201,0.059-0.377-0.142-0.52
			c-0.209-0.146-0.37-0.102-0.56,0.045C37.477,42.16,37.239,42.289,36.937,42.482z M38.521,34.47
			c0.011-0.034,0.021-0.068,0.032-0.103c-2.545-1.336-5.12-2.629-7.237-4.648c-0.011,0.15,0.004,0.279,0.037,0.404
			c0.47,1.774,1.511,3.174,2.884,4.347c0.144,0.123,0.375,0.206,0.563,0.203c1.153-0.025,2.305-0.08,3.457-0.131
			C38.347,34.538,38.434,34.494,38.521,34.47z M40.629,41.191c0.214,0.729,1.364,1.652,1.99,1.652c0-0.143-0.013-0.287,0.002-0.432
			c0.034-0.305-0.074-0.463-0.386-0.551c-0.373-0.107-0.726-0.287-1.086-0.439C40.999,41.359,40.85,41.291,40.629,41.191z"/>
		<path fill-rule="evenodd" clip-rule="evenodd" fill="#FFFFFF" d="M16.872,33.931c-0.244,0.585-0.504,1.164-0.731,1.755
			c-1.135,2.959-1.639,6.018-1.374,9.182c0.321,3.83,1.76,7.229,4.086,10.266c1.445,1.887,3.146,3.514,5.007,4.98
			c0.065,0.053,0.13,0.105,0.244,0.201c-0.108,0.012-0.166,0.035-0.21,0.02c-2.814-0.896-5.38-2.211-7.439-4.387
			c-1.237-1.309-1.997-2.869-2.486-4.588c-0.738-2.594-1.017-5.232-0.797-7.916c0.283-3.432,1.412-6.563,3.468-9.342
			c0.053-0.073,0.122-0.136,0.184-0.202C16.838,33.909,16.855,33.92,16.872,33.931z"/>
		<path fill-rule="evenodd" clip-rule="evenodd" fill="#FFFFFF" d="M11.797,50.586c-0.171-0.482-0.355-0.957-0.512-1.443
			c-0.879-2.707-1.233-5.49-1.046-8.325c0.277-4.204,1.62-8.044,4.047-11.499c0.202-0.288,0.418-0.389,0.77-0.347
			c0.911,0.107,1.735,0.432,2.507,0.907c0.101,0.063,0.192,0.14,0.304,0.221C12.063,35.822,10.398,42.725,11.797,50.586z"/>
		<path fill-rule="evenodd" clip-rule="evenodd" fill="#FFFFFF" d="M18.461,50.574c0.862-0.232,1.669-0.488,2.494-0.664
			c1.14-0.242,2.294-0.416,3.438-0.639c0.489-0.096,0.824-0.004,1.144,0.447c0.943,1.328,2.096,2.471,3.34,3.52
			c0.119,0.102,0.236,0.209,0.425,0.375c-0.417,0.092-0.755,0.176-1.096,0.24c-1.719,0.334-3.383,0.83-4.958,1.609
			c-0.12,0.059-0.354,0.035-0.458-0.045c-1.639-1.281-3.054-2.773-4.187-4.523C18.559,50.824,18.535,50.74,18.461,50.574z"/>
		<path fill-rule="evenodd" clip-rule="evenodd" fill="#FFFFFF" d="M0.599,28.225c0.193-0.141,0.378-0.296,0.581-0.42
			c1.691-1.04,3.517-1.742,5.459-2.134c2.367-0.477,4.762-0.489,7.161-0.388c0.362,0.016,0.722,0.094,1.156,0.153
			c-0.104,0.141-0.157,0.23-0.226,0.305c-1.261,1.372-2.367,2.858-3.273,4.487c-0.145,0.26-0.26,0.313-0.538,0.148
			c-1.77-1.049-3.664-1.78-5.695-2.128c-1.465-0.252-2.933-0.281-4.396,0.044c-0.057,0.011-0.115,0.017-0.173,0.025
			C0.634,28.286,0.617,28.256,0.599,28.225z"/>
		<path fill-rule="evenodd" clip-rule="evenodd" fill="#FFFFFF" d="M0.164,46.914c1.041-4.689,4.269-8.537,8.516-9.372
			c-0.011,0.189-0.002,0.368-0.034,0.54c-0.314,1.675-0.401,3.361-0.357,5.061c0.013,0.52,0.01,0.514-0.484,0.586
			c-2.747,0.398-5.27,1.336-7.446,3.107C0.33,46.859,0.3,46.881,0.268,46.896C0.247,46.906,0.221,46.906,0.164,46.914z"/>
		<path fill-rule="evenodd" clip-rule="evenodd" fill="#FFFFFF" d="M16.199,43.24c-0.016-0.65-0.077-1.295-0.037-1.934
			c0.089-1.402,0.333-2.78,0.763-4.122c0.085-0.271,0.225-0.42,0.503-0.454c1.838-0.228,3.576,0.025,5.161,1.049
			c0.256,0.164,0.338,0.318,0.217,0.624c-0.364,0.916-0.47,1.882-0.429,2.858c0.014,0.334-0.115,0.459-0.43,0.5
			c-1.907,0.246-3.773,0.656-5.533,1.465C16.385,43.24,16.344,43.232,16.199,43.24z"/>
		<path fill-rule="evenodd" clip-rule="evenodd" fill="#FFFFFF" d="M24.256,47.904c-0.677,0.113-1.31,0.188-1.927,0.328
			c-1.362,0.314-2.718,0.654-4.07,1.008c-0.225,0.059-0.335,0.037-0.437-0.168c-0.621-1.275-1.073-2.607-1.411-3.982
			c-0.055-0.223,0.028-0.359,0.228-0.434c0.974-0.361,1.934-0.775,2.93-1.061c0.857-0.248,1.756-0.348,2.635-0.52
			c0.188-0.035,0.298-0.004,0.338,0.215c0.28,1.523,0.834,2.947,1.586,4.297C24.174,47.672,24.201,47.768,24.256,47.904z"/>
		<path fill-rule="evenodd" clip-rule="evenodd" fill="#FFFFFF" d="M-1.396,37.389c1.557-1.842,3.395-3.301,5.571-4.314
			c2.005-0.936,4.105-1.379,6.388-1.202c-0.11,0.276-0.209,0.506-0.293,0.74c-0.362,1.004-0.733,2.004-1.069,3.017
			c-0.105,0.32-0.219,0.434-0.57,0.34c-1.484-0.396-2.993-0.368-4.5-0.162c-1.835,0.25-3.59,0.795-5.292,1.521
			C-1.234,37.359-1.317,37.368-1.396,37.389z"/>
		<path fill-rule="evenodd" clip-rule="evenodd" fill="#FFFFFF" d="M24.246,56.453c0.772-0.275,1.459-0.59,2.18-0.758
			c1.432-0.334,2.883-0.594,4.329-0.871c0.126-0.025,0.293,0.025,0.407,0.096c1.476,0.926,3.028,1.676,4.702,2.17
			c0.12,0.035,0.227,0.111,0.357,0.178C34.099,59.092,26.733,58.613,24.246,56.453z"/>
		<path fill-rule="evenodd" clip-rule="evenodd" fill="#FFFFFF" d="M3.379,52.445c-0.395-2.594,2.493-6.863,4.984-7.43
			c0.32,1.512,0.639,3.023,0.965,4.568c-1.157,0.051-2.298,0.164-3.373,0.646C4.89,50.709,4.051,51.453,3.379,52.445z"/>
		<path fill-rule="evenodd" clip-rule="evenodd" fill="#FFFFFF" d="M9.737,50.699c0.285,0.762,0.536,1.426,0.782,2.09
			c0.167,0.449,0.311,0.91,0.5,1.346c0.109,0.252,0.026,0.406-0.121,0.594c-0.812,1.031-1.495,2.131-1.879,3.395
			c-0.039,0.129-0.074,0.256-0.11,0.389c-0.325-0.258-0.668-1.549-0.712-2.895C8.141,53.85,8.623,52.232,9.737,50.699z"/>
		<path fill-rule="evenodd" clip-rule="evenodd" fill="#00AEEF" d="M38.521,34.47c-0.088,0.024-0.175,0.068-0.263,0.072
			c-1.152,0.051-2.304,0.105-3.457,0.131c-0.188,0.003-0.419-0.08-0.563-0.203c-1.373-1.173-2.414-2.572-2.884-4.347
			c-0.033-0.125-0.048-0.254-0.037-0.404c2.117,2.019,4.691,3.312,7.237,4.648C38.543,34.401,38.532,34.436,38.521,34.47z"/>
		<path fill-rule="evenodd" clip-rule="evenodd" fill="#FFFFFF" d="M40.629,41.191c0.221,0.1,0.37,0.168,0.52,0.23
			c0.36,0.152,0.713,0.332,1.086,0.439c0.313,0.088,0.42,0.246,0.386,0.551c-0.015,0.145-0.002,0.289-0.002,0.432
			C41.993,42.844,40.843,41.92,40.629,41.191z"/>
	</g>
</g>
<g id="Layer_5" display="none">
	<g display="inline">
		<g>
			<path fill-rule="evenodd" clip-rule="evenodd" fill="#EF4136" d="M5.385,9.968c0-2.75,2.25-5,5-5h42.5c2.75,0,5,2.25,5,5v42.5
				c0,2.75-2.25,5-5,5h-42.5c-2.75,0-5-2.25-5-5V9.968z"/>
		</g>
		<g>
			<g>
				<path fill-rule="evenodd" clip-rule="evenodd" fill="#1E1E1E" d="M10.8,22.609c1.045-1.376,2.655-2.111,4.348-2.727
					c0.836-0.304,1.737-0.481,2.613-0.704c0.927-0.236,1.81-0.539,2.453-1.188c0.916-0.922,0.649-2.069-0.612-2.619
					c-0.29-0.126-0.617-0.241-0.935-0.26c-0.683-0.039-1.372-0.012-2.168-0.012c1.602-1.177,3.396-1.689,5.367-1.784
					c3.362-0.161,6.382,0.731,9.193,2.222c0.278,0.147,0.532,0.329,0.796,0.494c-2.035-3.555-4.912-6.578-7.868-9.563
					c3.514,1.528,6.636,3.534,9.675,5.644c0.067-0.025,0.134-0.051,0.2-0.076c-0.583-1.82-1.165-3.641-1.788-5.586
					c0.518,0.511,1.01,0.912,1.384,1.381c1.78,2.233,3.565,4.464,5.274,6.737c1.229,1.635,2.357,3.316,4.321,4.435
					c0.582,0.331,1.124,0.721,1.639,1.124c0.197,0.155,0.359,0.42,0.382,0.646c0.124,1.229,0.339,2.434,1.043,3.538
					c0.396,0.623,0.887,1.184,1.643,1.512c1.187,0.517,1.985,0.146,2.342-0.895c0.112-0.327,0.106-0.685,0.168-1.139
					c0.669,1.023,1.323,1.944,1.882,2.905c0.388,0.667,0.729,1.369,0.946,2.088c0.633,2.088-0.011,3.299-2.241,3.814
					c-1.556,0.359-5.321,0.136-6.922-0.351c0.199-0.09,0.391-0.167,0.571-0.262c0.182-0.096,0.365-0.196,0.522-0.317
					c0.521-0.405,0.592-0.886,0.09-1.303c-0.396-0.329-0.88-0.604-1.377-0.817c-1.373-0.591-2.866-0.815-4.387-0.918
					c-1.485-0.101-2.947-0.289-4.33-0.788c-2.077-0.75-3.381-2.037-3.737-3.953c-0.092-0.496-0.103-1.004-0.151-1.521
					c-4.113,1.669-4.874,5.658-2.57,8.303c1.237,1.42,2.953,2.375,4.891,3.044c3.83,1.32,7.333,3.074,10.168,5.677
					c1.657,1.52,2.916,3.24,3.383,5.303c0.16,0.707,0.168,1.439,0.246,2.16c-1.885-1.316-3.782-2.393-6.047-3.035
					c0.257,0.643,0.528,1.195,0.696,1.768c0.169,0.576,0.311,1.172,0.333,1.76c0.1,2.691-1.295,4.777-3.817,6.309
					c-3.52,2.137-7.506,2.625-11.712,2.189c-0.343-0.035-0.682-0.098-0.872-0.125c1.289-0.17,2.699-0.324,4.095-0.549
					c1.6-0.258,2.927-0.92,3.788-2.129c0.245-0.344,0.467-0.738,0.528-1.127c0.177-1.131-0.234-2.168-0.863-3.156
					c-1.074-1.691-2.77-2.848-4.607-3.881c-2.146-1.207-4.34-2.354-6.45-3.604c-2.772-1.641-4.993-3.684-6.209-6.432
					c-0.267-0.604-0.72-1.186-1.231-1.668c-1.093-1.03-2.495-0.841-3.218,0.398c-0.246,0.421-0.365,0.896-0.537,1.334
					c-1.465-2.687-0.982-5.984,2.176-7.875c0.518-0.311,0.964-0.788,1.255-1.271c0.504-0.836-0.087-1.634-1.196-1.682
					c-0.495-0.021-1.021,0.038-1.493,0.168c-0.656,0.179-1.273,0.458-1.93,0.702C9.966,24.09,10.258,23.322,10.8,22.609z
					 M49.455,28.807c0.01-0.018,0.021-0.035,0.031-0.053c-0.027-0.004-0.055-0.007-0.082-0.011
					c-0.224-0.793-0.775-1.396-1.601-1.775c-0.867-0.399-1.57,0.038-1.574,0.954c0.97-0.532,1.771-0.174,2.538,0.335
					c0.225,0.149,0.431,0.317,0.646,0.477C49.427,28.758,49.44,28.783,49.455,28.807z M38.466,19.573
					c-0.03,0.024-0.059,0.048-0.088,0.072c0.238,0.238,0.499,0.463,0.712,0.717c0.552,0.657,1.076,1.331,1.629,1.989
					c0.094,0.111,0.279,0.257,0.406,0.245c0.832-0.071,1.659-0.182,2.488-0.278c-0.004-0.045-0.008-0.09-0.012-0.135
					C41.89,21.313,40.178,20.443,38.466,19.573z"/>
				<path fill-rule="evenodd" clip-rule="evenodd" fill="#1E1E1E" d="M9.744,44.408c0.022,0.227,0.01,0.363,0.051,0.486
					c1.225,3.725,3.638,6.693,7.778,8.467c2.657,1.139,5.484,1.465,8.415,0.836c0.188-0.041,0.375-0.09,0.559-0.146
					c2.861-0.871,3.824-2.904,2.432-5.201c-1.134-1.871-3.008-3.096-5.118-4.098c-0.249-0.119-0.506-0.223-0.749-0.328
					c0.189,0.535,0.427,1.037,0.538,1.561c0.177,0.834-0.548,1.803-1.537,2.033c-3.939,0.918-7.302-0.193-10.426-2.113
					C11.017,45.494,10.452,44.959,9.744,44.408z"/>
			</g>
			<path fill-rule="evenodd" clip-rule="evenodd" fill="#1E1E1E" d="M49.414,28.734c0.013,0.024,0.027,0.049,0.041,0.073
				c0.01-0.018,0.021-0.035,0.031-0.053c-0.027-0.004-0.055-0.007-0.082-0.011L49.414,28.734z"/>
		</g>
	</g>
</g>
<g id="Layer_5_copy" display="none">
</g>
<g id="Layer_11" display="none">
	<path display="inline" fill="none" d="M26.546,54.051c2.861-0.871,3.824-2.904,2.432-5.201c-1.134-1.871-3.008-3.096-5.118-4.098
		c-0.249-0.119-0.506-0.223-0.749-0.328c0.189,0.535,0.427,1.037,0.538,1.561c0.177,0.834-0.548,1.803-1.537,2.033
		c-3.939,0.918-7.302-0.193-10.426-2.113c-0.669-0.41-1.234-0.945-1.941-1.496c0.022,0.227,0.01,0.363,0.051,0.486
		c1.225,3.725,3.638,6.693,7.778,8.467c2.657,1.139,5.484,1.465,8.415,0.836C26.176,54.156,26.363,54.107,26.546,54.051z"/>
	<path display="inline" fill="none" d="M52.151,26.693c-0.559-0.961-1.213-1.882-1.882-2.905c-0.063,0.454-0.056,0.812-0.168,1.139
		c-0.357,1.04-1.155,1.411-2.342,0.895c-0.755-0.328-1.246-0.889-1.643-1.512c-0.704-1.104-0.919-2.309-1.043-3.538
		c-0.023-0.226-0.185-0.49-0.382-0.646c-0.515-0.403-1.057-0.793-1.639-1.124c-1.964-1.118-3.092-2.8-4.321-4.435
		c-1.708-2.272-3.494-4.504-5.274-6.737c-0.374-0.469-0.866-0.87-1.384-1.381c0.623,1.946,1.206,3.766,1.788,5.586
		c-0.066,0.025-0.133,0.051-0.2,0.076c-3.039-2.109-6.161-4.115-9.675-5.644c2.956,2.986,5.833,6.009,7.868,9.563
		c-0.265-0.165-0.518-0.347-0.796-0.494c-2.812-1.49-5.831-2.383-9.193-2.222c-1.971,0.095-3.765,0.607-5.367,1.784
		c0.796,0,1.485-0.027,2.168,0.012c0.318,0.019,0.646,0.134,0.935,0.26c1.262,0.55,1.528,1.697,0.612,2.619
		c-0.643,0.648-1.526,0.951-2.453,1.188c-0.876,0.223-1.777,0.4-2.613,0.704c-1.693,0.615-3.303,1.351-4.348,2.727
		c-0.542,0.713-0.833,1.481-0.859,2.338c0.656-0.244,1.274-0.523,1.93-0.702c0.472-0.13,0.998-0.188,1.493-0.168
		c1.108,0.048,1.7,0.846,1.196,1.682c-0.291,0.482-0.737,0.96-1.255,1.271c-3.158,1.891-3.641,5.188-2.176,7.875
		c0.172-0.438,0.291-0.913,0.537-1.334c0.723-1.239,2.125-1.429,3.218-0.398c0.511,0.482,0.964,1.063,1.231,1.668
		c1.217,2.749,3.438,4.792,6.209,6.432c2.11,1.25,4.304,2.396,6.45,3.604c1.837,1.033,3.533,2.189,4.607,3.881
		c0.629,0.988,1.04,2.025,0.863,3.156c-0.061,0.389-0.283,0.783-0.528,1.127c-0.861,1.209-2.188,1.871-3.788,2.129
		c-1.396,0.225-2.806,0.379-4.095,0.549c0.189,0.027,0.528,0.09,0.872,0.125c4.206,0.436,8.192-0.053,11.712-2.189
		c2.522-1.531,3.917-3.617,3.817-6.309c-0.022-0.588-0.164-1.184-0.333-1.76c-0.168-0.572-0.439-1.125-0.696-1.768
		c2.265,0.643,4.163,1.719,6.047,3.035c-0.078-0.721-0.086-1.453-0.246-2.16c-0.467-2.063-1.726-3.783-3.383-5.303
		c-2.834-2.604-6.338-4.357-10.168-5.677c-1.938-0.669-3.654-1.624-4.891-3.044c-2.304-2.645-1.543-6.634,2.57-8.303
		c0.049,0.518,0.06,1.025,0.151,1.521c0.356,1.916,1.66,3.203,3.737,3.953c1.383,0.499,2.845,0.688,4.33,0.788
		c1.521,0.103,3.014,0.327,4.387,0.918c0.497,0.213,0.982,0.488,1.377,0.817c0.502,0.417,0.431,0.897-0.09,1.303
		c-0.157,0.121-0.34,0.222-0.522,0.317c-0.18,0.095-0.372,0.172-0.571,0.262c1.601,0.486,5.366,0.71,6.922,0.351
		c2.23-0.516,2.875-1.727,2.241-3.814C52.88,28.062,52.54,27.36,52.151,26.693z M41.125,22.596
		c-0.126,0.012-0.312-0.134-0.406-0.245c-0.553-0.658-1.077-1.332-1.629-1.989c-0.213-0.254-0.474-0.479-0.712-0.717
		c0.029-0.024,0.058-0.048,0.088-0.072c1.712,0.87,3.423,1.74,5.135,2.61c0.003,0.045,0.007,0.09,0.012,0.135
		C42.784,22.415,41.957,22.525,41.125,22.596z M49.404,28.744c-0.002-0.009-0.007-0.016-0.01-0.024
		c-0.208-0.155-0.409-0.317-0.627-0.462c-0.767-0.509-1.568-0.867-2.538-0.335c0.003-0.916,0.707-1.354,1.574-0.954
		c0.817,0.375,1.362,0.971,1.591,1.751c0.006,0.005,0.013,0.01,0.02,0.015L49.404,28.744z"/>
	<path display="inline" fill="#EF4136" d="M49.404,28.744l0.01-0.01c-0.006-0.005-0.013-0.01-0.02-0.015
		C49.396,28.728,49.401,28.735,49.404,28.744z"/>
	<g display="inline">
		<path fill="#00AEEF" d="M38.466,19.573c-0.03,0.024-0.059,0.048-0.088,0.072c0.238,0.238,0.499,0.463,0.712,0.717
			c0.552,0.657,1.076,1.331,1.629,1.989c0.094,0.111,0.279,0.257,0.406,0.245c0.832-0.071,1.659-0.182,2.488-0.278
			c-0.004-0.045-0.008-0.09-0.012-0.135C41.89,21.313,40.178,20.443,38.466,19.573z"/>
		<path fill="#00AEEF" d="M47.803,26.968c-0.867-0.399-1.57,0.038-1.574,0.954c0.97-0.532,1.771-0.174,2.538,0.335
			c0.218,0.145,0.418,0.307,0.627,0.462C49.165,27.939,48.62,27.344,47.803,26.968z"/>
		<path fill="#00AEEF" d="M54.406,4.968H8.864c-1.921,0-3.479,1.558-3.479,3.479v45.542c0,1.921,1.558,3.479,3.479,3.479h45.542
			c1.921,0,3.479-1.559,3.479-3.479V8.447C57.885,6.526,56.327,4.968,54.406,4.968z M17.573,53.361
			c-4.141-1.773-6.553-4.742-7.778-8.467c-0.041-0.123-0.029-0.26-0.051-0.486c0.708,0.551,1.272,1.086,1.941,1.496
			c3.124,1.92,6.487,3.031,10.426,2.113c0.989-0.23,1.714-1.199,1.537-2.033c-0.111-0.523-0.349-1.025-0.538-1.561
			c0.243,0.105,0.5,0.209,0.749,0.328c2.11,1.002,3.984,2.227,5.118,4.098c1.392,2.297,0.429,4.33-2.432,5.201
			c-0.183,0.057-0.37,0.105-0.559,0.146C23.058,54.826,20.23,54.5,17.573,53.361z M50.856,32.595
			c-1.556,0.359-5.321,0.136-6.922-0.351c0.199-0.09,0.391-0.167,0.571-0.262c0.182-0.096,0.365-0.196,0.522-0.317
			c0.521-0.405,0.592-0.886,0.09-1.303c-0.396-0.329-0.88-0.604-1.377-0.817c-1.373-0.591-2.866-0.815-4.387-0.918
			c-1.485-0.101-2.947-0.289-4.33-0.788c-2.077-0.75-3.381-2.037-3.737-3.953c-0.092-0.496-0.103-1.004-0.151-1.521
			c-4.113,1.669-4.874,5.658-2.57,8.303c1.237,1.42,2.953,2.375,4.891,3.044c3.83,1.32,7.333,3.074,10.168,5.677
			c1.657,1.52,2.916,3.24,3.383,5.303c0.16,0.707,0.168,1.439,0.246,2.16c-1.885-1.316-3.782-2.393-6.047-3.035
			c0.257,0.643,0.528,1.195,0.696,1.768c0.169,0.576,0.311,1.172,0.333,1.76c0.1,2.691-1.295,4.777-3.817,6.309
			c-3.52,2.137-7.506,2.625-11.712,2.189c-0.343-0.035-0.682-0.098-0.872-0.125c1.289-0.17,2.699-0.324,4.095-0.549
			c1.6-0.258,2.927-0.92,3.788-2.129c0.245-0.344,0.467-0.738,0.528-1.127c0.177-1.131-0.234-2.168-0.863-3.156
			c-1.074-1.691-2.77-2.848-4.607-3.881c-2.146-1.207-4.34-2.354-6.45-3.604c-2.772-1.641-4.993-3.684-6.209-6.432
			c-0.267-0.604-0.72-1.186-1.231-1.668c-1.093-1.03-2.495-0.841-3.218,0.398c-0.246,0.421-0.365,0.896-0.537,1.334
			c-1.465-2.687-0.982-5.984,2.176-7.875c0.518-0.311,0.964-0.788,1.255-1.271c0.504-0.836-0.087-1.634-1.196-1.682
			c-0.495-0.021-1.021,0.038-1.493,0.168c-0.656,0.179-1.273,0.458-1.93,0.702c0.026-0.856,0.318-1.625,0.859-2.338
			c1.045-1.376,2.655-2.111,4.348-2.727c0.836-0.304,1.737-0.481,2.613-0.704c0.927-0.236,1.81-0.539,2.453-1.188
			c0.916-0.922,0.649-2.069-0.612-2.619c-0.29-0.126-0.617-0.241-0.935-0.26c-0.683-0.039-1.372-0.012-2.168-0.012
			c1.602-1.177,3.396-1.689,5.367-1.784c3.362-0.161,6.382,0.731,9.193,2.222c0.278,0.147,0.532,0.329,0.796,0.494
			c-2.035-3.555-4.912-6.578-7.868-9.563c3.514,1.528,6.636,3.534,9.675,5.644c0.067-0.025,0.134-0.051,0.2-0.076
			c-0.583-1.82-1.165-3.641-1.788-5.586c0.518,0.511,1.01,0.912,1.384,1.381c1.78,2.233,3.565,4.464,5.274,6.737
			c1.229,1.635,2.357,3.316,4.321,4.435c0.582,0.331,1.124,0.721,1.639,1.124c0.197,0.155,0.359,0.42,0.382,0.646
			c0.124,1.229,0.339,2.434,1.043,3.538c0.396,0.623,0.887,1.184,1.643,1.512c1.187,0.517,1.985,0.146,2.342-0.895
			c0.112-0.327,0.106-0.685,0.168-1.139c0.669,1.023,1.323,1.944,1.882,2.905c0.388,0.667,0.729,1.369,0.946,2.088
			C53.731,30.869,53.087,32.08,50.856,32.595z"/>
	</g>
</g>
<g id="Layer_11_copy">
	<path fill="none" d="M26.546,54.051c2.861-0.871,3.824-2.904,2.432-5.201c-1.134-1.871-3.008-3.096-5.118-4.098
		c-0.249-0.119-0.506-0.223-0.749-0.328c0.189,0.535,0.427,1.037,0.538,1.561c0.177,0.834-0.548,1.803-1.537,2.033
		c-3.939,0.918-7.302-0.193-10.426-2.113c-0.669-0.41-1.234-0.945-1.941-1.496c0.022,0.227,0.01,0.363,0.051,0.486
		c1.225,3.725,3.638,6.693,7.778,8.467c2.657,1.139,5.484,1.465,8.415,0.836C26.176,54.156,26.363,54.107,26.546,54.051z"/>
	<path fill="none" d="M52.151,26.693c-0.559-0.961-1.213-1.882-1.882-2.905c-0.063,0.454-0.056,0.812-0.168,1.139
		c-0.357,1.04-1.155,1.411-2.342,0.895c-0.755-0.328-1.246-0.889-1.643-1.512c-0.704-1.104-0.919-2.309-1.043-3.538
		c-0.023-0.226-0.185-0.49-0.382-0.646c-0.515-0.403-1.057-0.793-1.639-1.124c-1.964-1.118-3.092-2.8-4.321-4.435
		c-1.708-2.272-3.494-4.504-5.274-6.737c-0.374-0.469-0.866-0.87-1.384-1.381c0.623,1.946,1.206,3.766,1.788,5.586
		c-0.066,0.025-0.133,0.051-0.2,0.076c-3.039-2.109-6.161-4.115-9.675-5.644c2.956,2.986,5.833,6.009,7.868,9.563
		c-0.265-0.165-0.518-0.347-0.796-0.494c-2.812-1.49-5.831-2.383-9.193-2.222c-1.971,0.095-3.765,0.607-5.367,1.784
		c0.796,0,1.485-0.027,2.168,0.012c0.318,0.019,0.646,0.134,0.935,0.26c1.262,0.55,1.528,1.697,0.612,2.619
		c-0.643,0.648-1.526,0.951-2.453,1.188c-0.876,0.223-1.777,0.4-2.613,0.704c-1.693,0.615-3.303,1.351-4.348,2.727
		c-0.542,0.713-0.833,1.481-0.859,2.338c0.656-0.244,1.274-0.523,1.93-0.702c0.472-0.13,0.998-0.188,1.493-0.168
		c1.108,0.048,1.7,0.846,1.196,1.682c-0.291,0.482-0.737,0.96-1.255,1.271c-3.158,1.891-3.641,5.188-2.176,7.875
		c0.172-0.438,0.291-0.913,0.537-1.334c0.723-1.239,2.125-1.429,3.218-0.398c0.511,0.482,0.964,1.063,1.231,1.668
		c1.217,2.749,3.438,4.792,6.209,6.432c2.11,1.25,4.304,2.396,6.45,3.604c1.837,1.033,3.533,2.189,4.607,3.881
		c0.629,0.988,1.04,2.025,0.863,3.156c-0.061,0.389-0.283,0.783-0.528,1.127c-0.861,1.209-2.188,1.871-3.788,2.129
		c-1.396,0.225-2.806,0.379-4.095,0.549c0.189,0.027,0.528,0.09,0.872,0.125c4.206,0.436,8.192-0.053,11.712-2.189
		c2.522-1.531,3.917-3.617,3.817-6.309c-0.022-0.588-0.164-1.184-0.333-1.76c-0.168-0.572-0.439-1.125-0.696-1.768
		c2.265,0.643,4.163,1.719,6.047,3.035c-0.078-0.721-0.086-1.453-0.246-2.16c-0.467-2.063-1.726-3.783-3.383-5.303
		c-2.834-2.604-6.338-4.357-10.168-5.677c-1.938-0.669-3.654-1.624-4.891-3.044c-2.304-2.645-1.543-6.634,2.57-8.303
		c0.049,0.518,0.06,1.025,0.151,1.521c0.356,1.916,1.66,3.203,3.737,3.953c1.383,0.499,2.845,0.688,4.33,0.788
		c1.521,0.103,3.014,0.327,4.387,0.918c0.497,0.213,0.982,0.488,1.377,0.817c0.502,0.417,0.431,0.897-0.09,1.303
		c-0.157,0.121-0.34,0.222-0.522,0.317c-0.18,0.095-0.372,0.172-0.571,0.262c1.601,0.486,5.366,0.71,6.922,0.351
		c2.23-0.516,2.875-1.727,2.241-3.814C52.88,28.062,52.54,27.36,52.151,26.693z M41.125,22.596
		c-0.126,0.012-0.312-0.134-0.406-0.245c-0.553-0.658-1.077-1.332-1.629-1.989c-0.213-0.254-0.474-0.479-0.712-0.717
		c0.029-0.024,0.058-0.048,0.088-0.072c1.712,0.87,3.423,1.74,5.135,2.61c0.003,0.045,0.007,0.09,0.012,0.135
		C42.784,22.415,41.957,22.525,41.125,22.596z M49.404,28.744c-0.002-0.009-0.007-0.016-0.01-0.024
		c-0.208-0.155-0.409-0.317-0.627-0.462c-0.767-0.509-1.568-0.867-2.538-0.335c0.003-0.916,0.707-1.354,1.574-0.954
		c0.817,0.375,1.362,0.971,1.591,1.751c0.006,0.005,0.013,0.01,0.02,0.015L49.404,28.744z"/>
	<path fill="#EF4136" d="M49.404,28.744l0.01-0.01c-0.006-0.005-0.013-0.01-0.02-0.015C49.396,28.728,49.401,28.735,49.404,28.744z"
		/>
	<g>
		<linearGradient id="SVGID_1_" gradientUnits="userSpaceOnUse" x1="40.3086" y1="22.1738" x2="41.1279" y2="20.7547">
			<stop  offset="0" style="stop-color:#8DC63F"/>
			<stop  offset="1" style="stop-color:#DDE23E"/>
		</linearGradient>
		<path fill="url(#SVGID_1_)" d="M38.466,19.573c-0.03,0.024-0.059,0.048-0.088,0.072c0.238,0.238,0.499,0.463,0.712,0.717
			c0.552,0.657,1.076,1.331,1.629,1.989c0.094,0.111,0.279,0.257,0.406,0.245c0.832-0.071,1.659-0.182,2.488-0.278
			c-0.004-0.045-0.008-0.09-0.012-0.135C41.89,21.313,40.178,20.443,38.466,19.573z"/>
		<linearGradient id="SVGID_2_" gradientUnits="userSpaceOnUse" x1="47.5068" y1="28.6597" x2="48.3213" y2="27.249">
			<stop  offset="0" style="stop-color:#8DC63F"/>
			<stop  offset="1" style="stop-color:#DDE23E"/>
		</linearGradient>
		<path fill="url(#SVGID_2_)" d="M47.803,26.968c-0.867-0.399-1.57,0.038-1.574,0.954c0.97-0.532,1.771-0.174,2.538,0.335
			c0.218,0.145,0.418,0.307,0.627,0.462C49.165,27.939,48.62,27.344,47.803,26.968z"/>
		<linearGradient id="SVGID_3_" gradientUnits="userSpaceOnUse" x1="14.3423" y1="61.1699" x2="48.9275" y2="1.2666">
			<stop  offset="0" style="stop-color:#8DC63F"/>
			<stop  offset="1" style="stop-color:#DDE23E"/>
		</linearGradient>
		<path fill="url(#SVGID_3_)" d="M54.406,4.968H8.864c-1.921,0-3.479,1.558-3.479,3.479v45.542c0,1.921,1.558,3.479,3.479,3.479
			h45.542c1.921,0,3.479-1.559,3.479-3.479V8.447C57.885,6.526,56.327,4.968,54.406,4.968z M17.573,53.361
			c-4.141-1.773-6.553-4.742-7.778-8.467c-0.041-0.123-0.029-0.26-0.051-0.486c0.708,0.551,1.272,1.086,1.941,1.496
			c3.124,1.92,6.487,3.031,10.426,2.113c0.989-0.23,1.714-1.199,1.537-2.033c-0.111-0.523-0.349-1.025-0.538-1.561
			c0.243,0.105,0.5,0.209,0.749,0.328c2.11,1.002,3.984,2.227,5.118,4.098c1.392,2.297,0.429,4.33-2.432,5.201
			c-0.183,0.057-0.37,0.105-0.559,0.146C23.058,54.826,20.23,54.5,17.573,53.361z M50.856,32.595
			c-1.556,0.359-5.321,0.136-6.922-0.351c0.199-0.09,0.391-0.167,0.571-0.262c0.182-0.096,0.365-0.196,0.522-0.317
			c0.521-0.405,0.592-0.886,0.09-1.303c-0.396-0.329-0.88-0.604-1.377-0.817c-1.373-0.591-2.866-0.815-4.387-0.918
			c-1.485-0.101-2.947-0.289-4.33-0.788c-2.077-0.75-3.381-2.037-3.737-3.953c-0.092-0.496-0.103-1.004-0.151-1.521
			c-4.113,1.669-4.874,5.658-2.57,8.303c1.237,1.42,2.953,2.375,4.891,3.044c3.83,1.32,7.333,3.074,10.168,5.677
			c1.657,1.52,2.916,3.24,3.383,5.303c0.16,0.707,0.168,1.439,0.246,2.16c-1.885-1.316-3.782-2.393-6.047-3.035
			c0.257,0.643,0.528,1.195,0.696,1.768c0.169,0.576,0.311,1.172,0.333,1.76c0.1,2.691-1.295,4.777-3.817,6.309
			c-3.52,2.137-7.506,2.625-11.712,2.189c-0.343-0.035-0.682-0.098-0.872-0.125c1.289-0.17,2.699-0.324,4.095-0.549
			c1.6-0.258,2.927-0.92,3.788-2.129c0.245-0.344,0.467-0.738,0.528-1.127c0.177-1.131-0.234-2.168-0.863-3.156
			c-1.074-1.691-2.77-2.848-4.607-3.881c-2.146-1.207-4.34-2.354-6.45-3.604c-2.772-1.641-4.993-3.684-6.209-6.432
			c-0.267-0.604-0.72-1.186-1.231-1.668c-1.093-1.03-2.495-0.841-3.218,0.398c-0.246,0.421-0.365,0.896-0.537,1.334
			c-1.465-2.687-0.982-5.984,2.176-7.875c0.518-0.311,0.964-0.788,1.255-1.271c0.504-0.836-0.087-1.634-1.196-1.682
			c-0.495-0.021-1.021,0.038-1.493,0.168c-0.656,0.179-1.273,0.458-1.93,0.702c0.026-0.856,0.318-1.625,0.859-2.338
			c1.045-1.376,2.655-2.111,4.348-2.727c0.836-0.304,1.737-0.481,2.613-0.704c0.927-0.236,1.81-0.539,2.453-1.188
			c0.916-0.922,0.649-2.069-0.612-2.619c-0.29-0.126-0.617-0.241-0.935-0.26c-0.683-0.039-1.372-0.012-2.168-0.012
			c1.602-1.177,3.396-1.689,5.367-1.784c3.362-0.161,6.382,0.731,9.193,2.222c0.278,0.147,0.532,0.329,0.796,0.494
			c-2.035-3.555-4.912-6.578-7.868-9.563c3.514,1.528,6.636,3.534,9.675,5.644c0.067-0.025,0.134-0.051,0.2-0.076
			c-0.583-1.82-1.165-3.641-1.788-5.586c0.518,0.511,1.01,0.912,1.384,1.381c1.78,2.233,3.565,4.464,5.274,6.737
			c1.229,1.635,2.357,3.316,4.321,4.435c0.582,0.331,1.124,0.721,1.639,1.124c0.197,0.155,0.359,0.42,0.382,0.646
			c0.124,1.229,0.339,2.434,1.043,3.538c0.396,0.623,0.887,1.184,1.643,1.512c1.187,0.517,1.985,0.146,2.342-0.895
			c0.112-0.327,0.106-0.685,0.168-1.139c0.669,1.023,1.323,1.944,1.882,2.905c0.388,0.667,0.729,1.369,0.946,2.088
			C53.731,30.869,53.087,32.08,50.856,32.595z"/>
	</g>
</g>
<g id="_x31_" display="none">
	<g display="inline">
		<path fill-rule="evenodd" clip-rule="evenodd" fill="#00AEEF" d="M16.922,23.321c-1.202,4.019-1.199,7.979,0.475,11.927
			c0.028-0.126,0.087-0.254,0.08-0.379c-0.215-3.436,1.133-6.404,3.736-9.061c1.321-1.348,2.662-2.747,3.573-4.293
			c1.818-3.083,1.38-6.323,0.317-9.526c-0.207-0.622-0.45-1.235-0.596-1.909c4.619,2.259,8.683,5.038,11.738,8.722
			c3.079,3.712,4.772,7.805,4.496,12.405c2.187-1.669,2.826-3.823,3.138-6.207c0.501,0.482,1.054,0.934,1.497,1.45
			c3.294,3.837,5.575,8.059,6.413,12.723c1.078,5.996-1.379,11.04-6.607,15.165c-1.439,1.136-3.13,2.052-4.713,3.062
			c-0.205,0.13-0.451,0.217-0.883,0.419c0.354-1.022,0.664-1.863,0.934-2.712c1.159-3.646,1.346-7.275-0.59-10.788
			c-0.577-1.045-1.473-1.97-2.241-2.94c-0.135-0.17-0.363-0.29-0.727-0.571c-0.118,1.93-0.863,3.423-2.731,4.488
			c0.043-2.492-0.484-4.855-1.924-7.029c-1.444-2.184-3.413-3.941-6.26-5.222c0.084,0.479,0.134,0.798,0.196,1.113
			c0.529,2.646-0.092,5.081-1.971,7.275c-0.625,0.73-1.243,1.47-1.934,2.158c-3.111,3.1-3.664,6.6-2.321,10.364
			c0.455,1.276,1.144,2.495,1.795,3.886c-0.988-0.488-1.898-0.9-2.764-1.37c-3.42-1.854-6.295-4.163-8.358-7.109
			c-2.8-3.996-3.338-8.256-2.088-12.724c1.107-3.957,3.392-7.442,6.119-10.758C15.431,25.013,16.187,24.172,16.922,23.321z"/>
	</g>
</g>
</svg>
