<?xml version="1.0" encoding="UTF-8" standalone="no"?>
<!-- Generator: Adobe Illustrator 16.0.0, SVG Export Plug-In . SVG Version: 6.00 Build 0)  -->

<svg
   version="1.1"
   x="0px"
   y="0px"
   width="190.629"
   height="39.144001"
   viewBox="0 0 190.629 39.144001"
   enable-background="new 0 0 312.5 63"
   xml:space="preserve"
   id="svg218"
   sodipodi:docname="FF_Text.svg"
   inkscape:version="1.2.2 (b0a8486541, 2022-12-01)"
   xmlns:inkscape="http://www.inkscape.org/namespaces/inkscape"
   xmlns:sodipodi="http://sodipodi.sourceforge.net/DTD/sodipodi-0.dtd"
   xmlns="http://www.w3.org/2000/svg"
   xmlns:svg="http://www.w3.org/2000/svg"><defs
   id="defs222" /><sodipodi:namedview
   id="namedview220"
   pagecolor="#ffffff"
   bordercolor="#000000"
   borderopacity="0.25"
   inkscape:showpageshadow="2"
   inkscape:pageopacity="0.0"
   inkscape:pagecheckerboard="true"
   inkscape:deskcolor="#d1d1d1"
   showgrid="false"
   inkscape:zoom="4.1728"
   inkscape:cx="86.512653"
   inkscape:cy="14.139187"
   inkscape:window-width="1920"
   inkscape:window-height="1007"
   inkscape:window-x="0"
   inkscape:window-y="0"
   inkscape:window-maximized="1"
   inkscape:current-layer="Layer_1_white_copy_2" />
<g
   id="Layer_6"
   display="none"
   transform="translate(-69.827,-17.606)">
	<rect
   x="-4"
   display="inline"
   fill-rule="evenodd"
   clip-rule="evenodd"
   fill="#1e1e1e"
   width="316.5"
   height="63"
   id="rect2"
   y="0" />
</g>
<g
   id="Layer_1_white"
   display="none"
   transform="translate(-69.827,-17.606)">
	<rect
   x="60.384998"
   y="22.927999"
   display="inline"
   fill="none"
   width="211.36501"
   height="69.821999"
   id="rect5" />
	<text
   transform="translate(60.3848,56.8164)"
   display="inline"
   id="text11"><tspan
     x="0"
     y="0"
     fill="#ffffff"
     font-family="Catamaran-Thin"
     font-size="48px"
     id="tspan7">Flash</tspan><tspan
     x="99.022003"
     y="0"
     fill="#ffffff"
     font-family="Catamaran-Black"
     font-size="48px"
     id="tspan9">Fire</tspan></text>
</g>
<g
   id="Layer_1_white_copy"
   display="none"
   transform="translate(-69.827,-17.606)">
	<path
   display="inline"
   fill="#ffffff"
   d="m 78.817,41.217 h -11.28 v 15.6 h -2.352 v -32.64 h 16.128 l 0.336,1.872 H 67.537 v 13.295 h 10.992 z"
   id="path14" />
	<path
   display="inline"
   fill="#ffffff"
   d="M 86.448,56.816 V 23.408 l 2.352,-0.48 v 33.888 z"
   id="path16" />
	<path
   display="inline"
   fill="#ffffff"
   d="m 96.769,34.928 c 0.607,-0.416 1.368,-0.768 2.28,-1.056 0.912,-0.288 1.839,-0.52 2.784,-0.696 0.944,-0.175 1.736,-0.264 2.376,-0.264 1.792,0 3.28,0.312 4.464,0.936 1.183,0.624 2.079,1.504 2.688,2.64 0.607,1.137 0.911,2.473 0.911,4.008 v 16.32 h -1.823 l -0.385,-2.496 c -0.8,0.896 -1.816,1.641 -3.048,2.232 -1.232,0.592 -2.584,0.888 -4.056,0.888 -2.624,0 -4.584,-0.688 -5.88,-2.064 -1.296,-1.375 -1.944,-3.071 -1.944,-5.088 0,-2.208 0.775,-3.919 2.328,-5.136 1.552,-1.216 3.543,-1.824 5.976,-1.824 h 6.48 v -2.88 c 0,-1.6 -0.456,-2.928 -1.368,-3.984 -0.912,-1.056 -2.313,-1.584 -4.2,-1.584 -1.568,0 -2.832,0.161 -3.792,0.48 -0.96,0.32 -1.92,0.704 -2.88,1.152 z m 1.488,17.976 c 0.448,0.784 1.087,1.408 1.92,1.872 0.832,0.464 1.824,0.696 2.976,0.696 1.503,0 2.824,-0.376 3.96,-1.128 1.135,-0.752 2.071,-1.672 2.808,-2.761 v -6.479 h -6.288 c -2.112,0 -3.648,0.504 -4.608,1.512 -0.96,1.008 -1.44,2.232 -1.44,3.672 -10e-4,0.96 0.223,1.833 0.672,2.616 z"
   id="path18" />
	<path
   display="inline"
   fill="#ffffff"
   d="m 118.32,53.648 c 0.576,0.257 1.191,0.528 1.848,0.816 0.656,0.287 1.36,0.527 2.112,0.72 0.752,0.191 1.528,0.288 2.328,0.288 1.279,0 2.376,-0.184 3.288,-0.553 0.912,-0.367 1.615,-0.879 2.112,-1.535 0.495,-0.656 0.743,-1.416 0.743,-2.28 0,-0.769 -0.271,-1.464 -0.815,-2.088 -0.545,-0.624 -1.28,-1.2 -2.208,-1.729 -0.929,-0.527 -1.968,-1.016 -3.12,-1.464 -1.185,-0.479 -2.297,-1.023 -3.336,-1.632 -1.04,-0.607 -1.872,-1.319 -2.496,-2.136 -0.624,-0.817 -0.936,-1.721 -0.936,-2.713 0,-1.823 0.679,-3.351 2.04,-4.583 1.359,-1.231 3.352,-1.848 5.976,-1.848 0.672,0 1.416,0.08 2.232,0.24 0.815,0.161 1.615,0.384 2.399,0.672 0.784,0.288 1.432,0.624 1.944,1.008 l -0.96,1.68 c -0.641,-0.319 -1.433,-0.672 -2.376,-1.056 -0.944,-0.384 -2.137,-0.576 -3.576,-0.576 -1.632,0 -2.944,0.432 -3.937,1.296 -0.992,0.864 -1.487,1.857 -1.487,2.976 0,1.088 0.576,2.016 1.728,2.784 1.152,0.769 2.527,1.472 4.128,2.112 1.279,0.512 2.448,1.088 3.504,1.728 1.057,0.641 1.912,1.385 2.568,2.232 0.655,0.848 0.984,1.816 0.984,2.903 0,2.049 -0.672,3.648 -2.017,4.801 -1.344,1.151 -3.504,1.728 -6.479,1.728 -0.641,0 -1.4,-0.072 -2.28,-0.216 -0.881,-0.145 -1.744,-0.353 -2.592,-0.624 -0.849,-0.271 -1.577,-0.601 -2.185,-0.984 z"
   id="path20" />
	<path
   display="inline"
   fill="#ffffff"
   d="M 138.768,56.816 V 23.408 l 2.353,-0.48 v 33.888 z m 2.303,-19.631 c 0.673,-0.768 1.465,-1.472 2.376,-2.112 0.912,-0.64 1.88,-1.159 2.904,-1.56 1.023,-0.399 2.017,-0.6 2.977,-0.6 1.663,0 3,0.336 4.008,1.008 1.008,0.672 1.743,1.584 2.208,2.736 0.463,1.152 0.695,2.48 0.695,3.984 v 16.176 h -2.352 V 40.641 c 0,-1.6 -0.288,-2.96 -0.864,-4.08 -0.576,-1.12 -1.744,-1.68 -3.504,-1.68 -0.929,0 -1.864,0.2 -2.808,0.6 -0.944,0.4 -1.889,0.953 -2.832,1.656 -0.944,0.705 -1.864,1.52 -2.76,2.448 z"
   id="path22" />
	<path
   display="inline"
   fill="#ffffff"
   d="m 182.831,44.48 h -10.848 v 12.336 h -8.736 V 24.225 h 21.168 l 0.816,6.864 h -13.248 v 6.528 h 10.032 z"
   id="path24" />
	<path
   display="inline"
   fill="#ffffff"
   d="m 189.6,28.977 c -0.929,-0.928 -1.393,-2.032 -1.393,-3.312 0,-1.312 0.464,-2.44 1.393,-3.384 0.928,-0.943 2.031,-1.416 3.312,-1.416 1.313,0 2.44,0.473 3.384,1.416 0.944,0.944 1.416,2.072 1.416,3.384 0,1.28 -0.472,2.384 -1.416,3.312 -0.943,0.928 -2.071,1.392 -3.384,1.392 -1.281,-0.001 -2.385,-0.464 -3.312,-1.392 z m -1.008,27.839 v -23.28 h 8.735 v 23.28 z"
   id="path26" />
	<path
   display="inline"
   fill="#ffffff"
   d="M 202.128,56.816 V 33.584 h 4.367 l 2.112,2.832 c 0.64,-0.448 1.399,-0.888 2.28,-1.32 0.88,-0.432 1.808,-0.799 2.784,-1.104 0.976,-0.304 1.896,-0.456 2.76,-0.456 l 1.776,7.008 c -0.769,0 -1.593,0.111 -2.473,0.336 -0.88,0.224 -1.744,0.527 -2.592,0.912 -0.849,0.383 -1.608,0.832 -2.28,1.344 v 13.68 z"
   id="path28" />
	<path
   display="inline"
   fill="#ffffff"
   d="m 229.151,47.36 c 0.224,0.641 0.56,1.2 1.008,1.68 0.448,0.48 1.024,0.849 1.729,1.104 0.703,0.257 1.552,0.384 2.544,0.384 1.407,0 2.647,-0.176 3.72,-0.528 1.072,-0.352 1.96,-0.703 2.664,-1.056 l 2.448,5.904 c -0.608,0.448 -1.425,0.864 -2.448,1.248 -1.024,0.384 -2.16,0.688 -3.408,0.912 -1.248,0.223 -2.528,0.336 -3.84,0.336 -2.656,0 -5.04,-0.465 -7.152,-1.393 -2.111,-0.928 -3.768,-2.296 -4.968,-4.104 -1.2,-1.808 -1.8,-4.024 -1.8,-6.648 0,-2.623 0.552,-4.864 1.656,-6.72 1.104,-1.855 2.607,-3.28 4.512,-4.272 1.903,-0.992 4.023,-1.488 6.36,-1.488 2.496,0 4.567,0.552 6.216,1.656 1.647,1.104 2.88,2.576 3.696,4.417 0.815,1.84 1.224,3.848 1.224,6.023 v 2.544 h -14.161 z m 5.809,-4.319 c 0,-0.448 -0.104,-0.928 -0.313,-1.44 -0.208,-0.512 -0.528,-0.952 -0.96,-1.32 -0.432,-0.367 -1.017,-0.552 -1.752,-0.552 -0.513,0 -1.008,0.152 -1.488,0.456 -0.479,0.304 -0.856,0.704 -1.128,1.2 -0.272,0.496 -0.408,1.049 -0.408,1.656 z"
   id="path30" />
</g>
<g
   id="Layer_1_white_copy_2"
   transform="translate(-69.827,-17.606)">
	<path
   fill="#ffffff"
   d="M 84.416,39.387 H 72.344 V 56.082 H 69.827 V 21.151 h 17.26 l 0.359,2.003 H 72.344 v 14.229 h 11.764 z"
   id="path33"
   style="fill:#4d4d4d" />
	<path
   fill="#ffffff"
   d="M 92.583,56.082 V 20.329 L 95.1,19.815 v 36.267 z"
   id="path35"
   style="fill:#4d4d4d" />
	<path
   fill="#ffffff"
   d="m 103.627,32.658 c 0.65,-0.445 1.465,-0.822 2.441,-1.13 0.975,-0.309 1.968,-0.557 2.979,-0.745 1.01,-0.188 1.857,-0.282 2.543,-0.282 1.917,0 3.51,0.334 4.777,1.001 1.266,0.667 2.225,1.61 2.877,2.825 0.65,1.216 0.976,2.646 0.976,4.288 v 17.467 h -1.951 l -0.412,-2.672 c -0.857,0.959 -1.944,1.756 -3.262,2.389 -1.319,0.635 -2.767,0.949 -4.34,0.949 -2.81,0 -4.907,-0.734 -6.294,-2.209 -1.386,-1.471 -2.08,-3.285 -2.08,-5.445 0,-2.361 0.83,-4.193 2.492,-5.494 1.66,-1.302 3.792,-1.952 6.395,-1.952 h 6.935 v -3.083 c 0,-1.711 -0.487,-3.133 -1.464,-4.263 -0.976,-1.13 -2.475,-1.695 -4.494,-1.695 -1.679,0 -3.031,0.172 -4.059,0.514 -1.027,0.343 -2.055,0.753 -3.082,1.232 z m 1.594,19.237 c 0.479,0.838 1.163,1.508 2.055,2.002 0.89,0.498 1.951,0.748 3.184,0.748 1.609,0 3.022,-0.404 4.239,-1.209 1.214,-0.805 2.216,-1.789 3.004,-2.953 v -6.936 h -6.729 c -2.261,0 -3.904,0.539 -4.933,1.617 -1.027,1.08 -1.541,2.391 -1.541,3.93 0,1.029 0.24,1.963 0.721,2.801 z"
   id="path37"
   style="fill:#4d4d4d" />
	<path
   fill="#ffffff"
   d="m 126.691,52.691 c 0.617,0.273 1.275,0.564 1.978,0.873 0.703,0.309 1.456,0.564 2.261,0.77 0.805,0.206 1.636,0.311 2.491,0.311 1.369,0 2.543,-0.197 3.519,-0.592 0.977,-0.395 1.729,-0.941 2.261,-1.643 0.53,-0.703 0.796,-1.516 0.796,-2.441 0,-0.822 -0.291,-1.566 -0.873,-2.234 -0.583,-0.668 -1.37,-1.285 -2.363,-1.852 -0.993,-0.564 -2.105,-1.086 -3.339,-1.564 -1.268,-0.514 -2.458,-1.096 -3.57,-1.747 -1.112,-0.65 -2.003,-1.412 -2.671,-2.285 -0.668,-0.874 -1.001,-1.841 -1.001,-2.903 0,-1.951 0.727,-3.586 2.183,-4.905 1.455,-1.318 3.587,-1.977 6.396,-1.977 0.719,0 1.516,0.085 2.389,0.256 0.873,0.172 1.729,0.412 2.568,0.719 0.839,0.308 1.532,0.668 2.08,1.079 l -1.027,1.797 c -0.686,-0.342 -1.533,-0.719 -2.542,-1.129 -1.011,-0.412 -2.287,-0.617 -3.827,-0.617 -1.747,0 -3.151,0.462 -4.213,1.387 -1.062,0.925 -1.592,1.987 -1.592,3.185 0,1.164 0.616,2.156 1.849,2.979 1.233,0.822 2.705,1.576 4.418,2.262 1.369,0.547 2.62,1.163 3.749,1.847 1.131,0.686 2.047,1.482 2.749,2.389 0.701,0.908 1.054,1.945 1.054,3.109 0,2.191 -0.72,3.904 -2.158,5.137 -1.438,1.233 -3.75,1.848 -6.935,1.848 -0.686,0 -1.498,-0.076 -2.44,-0.23 -0.942,-0.154 -1.866,-0.377 -2.773,-0.668 -0.908,-0.291 -1.688,-0.643 -2.338,-1.053 z"
   id="path39"
   style="fill:#4d4d4d" />
	<path
   fill="#ffffff"
   d="M 148.574,56.082 V 20.329 l 2.518,-0.514 v 36.267 z m 2.465,-21.01 c 0.72,-0.822 1.567,-1.575 2.543,-2.261 0.976,-0.685 2.012,-1.24 3.108,-1.669 1.095,-0.427 2.157,-0.642 3.185,-0.642 1.78,0 3.211,0.359 4.289,1.079 1.079,0.719 1.866,1.695 2.363,2.928 0.495,1.233 0.744,2.654 0.744,4.265 v 17.311 h -2.517 V 38.771 c 0,-1.712 -0.309,-3.168 -0.925,-4.367 -0.616,-1.199 -1.866,-1.798 -3.75,-1.798 -0.994,0 -1.995,0.214 -3.005,0.642 -1.01,0.429 -2.021,1.02 -3.03,1.772 -1.011,0.754 -1.995,1.626 -2.953,2.62 z"
   id="path41"
   style="fill:#4d4d4d" />
	<path
   fill="#ffffff"
   d="M 195.729,42.882 H 184.12 v 13.2 h -9.349 V 21.203 h 22.653 l 0.873,7.346 H 184.12 v 6.986 h 10.736 z"
   id="path43"
   style="fill:#4d4d4d" />
	<path
   fill="#ffffff"
   d="m 202.973,26.288 c -0.993,-0.993 -1.49,-2.174 -1.49,-3.544 0,-1.404 0.497,-2.611 1.49,-3.622 0.993,-1.01 2.174,-1.516 3.544,-1.516 1.405,0 2.612,0.506 3.621,1.516 1.011,1.011 1.516,2.218 1.516,3.622 0,1.37 -0.505,2.552 -1.516,3.544 -1.009,0.994 -2.216,1.489 -3.621,1.489 -1.371,0 -2.551,-0.495 -3.544,-1.489 z m -1.078,29.794 V 31.168 h 9.349 v 24.914 z"
   id="path45"
   style="fill:#4d4d4d" />
	<path
   fill="#ffffff"
   d="M 216.381,56.082 V 31.219 h 4.673 l 2.261,3.031 c 0.685,-0.479 1.498,-0.95 2.44,-1.413 0.941,-0.462 1.935,-0.855 2.979,-1.182 1.044,-0.325 2.028,-0.487 2.953,-0.487 l 1.901,7.5 c -0.822,0 -1.704,0.119 -2.646,0.359 -0.941,0.24 -1.866,0.565 -2.773,0.978 -0.908,0.408 -1.721,0.889 -2.44,1.438 v 14.64 h -9.348 z"
   id="path47"
   style="fill:#4d4d4d" />
	<path
   fill="#ffffff"
   d="m 245.301,45.961 c 0.239,0.686 0.599,1.285 1.078,1.797 0.479,0.516 1.096,0.91 1.85,1.184 0.753,0.273 1.661,0.41 2.723,0.41 1.506,0 2.833,-0.188 3.98,-0.564 1.147,-0.376 2.098,-0.752 2.852,-1.131 l 2.62,6.318 c -0.651,0.48 -1.525,0.926 -2.62,1.336 -1.097,0.412 -2.313,0.738 -3.647,0.977 -1.336,0.238 -2.706,0.359 -4.109,0.359 -2.843,0 -5.394,-0.498 -7.654,-1.49 -2.26,-0.994 -4.032,-2.457 -5.316,-4.393 -1.284,-1.934 -1.927,-4.305 -1.927,-7.115 0,-2.806 0.591,-5.203 1.773,-7.189 1.181,-1.986 2.79,-3.51 4.828,-4.572 2.037,-1.061 4.306,-1.593 6.807,-1.593 2.671,0 4.888,0.591 6.651,1.772 1.764,1.182 3.082,2.757 3.956,4.727 0.873,1.968 1.31,4.118 1.31,6.447 v 2.721 h -15.155 z m 6.216,-4.62 c 0,-0.48 -0.112,-0.994 -0.335,-1.543 -0.223,-0.548 -0.565,-1.019 -1.027,-1.413 -0.462,-0.393 -1.088,-0.59 -1.874,-0.59 -0.549,0 -1.079,0.162 -1.593,0.488 -0.514,0.324 -0.917,0.752 -1.207,1.284 -0.292,0.531 -0.438,1.123 -0.438,1.773 h 6.474 z"
   id="path49"
   style="fill:#4d4d4d" />
</g>
<g
   id="Layer_1_blue"
   display="none"
   transform="translate(-69.827,-17.606)">
	<path
   display="inline"
   fill="#ffffff"
   d="m 76.317,41.217 h -11.28 v 15.6 h -2.352 v -32.64 h 16.128 l 0.336,1.872 H 65.037 v 13.295 h 10.992 z"
   id="path52" />
	<path
   display="inline"
   fill="#ffffff"
   d="M 83.948,56.816 V 23.408 l 2.352,-0.48 v 33.888 z"
   id="path54" />
	<path
   display="inline"
   fill="#ffffff"
   d="m 94.269,34.928 c 0.607,-0.416 1.368,-0.768 2.28,-1.056 0.912,-0.288 1.839,-0.52 2.784,-0.696 0.944,-0.175 1.736,-0.264 2.376,-0.264 1.792,0 3.28,0.312 4.464,0.936 1.183,0.624 2.08,1.504 2.688,2.64 0.607,1.137 0.912,2.473 0.912,4.008 v 16.32 h -1.824 l -0.384,-2.496 c -0.8,0.896 -1.816,1.641 -3.048,2.232 -1.232,0.592 -2.584,0.888 -4.056,0.888 -2.624,0 -4.584,-0.688 -5.88,-2.064 -1.296,-1.375 -1.944,-3.071 -1.944,-5.088 0,-2.208 0.775,-3.919 2.328,-5.136 1.552,-1.216 3.543,-1.824 5.976,-1.824 h 6.48 v -2.88 c 0,-1.6 -0.456,-2.928 -1.368,-3.984 -0.912,-1.056 -2.313,-1.584 -4.2,-1.584 -1.568,0 -2.832,0.161 -3.792,0.48 -0.96,0.32 -1.92,0.704 -2.88,1.152 z m 1.488,17.976 c 0.448,0.784 1.087,1.408 1.92,1.872 0.832,0.464 1.824,0.696 2.976,0.696 1.503,0 2.824,-0.376 3.96,-1.128 1.135,-0.752 2.071,-1.672 2.808,-2.761 v -6.479 h -6.288 c -2.112,0 -3.648,0.504 -4.608,1.512 -0.96,1.008 -1.44,2.232 -1.44,3.672 -10e-4,0.96 0.223,1.833 0.672,2.616 z"
   id="path56" />
	<path
   display="inline"
   fill="#ffffff"
   d="m 115.82,53.648 c 0.576,0.257 1.191,0.528 1.848,0.816 0.656,0.287 1.36,0.527 2.112,0.72 0.752,0.191 1.528,0.288 2.328,0.288 1.279,0 2.376,-0.184 3.288,-0.553 0.912,-0.367 1.615,-0.879 2.112,-1.535 0.495,-0.656 0.743,-1.416 0.743,-2.28 0,-0.769 -0.271,-1.464 -0.815,-2.088 -0.545,-0.624 -1.28,-1.2 -2.208,-1.729 -0.929,-0.527 -1.968,-1.016 -3.12,-1.464 -1.185,-0.479 -2.297,-1.023 -3.336,-1.632 -1.04,-0.607 -1.872,-1.319 -2.496,-2.136 -0.624,-0.817 -0.936,-1.721 -0.936,-2.713 0,-1.823 0.679,-3.351 2.04,-4.583 1.359,-1.231 3.352,-1.848 5.976,-1.848 0.672,0 1.416,0.08 2.232,0.24 0.815,0.161 1.615,0.384 2.399,0.672 0.784,0.288 1.432,0.624 1.944,1.008 l -0.96,1.68 c -0.641,-0.319 -1.433,-0.672 -2.376,-1.056 -0.944,-0.384 -2.137,-0.576 -3.576,-0.576 -1.632,0 -2.944,0.432 -3.937,1.296 -0.992,0.864 -1.487,1.857 -1.487,2.976 0,1.088 0.576,2.016 1.728,2.784 1.152,0.769 2.527,1.472 4.128,2.112 1.279,0.512 2.448,1.088 3.504,1.728 1.057,0.641 1.912,1.385 2.568,2.232 0.655,0.848 0.984,1.816 0.984,2.903 0,2.049 -0.672,3.648 -2.017,4.801 -1.344,1.151 -3.504,1.728 -6.479,1.728 -0.641,0 -1.4,-0.072 -2.28,-0.216 -0.881,-0.145 -1.744,-0.353 -2.592,-0.624 -0.849,-0.271 -1.577,-0.601 -2.185,-0.984 z"
   id="path58" />
	<path
   display="inline"
   fill="#ffffff"
   d="M 136.268,56.816 V 23.408 l 2.353,-0.48 v 33.888 z m 2.303,-19.631 c 0.673,-0.768 1.465,-1.472 2.376,-2.112 0.912,-0.64 1.88,-1.159 2.904,-1.56 1.023,-0.399 2.017,-0.6 2.977,-0.6 1.663,0 3,0.336 4.008,1.008 1.008,0.672 1.743,1.584 2.208,2.736 0.463,1.152 0.695,2.48 0.695,3.984 v 16.176 h -2.352 V 40.641 c 0,-1.6 -0.288,-2.96 -0.864,-4.08 -0.576,-1.12 -1.744,-1.68 -3.504,-1.68 -0.929,0 -1.864,0.2 -2.808,0.6 -0.944,0.4 -1.889,0.953 -2.832,1.656 -0.944,0.705 -1.864,1.52 -2.76,2.448 z"
   id="path60" />
	<path
   display="inline"
   fill="#ffffff"
   d="m 180.331,44.48 h -10.848 v 12.336 h -8.736 V 24.225 h 21.168 l 0.816,6.864 h -13.248 v 6.528 h 10.032 z"
   id="path62" />
	<path
   display="inline"
   fill="#ef4136"
   d="m 187.1,28.977 c -0.929,-0.928 -1.393,-2.032 -1.393,-3.312 0,-1.312 0.464,-2.44 1.393,-3.384 0.928,-0.943 2.031,-1.416 3.312,-1.416 1.313,0 2.44,0.473 3.384,1.416 0.944,0.944 1.416,2.072 1.416,3.384 0,1.28 -0.472,2.384 -1.416,3.312 -0.943,0.928 -2.071,1.392 -3.384,1.392 -1.281,-0.001 -2.385,-0.464 -3.312,-1.392 z"
   id="path64" />
	<path
   display="inline"
   fill="#ffffff"
   d="M 199.628,56.816 V 33.584 h 4.367 l 2.112,2.832 c 0.64,-0.448 1.399,-0.888 2.28,-1.32 0.88,-0.432 1.808,-0.799 2.784,-1.104 0.976,-0.304 1.896,-0.456 2.76,-0.456 l 1.776,7.008 c -0.769,0 -1.593,0.111 -2.473,0.336 -0.88,0.224 -1.744,0.527 -2.592,0.912 -0.849,0.383 -1.608,0.832 -2.28,1.344 v 13.68 z"
   id="path66" />
	<path
   display="inline"
   fill="#ffffff"
   d="m 226.651,47.36 c 0.224,0.641 0.56,1.2 1.008,1.68 0.448,0.48 1.024,0.849 1.729,1.104 0.703,0.257 1.552,0.384 2.544,0.384 1.407,0 2.647,-0.176 3.72,-0.528 1.072,-0.352 1.96,-0.703 2.664,-1.056 l 2.448,5.904 c -0.608,0.448 -1.425,0.864 -2.448,1.248 -1.024,0.384 -2.16,0.688 -3.408,0.912 -1.248,0.223 -2.528,0.336 -3.84,0.336 -2.656,0 -5.04,-0.465 -7.152,-1.393 -2.111,-0.928 -3.768,-2.296 -4.968,-4.104 -1.2,-1.808 -1.8,-4.024 -1.8,-6.648 0,-2.623 0.552,-4.864 1.656,-6.72 1.104,-1.855 2.607,-3.28 4.512,-4.272 1.903,-0.992 4.023,-1.488 6.36,-1.488 2.496,0 4.567,0.552 6.216,1.656 1.647,1.104 2.88,2.576 3.696,4.417 0.815,1.84 1.224,3.848 1.224,6.023 v 2.544 h -14.161 z m 5.809,-4.319 c 0,-0.448 -0.104,-0.928 -0.313,-1.44 -0.208,-0.512 -0.528,-0.952 -0.96,-1.32 -0.432,-0.367 -1.017,-0.552 -1.752,-0.552 -0.513,0 -1.008,0.152 -1.488,0.456 -0.479,0.304 -0.856,0.704 -1.128,1.2 -0.272,0.496 -0.408,1.049 -0.408,1.656 z"
   id="path68" />
</g>
<g
   id="_x31__copy"
   display="none"
   transform="translate(-69.827,-17.606)">
	<g
   display="inline"
   id="g73">
		<path
   fill-rule="evenodd"
   clip-rule="evenodd"
   fill="#8dc63f"
   d="m 24.116,19.693 c -1.146,4.46 -1.142,8.856 0.45,13.237 0.023,-0.14 0.081,-0.281 0.075,-0.42 -0.208,-3.813 1.074,-7.107 3.549,-10.057 1.252,-1.496 2.522,-3.048 3.392,-4.764 1.724,-3.425 1.308,-7.02 0.301,-10.574 -0.195,-0.691 -0.429,-1.372 -0.568,-2.12 4.383,2.508 8.243,5.591 11.143,9.68 2.924,4.119 4.533,8.663 4.271,13.77 2.073,-1.853 2.684,-4.245 2.981,-6.89 0.473,0.534 0.999,1.036 1.418,1.609 3.128,4.257 5.294,8.945 6.086,14.12 1.024,6.656 -1.306,12.254 -6.271,16.834 -1.368,1.258 -2.973,2.277 -4.475,3.396 -0.195,0.145 -0.428,0.242 -0.838,0.465 0.335,-1.135 0.629,-2.068 0.884,-3.006 1.101,-4.051 1.278,-8.078 -0.559,-11.979 -0.547,-1.16 -1.396,-2.184 -2.129,-3.262 -0.127,-0.189 -0.343,-0.324 -0.691,-0.635 -0.111,2.141 -0.817,3.801 -2.591,4.98 0.04,-2.768 -0.459,-5.387 -1.827,-7.802 -1.371,-2.423 -3.241,-4.375 -5.942,-5.795 0.079,0.532 0.125,0.885 0.183,1.235 0.505,2.937 -0.085,5.639 -1.868,8.075 -0.594,0.813 -1.182,1.629 -1.838,2.395 -2.95,3.441 -3.479,7.326 -2.205,11.506 0.433,1.416 1.087,2.77 1.704,4.311 -0.936,-0.541 -1.798,-0.998 -2.625,-1.521 -3.242,-2.059 -5.977,-4.621 -7.934,-7.887 -2.658,-4.438 -3.17,-9.166 -1.985,-14.125 1.055,-4.391 3.22,-8.261 5.813,-11.941 0.68,-0.957 1.399,-1.891 2.096,-2.835 z"
   id="path71" />
	</g>
</g>
<g
   id="Layer_9"
   display="none"
   transform="translate(-69.827,-17.606)">
	<g
   display="inline"
   id="g80">
		<path
   fill-rule="evenodd"
   clip-rule="evenodd"
   fill="#00aeef"
   d="m 56.183,56.485 c -17.064,0 -34.124,0 -51.178,0 0,-15.095 0,-30.186 0,-45.271 17.064,0 34.124,0 51.178,0 0,15.095 0,30.185 0,45.271 z M 22.87,49.584 c 0.122,0.134 0.18,0.216 0.255,0.278 6.176,5.052 16.285,3 19.261,-4.724 1.502,-3.899 1.278,-7.652 -1.956,-10.654 -1.459,-1.354 -3.234,-2.388 -4.938,-3.452 -1.214,-0.759 -2.559,-1.307 -3.826,-1.984 -0.978,-0.522 -1.786,-1.234 -2.186,-2.313 -0.674,-1.815 0.491,-4.05 2.289,-4.304 -0.086,0.129 -0.153,0.229 -0.219,0.329 -0.891,1.344 -0.867,2.917 0.064,4.168 0.917,1.233 2.479,1.773 3.981,1.223 0.864,-0.317 1.673,-0.817 2.456,-1.314 1.574,-0.999 3.134,-1.918 5.159,-0.561 -0.595,-1.402 -1.687,-1.873 -2.839,-2.405 2.411,-0.447 3.842,0.827 3.933,3.354 1.706,-1.409 2.052,-3.429 0.922,-5.417 -0.881,-1.55 -2.245,-2.867 -2.204,-4.957 -0.225,0.21 -0.321,0.288 -0.402,0.378 -1.243,1.382 -2.762,2.221 -4.611,2.539 -0.857,0.147 -1.674,0.526 -2.513,0.789 -0.152,0.048 -0.368,0.114 -0.475,0.046 -0.491,-0.309 -0.954,-0.662 -1.553,-1.089 1.278,0 2.413,0 3.547,0 0.011,-0.064 0.022,-0.128 0.033,-0.192 -2.134,-0.298 -3.754,-1.6 -5.513,-2.66 -1.155,-0.696 -2.408,-1.301 -3.694,-1.695 -3.286,-1.006 -6.354,-0.458 -9.104,1.674 1.939,-0.475 3.883,-0.856 5.884,-0.456 2.075,0.416 3.651,1.556 4.893,3.328 -0.15,0 -0.212,0.02 -0.239,-0.003 -1.722,-1.46 -3.729,-1.804 -5.893,-1.483 -1.792,0.266 -3.575,0.598 -5.37,0.85 -3.255,0.456 -6.185,-0.132 -8.437,-2.764 -0.05,-0.059 -0.125,-0.097 -0.309,-0.236 0.939,2.562 2.463,4.419 4.964,5.12 1.826,0.511 3.753,0.678 5.644,0.932 1.247,0.167 2.515,0.18 3.765,0.331 0.798,0.097 1.356,0.717 1.464,1.528 0.098,0.738 -0.171,1.391 -0.815,1.74 -0.391,0.212 -0.908,0.219 -1.374,0.259 -1.198,0.103 -2.407,0.11 -3.593,0.288 -0.452,0.068 -0.851,0.495 -1.274,0.758 0.038,0.061 0.076,0.121 0.113,0.182 1.234,-0.258 2.029,0.145 2.161,1.097 0.163,1.172 -0.774,2.004 -2.04,1.672 -0.972,-0.254 -1.889,-0.715 -2.789,-1.067 0.648,1.667 2.304,2.62 4.366,2.635 1.531,0.011 3.095,0.028 4.583,0.337 3.462,0.717 6.211,2.483 7.592,5.919 0.546,1.358 0.788,2.775 0.601,4.266 -0.75,-2.902 -2.266,-5.278 -4.763,-6.944 -2.524,-1.685 -5.312,-2.287 -8.299,-1.689 -3.89,0.779 -8.055,4.468 -8.095,7.05 0.843,-0.667 1.662,-1.426 2.583,-2.027 4.042,-2.638 8.939,-1.832 11.577,1.858 2.397,3.355 1.526,7.145 -2.093,9.099 -0.196,0.104 -0.394,0.212 -0.674,0.363 z"
   id="path76" />
		<path
   fill-rule="evenodd"
   clip-rule="evenodd"
   d="m 22.87,49.584 c 0.28,-0.151 0.478,-0.259 0.676,-0.365 3.619,-1.954 4.49,-5.743 2.093,-9.099 -2.638,-3.69 -7.535,-4.496 -11.577,-1.858 -0.921,0.602 -1.741,1.36 -2.583,2.027 0.04,-2.582 4.205,-6.271 8.095,-7.05 2.987,-0.598 5.774,0.005 8.299,1.689 2.497,1.666 4.013,4.042 4.763,6.944 0.188,-1.49 -0.055,-2.907 -0.601,-4.266 -1.381,-3.436 -4.13,-5.202 -7.592,-5.919 -1.488,-0.309 -3.052,-0.326 -4.583,-0.337 -2.062,-0.015 -3.718,-0.968 -4.366,-2.635 0.899,0.353 1.817,0.813 2.789,1.067 1.266,0.332 2.202,-0.5 2.04,-1.672 -0.132,-0.952 -0.927,-1.355 -2.161,-1.097 -0.038,-0.061 -0.075,-0.121 -0.113,-0.182 0.423,-0.263 0.822,-0.69 1.274,-0.758 1.186,-0.177 2.395,-0.185 3.593,-0.288 0.466,-0.04 0.983,-0.047 1.374,-0.259 0.644,-0.35 0.914,-1.002 0.815,-1.74 -0.108,-0.812 -0.666,-1.432 -1.464,-1.528 -1.25,-0.151 -2.518,-0.164 -3.765,-0.331 -1.891,-0.254 -3.818,-0.421 -5.644,-0.932 -2.501,-0.701 -4.025,-2.559 -4.964,-5.12 0.184,0.139 0.259,0.177 0.309,0.236 2.252,2.632 5.182,3.22 8.437,2.764 1.794,-0.251 3.577,-0.583 5.37,-0.85 2.164,-0.321 4.171,0.023 5.893,1.483 0.026,0.022 0.088,0.003 0.239,0.003 -1.242,-1.771 -2.818,-2.912 -4.893,-3.328 -2,-0.401 -3.945,-0.019 -5.884,0.456 2.751,-2.132 5.818,-2.68 9.104,-1.674 1.286,0.394 2.539,0.999 3.694,1.695 1.759,1.06 3.379,2.362 5.513,2.66 -0.011,0.064 -0.022,0.128 -0.033,0.192 -1.134,0 -2.269,0 -3.547,0 0.599,0.427 1.062,0.78 1.553,1.089 0.107,0.068 0.323,0.002 0.475,-0.046 0.839,-0.263 1.655,-0.642 2.513,-0.789 1.849,-0.317 3.368,-1.157 4.611,-2.539 0.081,-0.091 0.177,-0.168 0.402,-0.378 -0.041,2.09 1.323,3.407 2.204,4.957 1.13,1.987 0.783,4.008 -0.922,5.417 -0.091,-2.527 -1.522,-3.802 -3.933,-3.354 1.152,0.532 2.244,1.003 2.839,2.405 -2.025,-1.358 -3.585,-0.438 -5.159,0.561 -0.783,0.497 -1.592,0.998 -2.456,1.314 -1.502,0.55 -3.063,0.01 -3.981,-1.223 -0.931,-1.25 -0.955,-2.824 -0.064,-4.168 0.066,-0.1 0.133,-0.2 0.219,-0.329 -1.798,0.254 -2.963,2.489 -2.289,4.304 0.4,1.08 1.208,1.791 2.186,2.313 1.267,0.678 2.611,1.226 3.826,1.984 1.704,1.064 3.479,2.098 4.938,3.452 3.234,3.002 3.458,6.755 1.956,10.654 C 39.412,52.86 29.303,54.911 23.127,49.86 23.05,49.8 22.992,49.718 22.87,49.584 Z"
   id="path78" />
	</g>
</g>
<g
   id="Layer_3"
   display="none"
   transform="translate(-69.827,-17.606)">
	<g
   display="inline"
   id="g111">
		<path
   fill-rule="evenodd"
   clip-rule="evenodd"
   d="m 39.765,39.137 c 0.163,-0.475 0.284,-0.826 0.405,-1.18 -0.037,-0.02 -0.073,-0.043 -0.11,-0.066 -0.301,0.145 -0.595,0.315 -0.908,0.426 -0.295,0.104 -0.611,0.145 -0.993,0.229 0.301,-0.451 0.543,-0.809 0.775,-1.17 0.175,-0.276 0.15,-0.544 -0.015,-0.833 -0.955,-1.65 -2.345,-2.771 -4.187,-3.219 -0.989,-0.24 -2.034,-0.247 -3.056,-0.35 -0.163,-0.015 -0.332,0.022 -0.648,0.047 0.203,0.214 0.304,0.352 0.432,0.453 2.158,1.705 4.079,3.633 5.618,5.925 0.234,0.349 0.459,0.706 0.662,1.075 0.16,0.289 0.303,0.563 0.754,0.346 -0.028,0.346 -0.05,0.631 -0.079,1.006 0.282,-0.119 0.484,-0.203 0.804,-0.336 -0.102,0.564 -0.187,1.037 -0.299,1.664 0.573,-0.35 1.058,-0.646 1.618,-0.986 0.082,0.83 -0.31,1.488 -0.518,2.311 0.464,-0.086 0.819,-0.152 1.264,-0.236 0.341,1.318 0.587,2.652 0.438,4.117 -0.503,-0.203 -0.911,-0.387 -1.333,-0.531 -0.836,-0.289 -1.699,-0.422 -2.582,-0.328 -0.398,0.045 -0.469,-0.109 -0.461,-0.469 0.041,-1.928 -0.371,-3.723 -1.646,-5.238 -0.12,-0.145 -0.26,-0.27 -0.383,-0.41 -0.228,-0.256 -0.471,-0.279 -0.795,-0.154 -0.998,0.387 -2.03,0.479 -3.083,0.266 -0.128,-0.025 -0.248,-0.096 -0.39,-0.152 0.175,-0.385 0.4,-0.71 0.461,-1.063 0.063,-0.361 0.054,-0.787 -0.086,-1.115 C 31.183,38.598 30.841,38.063 30.492,37.547 30.373,37.373 30.117,37.22 29.908,37.193 28.836,37.064 27.77,36.949 26.8,36.41 c -1.725,-0.959 -2.364,-2.742 -1.927,-4.603 0.148,-0.63 0.557,-1.199 0.845,-1.796 0.032,-0.065 0.064,-0.13 0.132,-0.271 -0.169,0.038 -0.27,0.046 -0.357,0.083 -0.959,0.418 -1.779,1.035 -2.48,1.804 -0.177,0.195 -0.322,0.245 -0.555,0.093 -2.122,-1.384 -4.46,-1.883 -6.965,-1.68 -0.09,0.008 -0.181,-0.011 -0.356,-0.021 0.101,-0.158 0.157,-0.277 0.238,-0.372 1.473,-1.727 3.019,-3.378 4.92,-4.648 0.349,-0.234 0.188,-0.382 -0.013,-0.571 -1.529,-1.435 -3.279,-2.539 -5.172,-3.418 -0.706,-0.327 -1.442,-0.589 -2.163,-0.884 -0.079,-0.032 -0.146,-0.091 -0.33,-0.207 4.187,-0.605 8.111,-0.128 11.896,1.53 0.023,-0.043 0.047,-0.088 0.07,-0.132 C 24.488,21.192 24.401,21.06 24.297,20.942 22.909,19.38 21.134,18.396 19.194,17.749 16.769,16.941 14.302,16.265 11.855,15.524 9.954,14.948 8.083,14.302 6.454,13.116 4.643,11.799 3.734,9.999 3.59,7.716 3.689,7.791 3.759,7.82 3.791,7.872 c 1.171,1.907 2.985,2.865 5.065,3.424 1.972,0.529 4.002,0.633 6.02,0.84 2.141,0.22 4.293,0.393 6.411,0.757 1.196,0.207 2.333,0.755 3.496,1.15 0.097,0.034 0.191,0.074 0.346,0.026 C 24.945,13.924 24.774,13.757 24.576,13.637 22.697,12.494 20.805,11.372 18.931,10.218 17.381,9.263 15.926,8.19 14.93,6.614 14.181,5.432 13.801,4.133 13.659,2.678 c 0.091,0.073 0.133,0.09 0.148,0.122 0.979,2.072 2.725,3.175 4.854,3.708 1.859,0.464 3.747,0.817 5.626,1.194 4.043,0.811 7.725,2.302 10.404,5.612 0.782,0.965 1.414,2.051 2.115,3.083 0.084,0.125 0.162,0.253 0.289,0.452 0.506,-0.561 0.971,-1.073 1.493,-1.649 0.041,0.175 0.086,0.27 0.081,0.362 -0.073,1.32 0.484,2.389 1.318,3.352 1.441,1.664 2.907,3.307 4.308,5.004 0.952,1.155 1.851,2.362 2.359,3.8 0.322,0.909 0.178,1.264 -0.595,1.85 -0.122,0.092 -0.151,0.485 -0.062,0.647 0.413,0.749 0.821,1.513 1.344,2.185 1.135,1.458 2.494,2.708 3.945,3.852 0.343,0.269 0.347,0.459 0.115,0.799 -0.63,0.919 -1.125,1.908 -1.29,3.029 -0.036,0.247 -0.1,0.506 -0.059,0.742 0.082,0.475 -0.11,0.695 -0.533,0.879 -1.651,0.725 -3.367,1.227 -5.125,1.604 -0.041,0.008 -0.087,-0.012 -0.179,-0.027 0.045,-0.777 0.14,-1.572 -0.371,-2.305 -0.688,0.607 -1.36,1.152 -2.35,1.395 0.489,-0.818 0.857,-1.578 0.869,-2.563 -0.423,0.236 -0.763,0.426 -1.181,0.66 0.161,-0.504 0.295,-0.92 0.427,-1.338 0.082,-0.258 0.075,-0.479 -0.181,-0.66 -0.266,-0.188 -0.47,-0.13 -0.711,0.057 -0.266,0.205 -0.568,0.367 -0.952,0.613 z m 2.012,-10.179 c 0.014,-0.043 0.027,-0.086 0.041,-0.13 -3.233,-1.697 -6.503,-3.339 -9.192,-5.904 -0.014,0.19 0.005,0.354 0.047,0.513 0.597,2.254 1.919,4.031 3.664,5.521 0.183,0.156 0.476,0.263 0.715,0.258 1.464,-0.033 2.928,-0.102 4.392,-0.167 0.112,-0.004 0.222,-0.059 0.333,-0.091 z m 2.678,8.538 c 0.272,0.928 1.732,2.101 2.528,2.101 0,-0.182 -0.017,-0.366 0.003,-0.55 0.042,-0.385 -0.094,-0.586 -0.491,-0.699 -0.474,-0.137 -0.922,-0.365 -1.38,-0.557 -0.191,-0.08 -0.38,-0.168 -0.66,-0.295 z"
   id="path83" />
		<path
   fill-rule="evenodd"
   clip-rule="evenodd"
   d="m 14.277,28.274 c -0.31,0.743 -0.64,1.479 -0.929,2.229 -1.442,3.758 -2.082,7.646 -1.745,11.663 0.408,4.865 2.235,9.184 5.191,13.041 1.835,2.396 3.995,4.463 6.36,6.326 0.083,0.066 0.165,0.135 0.309,0.256 -0.138,0.014 -0.21,0.043 -0.267,0.023 C 19.622,60.675 16.362,59.003 13.746,56.24 12.175,54.578 11.21,52.595 10.588,50.414 9.65,47.119 9.296,43.768 9.575,40.357 c 0.359,-4.359 1.794,-8.335 4.405,-11.866 0.067,-0.093 0.155,-0.172 0.234,-0.257 0.02,0.013 0.041,0.026 0.063,0.04 z"
   id="path85" />
		<path
   fill-rule="evenodd"
   clip-rule="evenodd"
   d="M 7.831,49.43 C 7.613,48.819 7.38,48.215 7.18,47.598 6.063,44.159 5.614,40.624 5.851,37.023 6.203,31.682 7.909,26.805 10.992,22.416 c 0.256,-0.365 0.531,-0.494 0.978,-0.44 1.157,0.136 2.204,0.548 3.185,1.152 0.128,0.079 0.245,0.177 0.387,0.281 C 8.167,30.677 6.054,39.445 7.831,49.43 Z"
   id="path87" />
		<path
   fill-rule="evenodd"
   clip-rule="evenodd"
   d="m 16.295,49.416 c 1.095,-0.295 2.121,-0.621 3.168,-0.844 1.448,-0.309 2.915,-0.529 4.368,-0.811 0.622,-0.121 1.047,-0.006 1.453,0.566 1.198,1.688 2.662,3.139 4.242,4.473 0.152,0.129 0.3,0.264 0.541,0.475 -0.53,0.117 -0.959,0.225 -1.392,0.307 -2.184,0.424 -4.297,1.053 -6.298,2.043 -0.152,0.074 -0.449,0.045 -0.582,-0.057 -2.082,-1.627 -3.88,-3.521 -5.319,-5.746 -0.056,-0.09 -0.086,-0.195 -0.181,-0.406 z"
   id="path89" />
		<path
   fill-rule="evenodd"
   clip-rule="evenodd"
   d="m -6.395,21.026 c 0.245,-0.178 0.48,-0.375 0.738,-0.534 2.148,-1.32 4.467,-2.212 6.934,-2.711 3.007,-0.606 6.049,-0.622 9.097,-0.493 0.46,0.02 0.917,0.119 1.468,0.195 -0.132,0.179 -0.2,0.292 -0.287,0.387 -1.602,1.743 -3.006,3.63 -4.158,5.699 -0.184,0.33 -0.331,0.398 -0.684,0.189 -2.248,-1.333 -4.654,-2.262 -7.234,-2.704 -1.862,-0.32 -3.726,-0.356 -5.584,0.056 -0.072,0.015 -0.146,0.022 -0.22,0.032 -0.024,-0.038 -0.046,-0.077 -0.07,-0.116 z"
   id="path91" />
		<path
   fill-rule="evenodd"
   clip-rule="evenodd"
   d="m -6.947,44.768 c 1.322,-5.959 5.422,-10.846 10.818,-11.905 -0.014,0.239 -0.002,0.466 -0.043,0.684 -0.399,2.127 -0.51,4.272 -0.454,6.431 0.017,0.657 0.013,0.651 -0.614,0.743 -3.489,0.506 -6.694,1.697 -9.458,3.947 -0.036,0.029 -0.074,0.057 -0.116,0.076 -0.027,0.012 -0.06,0.012 -0.133,0.024 z"
   id="path93" />
		<path
   fill-rule="evenodd"
   clip-rule="evenodd"
   d="m 13.422,40.1 c -0.02,-0.826 -0.097,-1.645 -0.046,-2.457 0.113,-1.78 0.422,-3.531 0.969,-5.235 0.109,-0.342 0.286,-0.533 0.639,-0.577 2.334,-0.289 4.542,0.032 6.556,1.332 0.325,0.21 0.43,0.405 0.275,0.793 -0.463,1.163 -0.597,2.391 -0.544,3.631 0.018,0.423 -0.146,0.583 -0.546,0.636 -2.423,0.312 -4.793,0.832 -7.028,1.859 -0.039,0.018 -0.091,0.008 -0.275,0.018 z"
   id="path95" />
		<path
   fill-rule="evenodd"
   clip-rule="evenodd"
   d="m 23.656,46.023 c -0.86,0.145 -1.664,0.238 -2.448,0.418 -1.73,0.398 -3.453,0.832 -5.17,1.281 -0.285,0.074 -0.426,0.047 -0.555,-0.215 -0.789,-1.619 -1.363,-3.313 -1.792,-5.059 -0.07,-0.283 0.036,-0.457 0.289,-0.551 1.237,-0.459 2.457,-0.983 3.722,-1.347 1.088,-0.315 2.231,-0.442 3.347,-0.659 0.238,-0.044 0.378,-0.006 0.429,0.271 0.356,1.936 1.06,3.744 2.015,5.459 0.06,0.108 0.094,0.229 0.163,0.402 z"
   id="path97" />
		<path
   fill-rule="evenodd"
   clip-rule="evenodd"
   d="m -8.927,32.667 c 1.978,-2.339 4.312,-4.192 7.076,-5.48 2.547,-1.188 5.214,-1.751 8.115,-1.527 -0.14,0.352 -0.266,0.643 -0.373,0.941 -0.459,1.275 -0.932,2.546 -1.358,3.832 -0.134,0.407 -0.279,0.551 -0.724,0.432 -1.886,-0.504 -3.802,-0.467 -5.716,-0.206 -2.332,0.317 -4.561,1.01 -6.722,1.93 -0.094,0.039 -0.199,0.051 -0.298,0.078 z"
   id="path99" />
		<path
   fill-rule="evenodd"
   clip-rule="evenodd"
   d="m 23.644,56.883 c 0.981,-0.35 1.854,-0.748 2.769,-0.963 1.819,-0.424 3.662,-0.754 5.499,-1.105 0.16,-0.031 0.373,0.033 0.518,0.121 1.874,1.176 3.847,2.129 5.972,2.758 0.152,0.043 0.288,0.141 0.454,0.225 -2.696,2.317 -12.052,1.708 -15.212,-1.036 z"
   id="path101" />
		<path
   fill-rule="evenodd"
   clip-rule="evenodd"
   d="m -2.862,51.793 c -0.502,-3.295 3.167,-8.719 6.332,-9.438 0.406,1.92 0.811,3.84 1.226,5.803 -1.47,0.064 -2.92,0.209 -4.284,0.82 -1.356,0.61 -2.42,1.553 -3.274,2.815 z"
   id="path103" />
		<path
   fill-rule="evenodd"
   clip-rule="evenodd"
   d="m 5.214,49.574 c 0.362,0.969 0.68,1.813 0.994,2.656 0.212,0.57 0.394,1.154 0.636,1.709 0.139,0.318 0.033,0.516 -0.154,0.754 C 5.66,56.002 4.792,57.4 4.303,59.006 4.254,59.168 4.21,59.33 4.163,59.498 3.751,59.172 3.314,57.531 3.259,55.822 3.186,53.576 3.798,51.521 5.214,49.574 Z"
   id="path105" />
		<path
   fill-rule="evenodd"
   clip-rule="evenodd"
   fill="#ffffff"
   d="m 41.777,28.958 c -0.111,0.032 -0.222,0.087 -0.334,0.092 -1.464,0.064 -2.927,0.134 -4.392,0.167 -0.239,0.004 -0.533,-0.102 -0.715,-0.258 -1.744,-1.49 -3.066,-3.267 -3.664,-5.521 -0.042,-0.158 -0.061,-0.322 -0.047,-0.513 2.689,2.564 5.959,4.207 9.192,5.904 -0.012,0.043 -0.025,0.086 -0.04,0.129 z"
   id="path107" />
		<path
   fill-rule="evenodd"
   clip-rule="evenodd"
   fill="#ffffff"
   d="m 44.455,37.496 c 0.281,0.127 0.469,0.215 0.661,0.295 0.458,0.191 0.906,0.42 1.38,0.557 0.397,0.113 0.533,0.314 0.491,0.699 -0.02,0.184 -0.003,0.368 -0.003,0.55 -0.797,0 -2.257,-1.173 -2.529,-2.101 z"
   id="path109" />
	</g>
</g>
<g
   id="Layer_4"
   display="none"
   transform="translate(-69.827,-17.606)">
	<circle
   display="inline"
   fill-rule="evenodd"
   clip-rule="evenodd"
   fill="#00aeef"
   cx="23.055"
   cy="38.369999"
   r="29.367001"
   id="circle114" />
	<g
   display="inline"
   id="g144">
		<path
   fill-rule="evenodd"
   clip-rule="evenodd"
   fill="#ffffff"
   d="m 36.937,42.482 c 0.128,-0.375 0.224,-0.65 0.319,-0.93 -0.029,-0.016 -0.058,-0.033 -0.086,-0.051 -0.237,0.113 -0.468,0.246 -0.715,0.334 -0.232,0.082 -0.481,0.113 -0.782,0.18 0.237,-0.355 0.428,-0.637 0.61,-0.92 0.138,-0.219 0.118,-0.429 -0.012,-0.656 -0.752,-1.298 -1.846,-2.183 -3.296,-2.534 -0.779,-0.189 -1.602,-0.194 -2.406,-0.275 -0.128,-0.013 -0.261,0.017 -0.51,0.037 0.16,0.169 0.239,0.276 0.34,0.356 1.698,1.343 3.211,2.86 4.422,4.662 0.185,0.275 0.362,0.557 0.521,0.848 0.125,0.229 0.238,0.443 0.593,0.273 -0.022,0.271 -0.039,0.496 -0.062,0.791 0.222,-0.094 0.381,-0.16 0.633,-0.264 -0.08,0.443 -0.147,0.816 -0.235,1.309 0.451,-0.275 0.833,-0.508 1.273,-0.775 0.064,0.652 -0.244,1.172 -0.408,1.818 0.366,-0.068 0.645,-0.119 0.995,-0.186 0.269,1.037 0.462,2.088 0.345,3.24 -0.396,-0.16 -0.717,-0.305 -1.049,-0.418 -0.658,-0.227 -1.338,-0.332 -2.032,-0.258 -0.314,0.035 -0.37,-0.086 -0.363,-0.369 0.032,-1.518 -0.292,-2.93 -1.296,-4.123 -0.094,-0.115 -0.205,-0.213 -0.302,-0.324 -0.179,-0.201 -0.371,-0.219 -0.626,-0.121 -0.785,0.305 -1.598,0.377 -2.428,0.209 -0.101,-0.02 -0.195,-0.074 -0.307,-0.119 0.138,-0.303 0.315,-0.561 0.363,-0.836 0.049,-0.285 0.042,-0.621 -0.067,-0.879 -0.19,-0.447 -0.459,-0.869 -0.734,-1.275 -0.094,-0.137 -0.295,-0.258 -0.46,-0.277 -0.844,-0.102 -1.683,-0.192 -2.447,-0.616 -1.358,-0.755 -1.861,-2.159 -1.517,-3.624 0.117,-0.496 0.438,-0.944 0.666,-1.414 0.025,-0.052 0.05,-0.103 0.104,-0.214 -0.133,0.03 -0.212,0.036 -0.281,0.065 -0.755,0.329 -1.401,0.814 -1.953,1.42 -0.139,0.153 -0.253,0.193 -0.437,0.073 -1.671,-1.089 -3.511,-1.482 -5.483,-1.322 -0.071,0.007 -0.143,-0.008 -0.281,-0.016 0.08,-0.124 0.124,-0.218 0.188,-0.293 1.16,-1.359 2.376,-2.659 3.873,-3.659 0.275,-0.185 0.148,-0.301 -0.01,-0.45 -1.204,-1.129 -2.581,-1.999 -4.072,-2.691 -0.556,-0.258 -1.136,-0.464 -1.703,-0.696 -0.062,-0.025 -0.116,-0.071 -0.26,-0.163 3.296,-0.477 6.385,-0.101 9.365,1.205 0.018,-0.034 0.037,-0.069 0.055,-0.104 -0.075,-0.099 -0.143,-0.203 -0.225,-0.295 -1.093,-1.229 -2.49,-2.004 -4.017,-2.514 -1.909,-0.636 -3.851,-1.168 -5.777,-1.752 -1.497,-0.454 -2.97,-0.962 -4.252,-1.896 -1.426,-1.037 -2.141,-2.454 -2.255,-4.251 0.078,0.059 0.133,0.082 0.158,0.123 0.922,1.501 2.35,2.255 3.987,2.696 1.552,0.417 3.151,0.498 4.739,0.661 1.686,0.174 3.38,0.309 5.047,0.596 0.941,0.163 1.836,0.594 2.752,0.905 0.076,0.026 0.15,0.058 0.272,0.02 -0.145,-0.114 -0.279,-0.245 -0.435,-0.34 -1.479,-0.899 -2.969,-1.783 -4.444,-2.692 -1.221,-0.751 -2.366,-1.597 -3.15,-2.837 -0.589,-0.93 -0.889,-1.954 -1.001,-3.098 0.072,0.058 0.105,0.071 0.117,0.096 0.771,1.631 2.145,2.5 3.821,2.918 1.463,0.365 2.949,0.644 4.429,0.94 3.183,0.638 6.082,1.813 8.191,4.418 0.615,0.759 1.113,1.614 1.665,2.427 0.066,0.098 0.128,0.2 0.228,0.356 0.399,-0.441 0.764,-0.844 1.176,-1.298 0.032,0.138 0.067,0.212 0.063,0.285 -0.058,1.04 0.381,1.881 1.038,2.639 1.135,1.31 2.289,2.604 3.392,3.939 0.749,0.909 1.457,1.859 1.857,2.991 0.253,0.716 0.14,0.995 -0.468,1.457 -0.096,0.072 -0.119,0.381 -0.048,0.51 0.325,0.589 0.646,1.19 1.058,1.72 0.894,1.148 1.963,2.133 3.105,3.032 0.27,0.212 0.273,0.361 0.091,0.629 -0.496,0.723 -0.886,1.502 -1.015,2.385 -0.028,0.193 -0.079,0.398 -0.046,0.584 0.065,0.373 -0.086,0.547 -0.419,0.691 -1.3,0.57 -2.651,0.965 -4.035,1.262 -0.032,0.008 -0.068,-0.008 -0.141,-0.021 0.035,-0.611 0.11,-1.236 -0.292,-1.814 -0.542,0.479 -1.071,0.908 -1.85,1.1 0.385,-0.645 0.675,-1.244 0.685,-2.018 -0.333,0.186 -0.601,0.334 -0.93,0.52 0.126,-0.396 0.232,-0.725 0.336,-1.055 0.064,-0.201 0.059,-0.377 -0.142,-0.52 -0.209,-0.146 -0.37,-0.102 -0.56,0.045 -0.21,0.166 -0.448,0.295 -0.75,0.488 z m 1.584,-8.012 c 0.011,-0.034 0.021,-0.068 0.032,-0.103 -2.545,-1.336 -5.12,-2.629 -7.237,-4.648 -0.011,0.15 0.004,0.279 0.037,0.404 0.47,1.774 1.511,3.174 2.884,4.347 0.144,0.123 0.375,0.206 0.563,0.203 1.153,-0.025 2.305,-0.08 3.457,-0.131 0.09,-0.004 0.177,-0.048 0.264,-0.072 z m 2.108,6.721 c 0.214,0.729 1.364,1.652 1.99,1.652 0,-0.143 -0.013,-0.287 0.002,-0.432 0.034,-0.305 -0.074,-0.463 -0.386,-0.551 -0.373,-0.107 -0.726,-0.287 -1.086,-0.439 -0.15,-0.062 -0.299,-0.13 -0.52,-0.23 z"
   id="path116" />
		<path
   fill-rule="evenodd"
   clip-rule="evenodd"
   fill="#ffffff"
   d="m 16.872,33.931 c -0.244,0.585 -0.504,1.164 -0.731,1.755 -1.135,2.959 -1.639,6.018 -1.374,9.182 0.321,3.83 1.76,7.229 4.086,10.266 1.445,1.887 3.146,3.514 5.007,4.98 0.065,0.053 0.13,0.105 0.244,0.201 -0.108,0.012 -0.166,0.035 -0.21,0.02 -2.814,-0.896 -5.38,-2.211 -7.439,-4.387 -1.237,-1.309 -1.997,-2.869 -2.486,-4.588 -0.738,-2.594 -1.017,-5.232 -0.797,-7.916 0.283,-3.432 1.412,-6.563 3.468,-9.342 0.053,-0.073 0.122,-0.136 0.184,-0.202 0.014,0.009 0.031,0.02 0.048,0.031 z"
   id="path118" />
		<path
   fill-rule="evenodd"
   clip-rule="evenodd"
   fill="#ffffff"
   d="m 11.797,50.586 c -0.171,-0.482 -0.355,-0.957 -0.512,-1.443 -0.879,-2.707 -1.233,-5.49 -1.046,-8.325 0.277,-4.204 1.62,-8.044 4.047,-11.499 0.202,-0.288 0.418,-0.389 0.77,-0.347 0.911,0.107 1.735,0.432 2.507,0.907 0.101,0.063 0.192,0.14 0.304,0.221 -5.804,5.722 -7.469,12.625 -6.07,20.486 z"
   id="path120" />
		<path
   fill-rule="evenodd"
   clip-rule="evenodd"
   fill="#ffffff"
   d="m 18.461,50.574 c 0.862,-0.232 1.669,-0.488 2.494,-0.664 1.14,-0.242 2.294,-0.416 3.438,-0.639 0.489,-0.096 0.824,-0.004 1.144,0.447 0.943,1.328 2.096,2.471 3.34,3.52 0.119,0.102 0.236,0.209 0.425,0.375 -0.417,0.092 -0.755,0.176 -1.096,0.24 -1.719,0.334 -3.383,0.83 -4.958,1.609 -0.12,0.059 -0.354,0.035 -0.458,-0.045 -1.639,-1.281 -3.054,-2.773 -4.187,-4.523 -0.044,-0.07 -0.068,-0.154 -0.142,-0.32 z"
   id="path122" />
		<path
   fill-rule="evenodd"
   clip-rule="evenodd"
   fill="#ffffff"
   d="m 0.599,28.225 c 0.193,-0.141 0.378,-0.296 0.581,-0.42 1.691,-1.04 3.517,-1.742 5.459,-2.134 2.367,-0.477 4.762,-0.489 7.161,-0.388 0.362,0.016 0.722,0.094 1.156,0.153 -0.104,0.141 -0.157,0.23 -0.226,0.305 -1.261,1.372 -2.367,2.858 -3.273,4.487 -0.145,0.26 -0.26,0.313 -0.538,0.148 C 9.149,29.327 7.255,28.596 5.224,28.248 3.759,27.996 2.291,27.967 0.828,28.292 0.771,28.303 0.713,28.309 0.655,28.317 0.634,28.286 0.617,28.256 0.599,28.225 Z"
   id="path124" />
		<path
   fill-rule="evenodd"
   clip-rule="evenodd"
   fill="#ffffff"
   d="m 0.164,46.914 c 1.041,-4.689 4.269,-8.537 8.516,-9.372 -0.011,0.189 -0.002,0.368 -0.034,0.54 -0.314,1.675 -0.401,3.361 -0.357,5.061 0.013,0.52 0.01,0.514 -0.484,0.586 -2.747,0.398 -5.27,1.336 -7.446,3.107 -0.029,0.023 -0.059,0.045 -0.091,0.06 -0.021,0.01 -0.047,0.01 -0.104,0.018 z"
   id="path126" />
		<path
   fill-rule="evenodd"
   clip-rule="evenodd"
   fill="#ffffff"
   d="m 16.199,43.24 c -0.016,-0.65 -0.077,-1.295 -0.037,-1.934 0.089,-1.402 0.333,-2.78 0.763,-4.122 0.085,-0.271 0.225,-0.42 0.503,-0.454 1.838,-0.228 3.576,0.025 5.161,1.049 0.256,0.164 0.338,0.318 0.217,0.624 -0.364,0.916 -0.47,1.882 -0.429,2.858 0.014,0.334 -0.115,0.459 -0.43,0.5 -1.907,0.246 -3.773,0.656 -5.533,1.465 -0.029,0.014 -0.07,0.006 -0.215,0.014 z"
   id="path128" />
		<path
   fill-rule="evenodd"
   clip-rule="evenodd"
   fill="#ffffff"
   d="m 24.256,47.904 c -0.677,0.113 -1.31,0.188 -1.927,0.328 -1.362,0.314 -2.718,0.654 -4.07,1.008 -0.225,0.059 -0.335,0.037 -0.437,-0.168 -0.621,-1.275 -1.073,-2.607 -1.411,-3.982 -0.055,-0.223 0.028,-0.359 0.228,-0.434 0.974,-0.361 1.934,-0.775 2.93,-1.061 0.857,-0.248 1.756,-0.348 2.635,-0.52 0.188,-0.035 0.298,-0.004 0.338,0.215 0.28,1.523 0.834,2.947 1.586,4.297 0.046,0.085 0.073,0.181 0.128,0.317 z"
   id="path130" />
		<path
   fill-rule="evenodd"
   clip-rule="evenodd"
   fill="#ffffff"
   d="m -1.396,37.389 c 1.557,-1.842 3.395,-3.301 5.571,-4.314 2.005,-0.936 4.105,-1.379 6.388,-1.202 -0.11,0.276 -0.209,0.506 -0.293,0.74 -0.362,1.004 -0.733,2.004 -1.069,3.017 -0.105,0.32 -0.219,0.434 -0.57,0.34 -1.484,-0.396 -2.993,-0.368 -4.5,-0.162 -1.835,0.25 -3.59,0.795 -5.292,1.521 -0.073,0.03 -0.156,0.039 -0.235,0.06 z"
   id="path132" />
		<path
   fill-rule="evenodd"
   clip-rule="evenodd"
   fill="#ffffff"
   d="m 24.246,56.453 c 0.772,-0.275 1.459,-0.59 2.18,-0.758 1.432,-0.334 2.883,-0.594 4.329,-0.871 0.126,-0.025 0.293,0.025 0.407,0.096 1.476,0.926 3.028,1.676 4.702,2.17 0.12,0.035 0.227,0.111 0.357,0.178 -2.122,1.824 -9.488,1.345 -11.975,-0.815 z"
   id="path134" />
		<path
   fill-rule="evenodd"
   clip-rule="evenodd"
   fill="#ffffff"
   d="m 3.379,52.445 c -0.395,-2.594 2.493,-6.863 4.984,-7.43 0.32,1.512 0.639,3.023 0.965,4.568 -1.157,0.051 -2.298,0.164 -3.373,0.646 -1.065,0.48 -1.904,1.224 -2.576,2.216 z"
   id="path136" />
		<path
   fill-rule="evenodd"
   clip-rule="evenodd"
   fill="#ffffff"
   d="m 9.737,50.699 c 0.285,0.762 0.536,1.426 0.782,2.09 0.167,0.449 0.311,0.91 0.5,1.346 0.109,0.252 0.026,0.406 -0.121,0.594 C 10.086,55.76 9.403,56.86 9.019,58.124 8.98,58.253 8.945,58.38 8.909,58.513 8.584,58.255 8.241,56.964 8.197,55.618 8.141,53.85 8.623,52.232 9.737,50.699 Z"
   id="path138" />
		<path
   fill-rule="evenodd"
   clip-rule="evenodd"
   fill="#00aeef"
   d="m 38.521,34.47 c -0.088,0.024 -0.175,0.068 -0.263,0.072 -1.152,0.051 -2.304,0.105 -3.457,0.131 -0.188,0.003 -0.419,-0.08 -0.563,-0.203 -1.373,-1.173 -2.414,-2.572 -2.884,-4.347 -0.033,-0.125 -0.048,-0.254 -0.037,-0.404 2.117,2.019 4.691,3.312 7.237,4.648 -0.011,0.034 -0.022,0.069 -0.033,0.103 z"
   id="path140" />
		<path
   fill-rule="evenodd"
   clip-rule="evenodd"
   fill="#ffffff"
   d="m 40.629,41.191 c 0.221,0.1 0.37,0.168 0.52,0.23 0.36,0.152 0.713,0.332 1.086,0.439 0.313,0.088 0.42,0.246 0.386,0.551 -0.015,0.145 -0.002,0.289 -0.002,0.432 -0.626,10e-4 -1.776,-0.923 -1.99,-1.652 z"
   id="path142" />
	</g>
</g>
<g
   id="Layer_5"
   display="none"
   transform="translate(-69.827,-17.606)">
	<g
   display="inline"
   id="g161">
		<g
   id="g149">
			<path
   fill-rule="evenodd"
   clip-rule="evenodd"
   fill="#ef4136"
   d="m 5.385,9.968 c 0,-2.75 2.25,-5 5,-5 h 42.5 c 2.75,0 5,2.25 5,5 v 42.5 c 0,2.75 -2.25,5 -5,5 h -42.5 c -2.75,0 -5,-2.25 -5,-5 z"
   id="path147" />
		</g>
		<g
   id="g159">
			<g
   id="g155">
				<path
   fill-rule="evenodd"
   clip-rule="evenodd"
   fill="#1e1e1e"
   d="m 10.8,22.609 c 1.045,-1.376 2.655,-2.111 4.348,-2.727 0.836,-0.304 1.737,-0.481 2.613,-0.704 0.927,-0.236 1.81,-0.539 2.453,-1.188 0.916,-0.922 0.649,-2.069 -0.612,-2.619 -0.29,-0.126 -0.617,-0.241 -0.935,-0.26 -0.683,-0.039 -1.372,-0.012 -2.168,-0.012 1.602,-1.177 3.396,-1.689 5.367,-1.784 3.362,-0.161 6.382,0.731 9.193,2.222 0.278,0.147 0.532,0.329 0.796,0.494 -2.035,-3.555 -4.912,-6.578 -7.868,-9.563 3.514,1.528 6.636,3.534 9.675,5.644 0.067,-0.025 0.134,-0.051 0.2,-0.076 -0.583,-1.82 -1.165,-3.641 -1.788,-5.586 0.518,0.511 1.01,0.912 1.384,1.381 1.78,2.233 3.565,4.464 5.274,6.737 1.229,1.635 2.357,3.316 4.321,4.435 0.582,0.331 1.124,0.721 1.639,1.124 0.197,0.155 0.359,0.42 0.382,0.646 0.124,1.229 0.339,2.434 1.043,3.538 0.396,0.623 0.887,1.184 1.643,1.512 1.187,0.517 1.985,0.146 2.342,-0.895 0.112,-0.327 0.106,-0.685 0.168,-1.139 0.669,1.023 1.323,1.944 1.882,2.905 0.388,0.667 0.729,1.369 0.946,2.088 0.633,2.088 -0.011,3.299 -2.241,3.814 -1.556,0.359 -5.321,0.136 -6.922,-0.351 0.199,-0.09 0.391,-0.167 0.571,-0.262 0.182,-0.096 0.365,-0.196 0.522,-0.317 0.521,-0.405 0.592,-0.886 0.09,-1.303 -0.396,-0.329 -0.88,-0.604 -1.377,-0.817 -1.373,-0.591 -2.866,-0.815 -4.387,-0.918 -1.485,-0.101 -2.947,-0.289 -4.33,-0.788 -2.077,-0.75 -3.381,-2.037 -3.737,-3.953 -0.092,-0.496 -0.103,-1.004 -0.151,-1.521 -4.113,1.669 -4.874,5.658 -2.57,8.303 1.237,1.42 2.953,2.375 4.891,3.044 3.83,1.32 7.333,3.074 10.168,5.677 1.657,1.52 2.916,3.24 3.383,5.303 0.16,0.707 0.168,1.439 0.246,2.16 -1.885,-1.316 -3.782,-2.393 -6.047,-3.035 0.257,0.643 0.528,1.195 0.696,1.768 0.169,0.576 0.311,1.172 0.333,1.76 0.1,2.691 -1.295,4.777 -3.817,6.309 -3.52,2.137 -7.506,2.625 -11.712,2.189 -0.343,-0.035 -0.682,-0.098 -0.872,-0.125 1.289,-0.17 2.699,-0.324 4.095,-0.549 1.6,-0.258 2.927,-0.92 3.788,-2.129 0.245,-0.344 0.467,-0.738 0.528,-1.127 0.177,-1.131 -0.234,-2.168 -0.863,-3.156 -1.074,-1.691 -2.77,-2.848 -4.607,-3.881 -2.146,-1.207 -4.34,-2.354 -6.45,-3.604 -2.772,-1.641 -4.993,-3.684 -6.209,-6.432 -0.267,-0.604 -0.72,-1.186 -1.231,-1.668 -1.093,-1.03 -2.495,-0.841 -3.218,0.398 -0.246,0.421 -0.365,0.896 -0.537,1.334 -1.465,-2.687 -0.982,-5.984 2.176,-7.875 0.518,-0.311 0.964,-0.788 1.255,-1.271 0.504,-0.836 -0.087,-1.634 -1.196,-1.682 -0.495,-0.021 -1.021,0.038 -1.493,0.168 -0.656,0.179 -1.273,0.458 -1.93,0.702 0.023,-0.857 0.315,-1.625 0.857,-2.338 z m 38.655,6.198 c 0.01,-0.018 0.021,-0.035 0.031,-0.053 -0.027,-0.004 -0.055,-0.007 -0.082,-0.011 -0.224,-0.793 -0.775,-1.396 -1.601,-1.775 -0.867,-0.399 -1.57,0.038 -1.574,0.954 0.97,-0.532 1.771,-0.174 2.538,0.335 0.225,0.149 0.431,0.317 0.646,0.477 0.014,0.024 0.027,0.049 0.042,0.073 z M 38.466,19.573 c -0.03,0.024 -0.059,0.048 -0.088,0.072 0.238,0.238 0.499,0.463 0.712,0.717 0.552,0.657 1.076,1.331 1.629,1.989 0.094,0.111 0.279,0.257 0.406,0.245 0.832,-0.071 1.659,-0.182 2.488,-0.278 -0.004,-0.045 -0.008,-0.09 -0.012,-0.135 -1.711,-0.87 -3.423,-1.74 -5.135,-2.61 z"
   id="path151" />
				<path
   fill-rule="evenodd"
   clip-rule="evenodd"
   fill="#1e1e1e"
   d="m 9.744,44.408 c 0.022,0.227 0.01,0.363 0.051,0.486 1.225,3.725 3.638,6.693 7.778,8.467 2.657,1.139 5.484,1.465 8.415,0.836 0.188,-0.041 0.375,-0.09 0.559,-0.146 2.861,-0.871 3.824,-2.904 2.432,-5.201 -1.134,-1.871 -3.008,-3.096 -5.118,-4.098 -0.249,-0.119 -0.506,-0.223 -0.749,-0.328 0.189,0.535 0.427,1.037 0.538,1.561 0.177,0.834 -0.548,1.803 -1.537,2.033 -3.939,0.918 -7.302,-0.193 -10.426,-2.113 -0.67,-0.411 -1.235,-0.946 -1.943,-1.497 z"
   id="path153" />
			</g>
			<path
   fill-rule="evenodd"
   clip-rule="evenodd"
   fill="#1e1e1e"
   d="m 49.414,28.734 c 0.013,0.024 0.027,0.049 0.041,0.073 0.01,-0.018 0.021,-0.035 0.031,-0.053 -0.027,-0.004 -0.055,-0.007 -0.082,-0.011 z"
   id="path157" />
		</g>
	</g>
</g>
<g
   id="Layer_5_copy"
   display="none"
   transform="translate(-69.827,-17.606)">
</g>
<g
   id="Layer_11"
   display="none"
   transform="translate(-69.827,-17.606)">
	<path
   display="inline"
   fill="none"
   d="m 26.546,54.051 c 2.861,-0.871 3.824,-2.904 2.432,-5.201 -1.134,-1.871 -3.008,-3.096 -5.118,-4.098 -0.249,-0.119 -0.506,-0.223 -0.749,-0.328 0.189,0.535 0.427,1.037 0.538,1.561 0.177,0.834 -0.548,1.803 -1.537,2.033 -3.939,0.918 -7.302,-0.193 -10.426,-2.113 -0.669,-0.41 -1.234,-0.945 -1.941,-1.496 0.022,0.227 0.01,0.363 0.051,0.486 1.225,3.725 3.638,6.693 7.778,8.467 2.657,1.139 5.484,1.465 8.415,0.836 0.187,-0.042 0.374,-0.091 0.557,-0.147 z"
   id="path165" />
	<path
   display="inline"
   fill="none"
   d="m 52.151,26.693 c -0.559,-0.961 -1.213,-1.882 -1.882,-2.905 -0.063,0.454 -0.056,0.812 -0.168,1.139 -0.357,1.04 -1.155,1.411 -2.342,0.895 C 47.004,25.494 46.513,24.933 46.116,24.31 45.412,23.206 45.197,22.001 45.073,20.772 45.05,20.546 44.888,20.282 44.691,20.126 44.176,19.723 43.634,19.333 43.052,19.002 41.088,17.884 39.96,16.202 38.731,14.567 37.023,12.295 35.237,10.063 33.457,7.83 33.083,7.361 32.591,6.96 32.073,6.449 c 0.623,1.946 1.206,3.766 1.788,5.586 -0.066,0.025 -0.133,0.051 -0.2,0.076 -3.039,-2.109 -6.161,-4.115 -9.675,-5.644 2.956,2.986 5.833,6.009 7.868,9.563 -0.265,-0.165 -0.518,-0.347 -0.796,-0.494 -2.812,-1.49 -5.831,-2.383 -9.193,-2.222 -1.971,0.095 -3.765,0.607 -5.367,1.784 0.796,0 1.485,-0.027 2.168,0.012 0.318,0.019 0.646,0.134 0.935,0.26 1.262,0.55 1.528,1.697 0.612,2.619 -0.643,0.648 -1.526,0.951 -2.453,1.188 -0.876,0.223 -1.777,0.4 -2.613,0.704 -1.693,0.615 -3.303,1.351 -4.348,2.727 -0.542,0.713 -0.833,1.481 -0.859,2.338 0.656,-0.244 1.274,-0.523 1.93,-0.702 0.472,-0.13 0.998,-0.188 1.493,-0.168 1.108,0.048 1.7,0.846 1.196,1.682 -0.291,0.482 -0.737,0.96 -1.255,1.271 -3.158,1.891 -3.641,5.188 -2.176,7.875 0.172,-0.438 0.291,-0.913 0.537,-1.334 0.723,-1.239 2.125,-1.429 3.218,-0.398 0.511,0.482 0.964,1.063 1.231,1.668 1.217,2.749 3.438,4.792 6.209,6.432 2.11,1.25 4.304,2.396 6.45,3.604 1.837,1.033 3.533,2.189 4.607,3.881 0.629,0.988 1.04,2.025 0.863,3.156 -0.061,0.389 -0.283,0.783 -0.528,1.127 -0.861,1.209 -2.188,1.871 -3.788,2.129 -1.396,0.225 -2.806,0.379 -4.095,0.549 0.189,0.027 0.528,0.09 0.872,0.125 4.206,0.436 8.192,-0.053 11.712,-2.189 2.522,-1.531 3.917,-3.617 3.817,-6.309 -0.022,-0.588 -0.164,-1.184 -0.333,-1.76 -0.168,-0.572 -0.439,-1.125 -0.696,-1.768 2.265,0.643 4.163,1.719 6.047,3.035 -0.078,-0.721 -0.086,-1.453 -0.246,-2.16 -0.467,-2.063 -1.726,-3.783 -3.383,-5.303 -2.834,-2.604 -6.338,-4.357 -10.168,-5.677 -1.938,-0.669 -3.654,-1.624 -4.891,-3.044 -2.304,-2.645 -1.543,-6.634 2.57,-8.303 0.049,0.518 0.06,1.025 0.151,1.521 0.356,1.916 1.66,3.203 3.737,3.953 1.383,0.499 2.845,0.688 4.33,0.788 1.521,0.103 3.014,0.327 4.387,0.918 0.497,0.213 0.982,0.488 1.377,0.817 0.502,0.417 0.431,0.897 -0.09,1.303 -0.157,0.121 -0.34,0.222 -0.522,0.317 -0.18,0.095 -0.372,0.172 -0.571,0.262 1.601,0.486 5.366,0.71 6.922,0.351 2.23,-0.516 2.875,-1.727 2.241,-3.814 C 52.88,28.062 52.54,27.36 52.151,26.693 Z M 41.125,22.596 c -0.126,0.012 -0.312,-0.134 -0.406,-0.245 -0.553,-0.658 -1.077,-1.332 -1.629,-1.989 -0.213,-0.254 -0.474,-0.479 -0.712,-0.717 0.029,-0.024 0.058,-0.048 0.088,-0.072 1.712,0.87 3.423,1.74 5.135,2.61 0.003,0.045 0.007,0.09 0.012,0.135 -0.829,0.097 -1.656,0.207 -2.488,0.278 z m 8.279,6.148 C 49.402,28.735 49.397,28.728 49.394,28.72 49.186,28.565 48.985,28.403 48.767,28.258 48,27.749 47.199,27.391 46.229,27.923 c 0.003,-0.916 0.707,-1.354 1.574,-0.954 0.817,0.375 1.362,0.971 1.591,1.751 0.006,0.005 0.013,0.01 0.02,0.015 z"
   id="path167" />
	<path
   display="inline"
   fill="#ef4136"
   d="m 49.404,28.744 0.01,-0.01 c -0.006,-0.005 -0.013,-0.01 -0.02,-0.015 0.002,0.009 0.007,0.016 0.01,0.025 z"
   id="path169" />
	<g
   display="inline"
   id="g177">
		<path
   fill="#00aeef"
   d="m 38.466,19.573 c -0.03,0.024 -0.059,0.048 -0.088,0.072 0.238,0.238 0.499,0.463 0.712,0.717 0.552,0.657 1.076,1.331 1.629,1.989 0.094,0.111 0.279,0.257 0.406,0.245 0.832,-0.071 1.659,-0.182 2.488,-0.278 -0.004,-0.045 -0.008,-0.09 -0.012,-0.135 -1.711,-0.87 -3.423,-1.74 -5.135,-2.61 z"
   id="path171" />
		<path
   fill="#00aeef"
   d="m 47.803,26.968 c -0.867,-0.399 -1.57,0.038 -1.574,0.954 0.97,-0.532 1.771,-0.174 2.538,0.335 0.218,0.145 0.418,0.307 0.627,0.462 -0.229,-0.78 -0.774,-1.375 -1.591,-1.751 z"
   id="path173" />
		<path
   fill="#00aeef"
   d="M 54.406,4.968 H 8.864 c -1.921,0 -3.479,1.558 -3.479,3.479 v 45.542 c 0,1.921 1.558,3.479 3.479,3.479 h 45.542 c 1.921,0 3.479,-1.559 3.479,-3.479 V 8.447 c 0,-1.921 -1.558,-3.479 -3.479,-3.479 z M 17.573,53.361 C 13.432,51.588 11.02,48.619 9.795,44.894 9.754,44.771 9.766,44.634 9.744,44.408 c 0.708,0.551 1.272,1.086 1.941,1.496 3.124,1.92 6.487,3.031 10.426,2.113 0.989,-0.23 1.714,-1.199 1.537,-2.033 -0.111,-0.523 -0.349,-1.025 -0.538,-1.561 0.243,0.105 0.5,0.209 0.749,0.328 2.11,1.002 3.984,2.227 5.118,4.098 1.392,2.297 0.429,4.33 -2.432,5.201 -0.183,0.057 -0.37,0.105 -0.559,0.146 -2.928,0.63 -5.756,0.304 -8.413,-0.835 z M 50.856,32.595 c -1.556,0.359 -5.321,0.136 -6.922,-0.351 0.199,-0.09 0.391,-0.167 0.571,-0.262 0.182,-0.096 0.365,-0.196 0.522,-0.317 0.521,-0.405 0.592,-0.886 0.09,-1.303 -0.396,-0.329 -0.88,-0.604 -1.377,-0.817 -1.373,-0.591 -2.866,-0.815 -4.387,-0.918 -1.485,-0.101 -2.947,-0.289 -4.33,-0.788 -2.077,-0.75 -3.381,-2.037 -3.737,-3.953 -0.092,-0.496 -0.103,-1.004 -0.151,-1.521 -4.113,1.669 -4.874,5.658 -2.57,8.303 1.237,1.42 2.953,2.375 4.891,3.044 3.83,1.32 7.333,3.074 10.168,5.677 1.657,1.52 2.916,3.24 3.383,5.303 0.16,0.707 0.168,1.439 0.246,2.16 -1.885,-1.316 -3.782,-2.393 -6.047,-3.035 0.257,0.643 0.528,1.195 0.696,1.768 0.169,0.576 0.311,1.172 0.333,1.76 0.1,2.691 -1.295,4.777 -3.817,6.309 -3.52,2.137 -7.506,2.625 -11.712,2.189 -0.343,-0.035 -0.682,-0.098 -0.872,-0.125 1.289,-0.17 2.699,-0.324 4.095,-0.549 1.6,-0.258 2.927,-0.92 3.788,-2.129 0.245,-0.344 0.467,-0.738 0.528,-1.127 0.177,-1.131 -0.234,-2.168 -0.863,-3.156 -1.074,-1.691 -2.77,-2.848 -4.607,-3.881 -2.146,-1.207 -4.34,-2.354 -6.45,-3.604 -2.772,-1.641 -4.993,-3.684 -6.209,-6.432 -0.267,-0.604 -0.72,-1.186 -1.231,-1.668 -1.093,-1.03 -2.495,-0.841 -3.218,0.398 -0.246,0.421 -0.365,0.896 -0.537,1.334 -1.465,-2.687 -0.982,-5.984 2.176,-7.875 0.518,-0.311 0.964,-0.788 1.255,-1.271 0.504,-0.836 -0.087,-1.634 -1.196,-1.682 -0.495,-0.021 -1.021,0.038 -1.493,0.168 -0.656,0.179 -1.273,0.458 -1.93,0.702 0.026,-0.856 0.318,-1.625 0.859,-2.338 1.045,-1.376 2.655,-2.111 4.348,-2.727 0.836,-0.304 1.737,-0.481 2.613,-0.704 0.927,-0.236 1.81,-0.539 2.453,-1.188 0.916,-0.922 0.649,-2.069 -0.612,-2.619 -0.29,-0.126 -0.617,-0.241 -0.935,-0.26 -0.683,-0.039 -1.372,-0.012 -2.168,-0.012 1.602,-1.177 3.396,-1.689 5.367,-1.784 3.362,-0.161 6.382,0.731 9.193,2.222 0.278,0.147 0.532,0.329 0.796,0.494 -2.035,-3.555 -4.912,-6.578 -7.868,-9.563 3.514,1.528 6.636,3.534 9.675,5.644 0.067,-0.025 0.134,-0.051 0.2,-0.076 -0.583,-1.82 -1.165,-3.641 -1.788,-5.586 0.518,0.511 1.01,0.912 1.384,1.381 1.78,2.233 3.565,4.464 5.274,6.737 1.229,1.635 2.357,3.316 4.321,4.435 0.582,0.331 1.124,0.721 1.639,1.124 0.197,0.155 0.359,0.42 0.382,0.646 0.124,1.229 0.339,2.434 1.043,3.538 0.396,0.623 0.887,1.184 1.643,1.512 1.187,0.517 1.985,0.146 2.342,-0.895 0.112,-0.327 0.106,-0.685 0.168,-1.139 0.669,1.023 1.323,1.944 1.882,2.905 0.388,0.667 0.729,1.369 0.946,2.088 0.632,2.088 -0.012,3.299 -2.243,3.814 z"
   id="path175" />
	</g>
</g>

<g
   id="_x31_"
   display="none"
   transform="translate(-69.827,-17.606)">
	<g
   display="inline"
   id="g189">
		<path
   fill-rule="evenodd"
   clip-rule="evenodd"
   fill="#00aeef"
   d="m 16.922,23.321 c -1.202,4.019 -1.199,7.979 0.475,11.927 0.028,-0.126 0.087,-0.254 0.08,-0.379 -0.215,-3.436 1.133,-6.404 3.736,-9.061 1.321,-1.348 2.662,-2.747 3.573,-4.293 1.818,-3.083 1.38,-6.323 0.317,-9.526 -0.207,-0.622 -0.45,-1.235 -0.596,-1.909 4.619,2.259 8.683,5.038 11.738,8.722 3.079,3.712 4.772,7.805 4.496,12.405 2.187,-1.669 2.826,-3.823 3.138,-6.207 0.501,0.482 1.054,0.934 1.497,1.45 3.294,3.837 5.575,8.059 6.413,12.723 1.078,5.996 -1.379,11.04 -6.607,15.165 -1.439,1.136 -3.13,2.052 -4.713,3.062 -0.205,0.13 -0.451,0.217 -0.883,0.419 0.354,-1.022 0.664,-1.863 0.934,-2.712 1.159,-3.646 1.346,-7.275 -0.59,-10.788 -0.577,-1.045 -1.473,-1.97 -2.241,-2.94 -0.135,-0.17 -0.363,-0.29 -0.727,-0.571 -0.118,1.93 -0.863,3.423 -2.731,4.488 0.043,-2.492 -0.484,-4.855 -1.924,-7.029 -1.444,-2.184 -3.413,-3.941 -6.26,-5.222 0.084,0.479 0.134,0.798 0.196,1.113 0.529,2.646 -0.092,5.081 -1.971,7.275 -0.625,0.73 -1.243,1.47 -1.934,2.158 -3.111,3.1 -3.664,6.6 -2.321,10.364 0.455,1.276 1.144,2.495 1.795,3.886 -0.988,-0.488 -1.898,-0.9 -2.764,-1.37 -3.42,-1.854 -6.295,-4.163 -8.358,-7.109 -2.8,-3.996 -3.338,-8.256 -2.088,-12.724 1.107,-3.957 3.392,-7.442 6.119,-10.758 0.71,-0.867 1.466,-1.708 2.201,-2.559 z"
   id="path187" />
	</g>
</g>

</svg>
