<?xml version="1.0" encoding="utf-8"?>
<!-- Generator: Adobe Illustrator 16.0.0, SVG Export Plug-In . SVG Version: 6.00 Build 0)  -->
<!DOCTYPE svg PUBLIC "-//W3C//DTD SVG 1.1//EN" "http://www.w3.org/Graphics/SVG/1.1/DTD/svg11.dtd">
<svg version="1.1" xmlns="http://www.w3.org/2000/svg" xmlns:xlink="http://www.w3.org/1999/xlink" x="0px" y="0px"
	 width="641.27px" height="581.057px" viewBox="0 0 641.27 581.057" enable-background="new 0 0 641.27 581.057"
	 xml:space="preserve">
<g id="Layer_2">
</g>
<g id="Layer_1">
	<g id="Layer_6" display="none">
		<rect x="0" y="0" display="inline" fill="#1E1E1E" width="641.27" height="639.794"/>
	</g>
	<g id="Layer_1_white">
		<g>
			<rect x="-24.614" y="439.952" fill="none" width="690.496" height="228.098"/>
		</g>
		<g enable-background="new    ">
			<path fill="#FFFFFF" d="M146.948,483.162h-26.652v36.858h-5.557V442.9h38.106l0.794,4.423h-33.343v31.415h25.971L146.948,483.162
				z"/>
			<path fill="#FFFFFF" d="M164.98,520.02v-78.935l5.557-1.134v80.068H164.98z"/>
			<path fill="#FFFFFF" d="M189.364,468.304c1.436-0.981,3.232-1.814,5.387-2.495s4.347-1.228,6.578-1.645
				c2.229-0.414,4.101-0.623,5.614-0.623c4.233,0,7.75,0.736,10.547,2.211c2.796,1.475,4.914,3.555,6.351,6.237
				c1.436,2.686,2.155,5.841,2.155,9.471v38.56h-4.31l-0.907-5.897c-1.891,2.117-4.292,3.876-7.202,5.273
				c-2.912,1.398-6.106,2.099-9.583,2.099c-6.2,0-10.831-1.625-13.893-4.877c-3.063-3.25-4.593-7.259-4.593-12.021
				c0-5.217,1.832-9.261,5.5-12.135c3.667-2.873,8.373-4.311,14.12-4.311h15.311v-6.805c0-3.779-1.077-6.918-3.232-9.413
				c-2.155-2.495-5.463-3.742-9.923-3.742c-3.705,0-6.691,0.379-8.959,1.134c-2.268,0.757-4.537,1.664-6.805,2.723L189.364,468.304z
				 M192.88,510.777c1.058,1.854,2.57,3.328,4.537,4.423c1.965,1.098,4.31,1.645,7.031,1.645c3.553,0,6.672-0.888,9.356-2.665
				c2.683-1.775,4.895-3.95,6.635-6.521v-15.311h-14.857c-4.99,0-8.619,1.191-10.887,3.573c-2.269,2.381-3.403,5.273-3.403,8.676
				C191.292,506.865,191.82,508.926,192.88,510.777z"/>
			<path fill="#FFFFFF" d="M240.284,512.535c1.361,0.606,2.816,1.248,4.366,1.928c1.549,0.681,3.213,1.248,4.99,1.701
				c1.775,0.454,3.61,0.681,5.5,0.681c3.023,0,5.614-0.434,7.769-1.304c2.155-0.868,3.817-2.079,4.99-3.63
				c1.171-1.548,1.758-3.345,1.758-5.387c0-1.814-0.643-3.459-1.928-4.934c-1.287-1.474-3.025-2.835-5.217-4.082
				c-2.194-1.248-4.65-2.399-7.372-3.46c-2.798-1.134-5.426-2.418-7.882-3.855c-2.458-1.436-4.423-3.119-5.897-5.047
				c-1.475-1.928-2.212-4.063-2.212-6.408c0-4.31,1.605-7.919,4.82-10.83c3.212-2.91,7.919-4.366,14.12-4.366
				c1.588,0,3.346,0.189,5.273,0.566c1.928,0.38,3.817,0.907,5.671,1.588c1.852,0.681,3.383,1.475,4.593,2.382l-2.268,3.97
				c-1.513-0.755-3.385-1.588-5.614-2.495c-2.231-0.907-5.047-1.361-8.449-1.361c-3.856,0-6.957,1.021-9.3,3.063
				c-2.344,2.041-3.516,4.386-3.516,7.031c0,2.571,1.361,4.763,4.083,6.578c2.722,1.814,5.972,3.479,9.753,4.989
				c3.023,1.211,5.784,2.571,8.279,4.083c2.495,1.514,4.517,3.271,6.067,5.274c1.549,2.004,2.325,4.291,2.325,6.861
				c0,4.839-1.588,8.619-4.764,11.341c-3.175,2.722-8.279,4.083-15.311,4.083c-1.513,0-3.308-0.17-5.387-0.511
				c-2.081-0.34-4.122-0.833-6.125-1.475c-2.004-0.641-3.725-1.417-5.16-2.324L240.284,512.535z"/>
			<path fill="#FFFFFF" d="M288.597,520.02v-78.935l5.557-1.134v80.068H288.597z M294.041,473.635
				c1.588-1.814,3.459-3.477,5.614-4.989c2.155-1.512,4.441-2.74,6.862-3.687c2.418-0.944,4.763-1.417,7.031-1.417
				c3.931,0,7.088,0.793,9.47,2.381c2.382,1.588,4.12,3.743,5.217,6.465c1.096,2.722,1.645,5.86,1.645,9.413v38.22h-5.557v-38.22
				c0-3.779-0.681-6.992-2.041-9.64c-1.362-2.646-4.123-3.97-8.28-3.97c-2.194,0-4.405,0.473-6.634,1.418
				c-2.231,0.946-4.462,2.25-6.691,3.912c-2.231,1.664-4.405,3.592-6.521,5.784L294.041,473.635z"/>
		</g>
		<g enable-background="new    ">
			<path fill="#FFFFFF" d="M392.706,490.874h-25.631v29.146h-20.642v-77.007h50.016l1.928,16.218h-31.302v15.425h23.703
				L392.706,490.874z"/>
			<path fill="#FFFFFF" d="M408.697,454.242c-2.193-2.192-3.289-4.801-3.289-7.826c0-3.099,1.096-5.764,3.289-7.995
				c2.191-2.229,4.801-3.346,7.825-3.346c3.1,0,5.765,1.116,7.995,3.346c2.23,2.231,3.346,4.896,3.346,7.995
				c0,3.025-1.115,5.634-3.346,7.826c-2.23,2.193-4.896,3.288-7.995,3.288C413.498,457.53,410.888,456.435,408.697,454.242z
				 M406.315,520.02v-55.005h20.642v55.005H406.315z"/>
			<path fill="#FFFFFF" d="M438.297,520.02v-54.892h10.32l4.99,6.691c1.512-1.058,3.307-2.098,5.387-3.118
				c2.079-1.021,4.271-1.89,6.578-2.608c2.306-0.718,4.48-1.078,6.521-1.078l4.196,16.559c-1.814,0-3.763,0.266-5.841,0.794
				c-2.08,0.529-4.121,1.247-6.124,2.154c-2.005,0.907-3.8,1.967-5.388,3.176v32.322H438.297z"/>
			<path fill="#FFFFFF" d="M502.146,497.678c0.528,1.513,1.322,2.835,2.382,3.969c1.058,1.135,2.419,2.005,4.083,2.608
				c1.662,0.606,3.666,0.908,6.011,0.908c3.326,0,6.255-0.415,8.789-1.248c2.532-0.831,4.63-1.662,6.294-2.495l5.785,13.95
				c-1.438,1.06-3.365,2.041-5.785,2.948s-5.104,1.627-8.052,2.155c-2.948,0.527-5.974,0.793-9.073,0.793
				c-6.276,0-11.908-1.097-16.898-3.288c-4.99-2.192-8.902-5.425-11.738-9.697c-2.834-4.271-4.252-9.507-4.252-15.707
				c0-6.199,1.304-11.492,3.912-15.878c2.609-4.384,6.162-7.749,10.661-10.094c4.497-2.343,9.507-3.516,15.026-3.516
				c5.898,0,10.793,1.305,14.688,3.913c3.893,2.608,6.805,6.087,8.732,10.434c1.928,4.349,2.893,9.093,2.893,14.233v6.011H502.146z
				 M515.869,487.471c0-1.059-0.246-2.192-0.736-3.402c-0.493-1.209-1.248-2.249-2.27-3.119c-1.02-0.868-2.4-1.305-4.139-1.305
				c-1.211,0-2.382,0.36-3.516,1.078c-1.135,0.719-2.023,1.664-2.666,2.835c-0.643,1.173-0.963,2.478-0.963,3.913H515.869z"/>
		</g>
	</g>
	<g id="Layer_1_white_copy" display="none">
	</g>
	<g id="Layer_1_white_copy_2" display="none">
	</g>
	<g id="Layer_1_blue" display="none">
	</g>
	<g id="_x31__copy" display="none">
	</g>
	<g id="Layer_9" display="none">
	</g>
	<g id="Layer_3" display="none">
	</g>
	<g id="Layer_4" display="none">
	</g>
	<g id="Layer_5" display="none">
	</g>
	<g id="Layer_5_copy" display="none">
	</g>
	<g id="Layer_11" display="none">
	</g>
	<g id="Layer_11_copy">
		<g>
			
				<linearGradient id="SVGID_1_" gradientUnits="userSpaceOnUse" x1="344.1599" y1="399.7595" x2="348.7401" y2="407.6924" gradientTransform="matrix(1 0 0 -1 24.9448 572.4155)">
				<stop  offset="0" style="stop-color:#8DC63F"/>
				<stop  offset="1" style="stop-color:#DDE23E"/>
			</linearGradient>
			<path fill="url(#SVGID_1_)" d="M358.814,158.121c-0.168,0.137-0.331,0.268-0.492,0.404c1.332,1.332,2.786,2.587,3.978,4.006
				c3.085,3.673,6.016,7.438,9.105,11.117c0.522,0.622,1.56,1.435,2.266,1.37c4.651-0.398,9.274-1.016,13.907-1.556
				c-0.023-0.251-0.048-0.502-0.063-0.754C377.945,167.847,368.381,162.983,358.814,158.121z"/>
			
				<linearGradient id="SVGID_2_" gradientUnits="userSpaceOnUse" x1="384.3914" y1="363.5095" x2="388.9441" y2="371.3951" gradientTransform="matrix(1 0 0 -1 24.9448 572.4155)">
				<stop  offset="0" style="stop-color:#8DC63F"/>
				<stop  offset="1" style="stop-color:#DDE23E"/>
			</linearGradient>
			<path fill="url(#SVGID_2_)" d="M410.993,199.452c-4.844-2.23-8.774,0.213-8.794,5.332c5.419-2.974,9.897-0.971,14.182,1.873
				c1.219,0.81,2.34,1.716,3.505,2.581C418.604,204.877,415.559,201.55,410.993,199.452z"/>
			
				<linearGradient id="SVGID_3_" gradientUnits="userSpaceOnUse" x1="199.0476" y1="181.822" x2="392.3323" y2="516.6009" gradientTransform="matrix(1 0 0 -1 24.9448 572.4155)">
				<stop  offset="0" style="stop-color:#8DC63F"/>
				<stop  offset="1" style="stop-color:#DDE23E"/>
			</linearGradient>
			<path fill="url(#SVGID_3_)" d="M447.893,76.502H193.377c-10.735,0-19.443,8.707-19.443,19.443v254.518
				c0,10.734,8.708,19.445,19.443,19.445h254.517c10.735,0,19.443-8.71,19.443-19.439V95.945
				C467.337,85.209,458.629,76.502,447.893,76.502z M242.05,346.954c-23.14-9.911-36.622-26.503-43.47-47.318
				c-0.229-0.688-0.163-1.451-0.284-2.718c3.953,3.078,7.111,6.068,10.852,8.361c17.458,10.73,36.255,16.94,58.268,11.811
				c5.528-1.288,9.578-6.702,8.591-11.362c-0.619-2.927-1.948-5.731-3.006-8.722c1.356,0.59,2.797,1.167,4.185,1.833
				c11.794,5.601,22.265,12.444,28.604,22.901c7.78,12.836,2.397,24.199-13.591,29.067c-1.022,0.316-2.067,0.589-3.121,0.819
				C272.7,355.139,256.901,353.316,242.05,346.954z M428.059,230.898c-8.695,2.009-29.737,0.759-38.687-1.959
				c1.114-0.501,2.188-0.934,3.19-1.462c1.016-0.535,2.041-1.099,2.917-1.774c2.911-2.265,3.309-4.95,0.503-7.28
				c-2.211-1.839-4.92-3.378-7.699-4.567c-7.673-3.302-16.018-4.558-24.515-5.13c-8.299-0.563-16.473-1.616-24.2-4.405
				c-11.607-4.191-18.895-11.384-20.886-22.092c-0.515-2.772-0.572-5.61-0.848-8.502c-22.986,9.326-27.234,31.621-14.359,46.399
				c6.914,7.937,16.504,13.273,27.334,17.013c21.404,7.378,40.982,17.178,56.823,31.727c9.26,8.492,16.296,18.109,18.908,29.636
				c0.892,3.951,0.938,8.044,1.371,12.072c-10.533-7.357-21.138-13.371-33.797-16.963c1.438,3.592,2.952,6.681,3.892,9.88
				c0.943,3.219,1.738,6.548,1.859,9.834c0.559,15.041-7.237,26.698-21.334,35.256c-19.669,11.941-41.946,14.67-65.452,12.236
				c-1.92-0.196-3.813-0.546-4.871-0.698c7.203-0.95,15.085-1.812,22.885-3.066c8.938-1.441,16.355-5.142,21.168-11.897
				c1.365-1.921,2.606-4.126,2.949-6.298c0.986-6.32-1.309-12.116-4.824-17.639c-6.005-9.452-15.48-15.916-25.747-21.689
				c-11.992-6.746-24.254-13.153-36.047-20.139c-15.492-9.169-27.902-20.586-34.703-35.946c-1.492-3.379-4.023-6.626-6.879-9.323
				c-6.106-5.757-13.944-4.699-17.983,2.229c-1.375,2.351-2.038,5.009-2.998,7.455c-8.187-15.015-5.49-33.445,12.158-44.011
				c2.892-1.735,5.39-4.404,7.015-7.101c2.817-4.671-0.489-9.131-6.684-9.398c-2.768-0.113-5.706,0.213-8.344,0.939
				c-3.664,0.999-7.114,2.56-10.783,3.924c0.145-4.787,1.775-9.081,4.804-13.066c5.843-7.689,14.838-11.799,24.3-15.236
				c4.672-1.697,9.709-2.691,14.604-3.937c5.182-1.319,10.114-3.013,13.71-6.637c5.116-5.151,3.629-11.564-3.423-14.637
				c-1.618-0.704-3.448-1.349-5.227-1.451c-3.816-0.218-7.665-0.065-12.115-0.065c8.953-6.577,18.979-9.441,29.991-9.972
				c18.792-0.9,35.668,4.088,51.379,12.416c1.557,0.824,2.974,1.84,4.452,2.762c-11.375-19.866-27.453-36.76-43.973-53.445
				c19.638,8.541,37.086,19.751,54.067,31.54c0.373-0.144,0.747-0.284,1.119-0.427c-3.256-10.173-6.511-20.346-9.993-31.22
				c2.894,2.857,5.645,5.098,7.733,7.717c9.946,12.479,19.926,24.95,29.474,37.65c6.868,9.136,13.176,18.535,24.15,24.784
				c3.251,1.85,6.278,4.027,9.158,6.28c1.099,0.868,2.006,2.348,2.134,3.608c0.689,6.872,1.896,13.601,5.828,19.773
				c2.217,3.48,4.958,6.613,9.181,8.446c6.634,2.889,11.093,0.813,13.088-4.999c0.628-1.828,0.593-3.826,0.94-6.363
				c3.738,5.719,7.394,10.865,10.519,16.235c2.168,3.729,4.07,7.652,5.287,11.669C444.122,221.25,440.521,228.018,428.059,230.898z"
				/>
		</g>
	</g>
	<g id="_x31_" display="none">
	</g>
</g>
</svg>
