<?xml version="1.0" encoding="UTF-8" standalone="no"?>
<!-- Generator: Adobe Illustrator 16.0.0, SVG Export Plug-In . SVG Version: 6.00 Build 0)  -->

<svg
   version="1.1"
   x="0px"
   y="0px"
   width="293.40302"
   height="293.40601"
   viewBox="0 0 293.40302 293.40599"
   enable-background="new 0 0 641.269 581.056"
   xml:space="preserve"
   id="svg49"
   sodipodi:docname="FF_Logo.svg"
   inkscape:version="1.2.2 (b0a8486541, 2022-12-01)"
   xmlns:inkscape="http://www.inkscape.org/namespaces/inkscape"
   xmlns:sodipodi="http://sodipodi.sourceforge.net/DTD/sodipodi-0.dtd"
   xmlns="http://www.w3.org/2000/svg"
   xmlns:svg="http://www.w3.org/2000/svg"><defs
   id="defs53" /><sodipodi:namedview
   id="namedview51"
   pagecolor="#ffffff"
   bordercolor="#000000"
   borderopacity="0.25"
   inkscape:showpageshadow="2"
   inkscape:pageopacity="0.0"
   inkscape:pagecheckerboard="0"
   inkscape:deskcolor="#d1d1d1"
   showgrid="false"
   inkscape:zoom="1.4232707"
   inkscape:cx="292.28452"
   inkscape:cy="439.832"
   inkscape:window-width="1920"
   inkscape:window-height="1007"
   inkscape:window-x="0"
   inkscape:window-y="0"
   inkscape:window-maximized="1"
   inkscape:current-layer="svg49" />
<g
   id="Layer_6"
   display="none">
	<rect
   display="inline"
   fill-rule="evenodd"
   clip-rule="evenodd"
   fill="#1e1e1e"
   width="641.26898"
   height="639.79303"
   id="rect2"
   x="0"
   y="0" />
</g>

<g
   id="Layer_1_white_copy"
   display="none">
</g>
<g
   id="Layer_1_white_copy_2"
   display="none">
</g>
<g
   id="Layer_1_blue"
   display="none">
</g>
<g
   id="_x31__copy"
   display="none">
</g>
<g
   id="Layer_9"
   display="none">
</g>
<g
   id="Layer_3"
   display="none">
</g>
<g
   id="Layer_4"
   display="none">
</g>
<g
   id="Layer_5"
   display="none">
</g>
<g
   id="Layer_5_copy"
   display="none">
</g>
<g
   id="Layer_11"
   display="none">
</g>
<g
   id="Layer_11_copy"
   transform="translate(-173.933,-76.502)">
	<g
   id="g45">
		<linearGradient
   id="SVGID_1_"
   gradientUnits="userSpaceOnUse"
   x1="369.10349"
   y1="172.65669"
   x2="373.6835"
   y2="164.724">
			<stop
   offset="0"
   style="stop-color:#8DC63F"
   id="stop24" />
			<stop
   offset="1"
   style="stop-color:#DDE23E"
   id="stop26" />
		</linearGradient>
		<path
   fill="url(#SVGID_1_)"
   d="m 358.814,158.121 c -0.168,0.137 -0.331,0.267 -0.492,0.404 1.332,1.332 2.786,2.587 3.978,4.006 3.085,3.673 6.015,7.438 9.105,11.117 0.522,0.622 1.56,1.435 2.266,1.37 4.651,-0.398 9.274,-1.015 13.907,-1.555 -0.024,-0.251 -0.048,-0.502 -0.064,-0.754 -9.569,-4.862 -19.133,-9.726 -28.7,-14.588 z"
   id="path29"
   style="fill:url(#SVGID_1_)" />
		<linearGradient
   id="SVGID_2_"
   gradientUnits="userSpaceOnUse"
   x1="409.33691"
   y1="208.9053"
   x2="413.88879"
   y2="201.02119">
			<stop
   offset="0"
   style="stop-color:#8DC63F"
   id="stop31" />
			<stop
   offset="1"
   style="stop-color:#DDE23E"
   id="stop33" />
		</linearGradient>
		<path
   fill="url(#SVGID_2_)"
   d="m 410.993,199.452 c -4.844,-2.231 -8.775,0.213 -8.794,5.332 5.419,-2.974 9.897,-0.971 14.181,1.873 1.219,0.81 2.34,1.716 3.505,2.581 -1.281,-4.361 -4.326,-7.688 -8.892,-9.786 z"
   id="path36"
   style="fill:url(#SVGID_2_)" />
		<linearGradient
   id="SVGID_3_"
   gradientUnits="userSpaceOnUse"
   x1="223.9922"
   y1="390.59421"
   x2="417.27661"
   y2="55.8158">
			<stop
   offset="0"
   style="stop-color:#8DC63F"
   id="stop38" />
			<stop
   offset="1"
   style="stop-color:#DDE23E"
   id="stop40" />
		</linearGradient>
		<path
   fill="url(#SVGID_3_)"
   d="M 447.893,76.502 H 193.377 c -10.736,0 -19.444,8.707 -19.444,19.443 v 254.517 c 0,10.735 8.708,19.446 19.444,19.446 h 254.516 c 10.735,0 19.443,-8.71 19.443,-19.44 V 95.945 c 0,-10.736 -8.708,-19.443 -19.443,-19.443 z M 242.05,346.954 c -23.14,-9.912 -36.623,-26.503 -43.47,-47.319 -0.23,-0.688 -0.163,-1.451 -0.284,-2.717 3.953,3.078 7.111,6.068 10.851,8.361 17.458,10.73 36.255,16.94 58.268,11.81 5.528,-1.288 9.578,-6.702 8.591,-11.362 -0.62,-2.926 -1.949,-5.731 -3.006,-8.721 1.356,0.589 2.797,1.167 4.184,1.833 11.794,5.6 22.265,12.444 28.604,22.901 7.78,12.836 2.397,24.199 -13.591,29.067 -1.022,0.317 -2.067,0.589 -3.121,0.819 -16.376,3.513 -32.175,1.69 -47.026,-4.672 z M 428.059,230.898 c -8.695,2.009 -29.737,0.759 -38.686,-1.959 1.114,-0.501 2.187,-0.933 3.19,-1.462 1.016,-0.535 2.041,-1.098 2.917,-1.774 2.911,-2.265 3.309,-4.95 0.503,-7.28 -2.211,-1.839 -4.92,-3.378 -7.699,-4.568 -7.673,-3.302 -16.018,-4.557 -24.515,-5.13 -8.299,-0.562 -16.472,-1.616 -24.2,-4.405 -11.607,-4.191 -18.894,-11.384 -20.886,-22.092 -0.514,-2.772 -0.572,-5.61 -0.847,-8.502 -22.987,9.326 -27.235,31.621 -14.36,46.4 6.914,7.936 16.504,13.273 27.334,17.012 21.405,7.378 40.983,17.178 56.824,31.727 9.259,8.492 16.295,18.109 18.907,29.636 0.892,3.951 0.938,8.044 1.372,12.072 -10.534,-7.357 -21.138,-13.371 -33.797,-16.963 1.438,3.592 2.952,6.681 3.892,9.88 0.943,3.219 1.738,6.548 1.859,9.834 0.558,15.041 -7.237,26.698 -21.334,35.256 -19.669,11.941 -41.946,14.67 -65.452,12.236 -1.92,-0.196 -3.813,-0.546 -4.871,-0.698 7.203,-0.95 15.085,-1.812 22.884,-3.067 8.939,-1.441 16.356,-5.141 21.168,-11.897 1.366,-1.921 2.607,-4.126 2.95,-6.298 0.986,-6.32 -1.309,-12.116 -4.825,-17.639 -6.004,-9.452 -15.48,-15.915 -25.747,-21.689 -11.992,-6.746 -24.254,-13.153 -36.047,-20.139 -15.492,-9.169 -27.902,-20.586 -34.703,-35.946 -1.492,-3.379 -4.023,-6.626 -6.879,-9.323 -6.106,-5.757 -13.944,-4.699 -17.983,2.228 -1.375,2.351 -2.038,5.009 -2.998,7.455 -8.187,-15.014 -5.49,-33.445 12.158,-44.01 2.892,-1.736 5.39,-4.405 7.015,-7.101 2.817,-4.671 -0.489,-9.131 -6.684,-9.398 -2.767,-0.114 -5.706,0.213 -8.343,0.939 -3.665,0.999 -7.115,2.56 -10.784,3.924 0.145,-4.787 1.776,-9.081 4.804,-13.066 5.843,-7.69 14.838,-11.799 24.3,-15.237 4.672,-1.697 9.709,-2.691 14.604,-3.936 5.182,-1.32 10.115,-3.013 13.71,-6.637 5.116,-5.151 3.629,-11.564 -3.423,-14.637 -1.618,-0.704 -3.448,-1.348 -5.226,-1.451 -3.817,-0.218 -7.665,-0.065 -12.115,-0.065 8.953,-6.577 18.978,-9.442 29.991,-9.972 18.792,-0.9 35.668,4.088 51.379,12.416 1.556,0.824 2.973,1.84 4.452,2.762 -11.375,-19.866 -27.453,-36.76 -43.973,-53.446 19.638,8.541 37.086,19.751 54.068,31.54 0.373,-0.143 0.747,-0.284 1.119,-0.426 -3.256,-10.173 -6.511,-20.346 -9.993,-31.22 2.893,2.857 5.644,5.098 7.733,7.717 9.946,12.479 19.926,24.95 29.474,37.65 6.868,9.136 13.175,18.535 24.15,24.784 3.251,1.85 6.278,4.028 9.158,6.281 1.099,0.868 2.006,2.347 2.134,3.608 0.689,6.872 1.896,13.601 5.828,19.773 2.217,3.481 4.958,6.614 9.181,8.447 6.633,2.888 11.092,0.813 13.087,-4.999 0.628,-1.828 0.593,-3.826 0.941,-6.364 3.738,5.719 7.393,10.866 10.518,16.236 2.168,3.728 4.071,7.652 5.288,11.669 3.541,11.666 -0.06,18.434 -12.522,21.314 z"
   id="path43"
   style="fill:url(#SVGID_3_)" />
	</g>
</g>
<g
   id="_x31_"
   display="none">
</g>
</svg>
