<?xml version="1.0" encoding="utf-8"?>
<!-- Generator: Adobe Illustrator 16.0.0, SVG Export Plug-In . SVG Version: 6.00 Build 0)  -->
<!DOCTYPE svg PUBLIC "-//W3C//DTD SVG 1.1//EN" "http://www.w3.org/Graphics/SVG/1.1/DTD/svg11.dtd">
<svg version="1.1" xmlns="http://www.w3.org/2000/svg" xmlns:xlink="http://www.w3.org/1999/xlink" x="0px" y="0px"
	 width="641.269px" height="581.056px" viewBox="0 0 641.269 581.056" enable-background="new 0 0 641.269 581.056"
	 xml:space="preserve">
<g id="Layer_6" display="none">
	<rect display="inline" fill-rule="evenodd" clip-rule="evenodd" fill="#1E1E1E" width="641.269" height="639.793"/>
</g>
<g id="Layer_1_white">
	<rect x="-24.614" y="439.952" fill="none" width="690.496" height="228.097"/>
	<text transform="matrix(1 0 0 1 103.3979 520.02)"><tspan x="0" y="0" fill="#FFFFFF" font-family="'Catamaran-Thin'" font-size="113.4116">Flash</tspan><tspan x="233.963" y="0" fill="#FFFFFF" font-family="'Catamaran-Black'" font-size="113.4116">Fire</tspan></text>
</g>
<g id="Layer_1_white_copy" display="none">
</g>
<g id="Layer_1_white_copy_2" display="none">
</g>
<g id="Layer_1_blue" display="none">
</g>
<g id="_x31__copy" display="none">
</g>
<g id="Layer_9" display="none">
</g>
<g id="Layer_3" display="none">
</g>
<g id="Layer_4" display="none">
</g>
<g id="Layer_5" display="none">
</g>
<g id="Layer_5_copy" display="none">
</g>
<g id="Layer_11" display="none">
</g>
<g id="Layer_11_copy">
	<g>
		<linearGradient id="SVGID_1_" gradientUnits="userSpaceOnUse" x1="369.1035" y1="172.6567" x2="373.6835" y2="164.724">
			<stop  offset="0" style="stop-color:#8DC63F"/>
			<stop  offset="1" style="stop-color:#DDE23E"/>
		</linearGradient>
		<path fill="url(#SVGID_1_)" d="M358.814,158.121c-0.168,0.137-0.331,0.267-0.492,0.404c1.332,1.332,2.786,2.587,3.978,4.006
			c3.085,3.673,6.015,7.438,9.105,11.117c0.522,0.622,1.56,1.435,2.266,1.37c4.651-0.398,9.274-1.015,13.907-1.555
			c-0.024-0.251-0.048-0.502-0.064-0.754C377.945,167.847,368.381,162.983,358.814,158.121z"/>
		<linearGradient id="SVGID_2_" gradientUnits="userSpaceOnUse" x1="409.3369" y1="208.9053" x2="413.8888" y2="201.0212">
			<stop  offset="0" style="stop-color:#8DC63F"/>
			<stop  offset="1" style="stop-color:#DDE23E"/>
		</linearGradient>
		<path fill="url(#SVGID_2_)" d="M410.993,199.452c-4.844-2.231-8.775,0.213-8.794,5.332c5.419-2.974,9.897-0.971,14.181,1.873
			c1.219,0.81,2.34,1.716,3.505,2.581C418.604,204.877,415.559,201.55,410.993,199.452z"/>
		<linearGradient id="SVGID_3_" gradientUnits="userSpaceOnUse" x1="223.9922" y1="390.5942" x2="417.2766" y2="55.8158">
			<stop  offset="0" style="stop-color:#8DC63F"/>
			<stop  offset="1" style="stop-color:#DDE23E"/>
		</linearGradient>
		<path fill="url(#SVGID_3_)" d="M447.893,76.502H193.377c-10.736,0-19.444,8.707-19.444,19.443v254.517
			c0,10.735,8.708,19.446,19.444,19.446h254.516c10.735,0,19.443-8.71,19.443-19.44V95.945
			C467.336,85.209,458.628,76.502,447.893,76.502z M242.05,346.954c-23.14-9.912-36.623-26.503-43.47-47.319
			c-0.23-0.688-0.163-1.451-0.284-2.717c3.953,3.078,7.111,6.068,10.851,8.361c17.458,10.73,36.255,16.94,58.268,11.81
			c5.528-1.288,9.578-6.702,8.591-11.362c-0.62-2.926-1.949-5.731-3.006-8.721c1.356,0.589,2.797,1.167,4.184,1.833
			c11.794,5.6,22.265,12.444,28.604,22.901c7.78,12.836,2.397,24.199-13.591,29.067c-1.022,0.317-2.067,0.589-3.121,0.819
			C272.7,355.139,256.901,353.316,242.05,346.954z M428.059,230.898c-8.695,2.009-29.737,0.759-38.686-1.959
			c1.114-0.501,2.187-0.933,3.19-1.462c1.016-0.535,2.041-1.098,2.917-1.774c2.911-2.265,3.309-4.95,0.503-7.28
			c-2.211-1.839-4.92-3.378-7.699-4.568c-7.673-3.302-16.018-4.557-24.515-5.13c-8.299-0.562-16.472-1.616-24.2-4.405
			c-11.607-4.191-18.894-11.384-20.886-22.092c-0.514-2.772-0.572-5.61-0.847-8.502c-22.987,9.326-27.235,31.621-14.36,46.4
			c6.914,7.936,16.504,13.273,27.334,17.012c21.405,7.378,40.983,17.178,56.824,31.727c9.259,8.492,16.295,18.109,18.907,29.636
			c0.892,3.951,0.938,8.044,1.372,12.072c-10.534-7.357-21.138-13.371-33.797-16.963c1.438,3.592,2.952,6.681,3.892,9.88
			c0.943,3.219,1.738,6.548,1.859,9.834c0.558,15.041-7.237,26.698-21.334,35.256c-19.669,11.941-41.946,14.67-65.452,12.236
			c-1.92-0.196-3.813-0.546-4.871-0.698c7.203-0.95,15.085-1.812,22.884-3.067c8.939-1.441,16.356-5.141,21.168-11.897
			c1.366-1.921,2.607-4.126,2.95-6.298c0.986-6.32-1.309-12.116-4.825-17.639c-6.004-9.452-15.48-15.915-25.747-21.689
			c-11.992-6.746-24.254-13.153-36.047-20.139c-15.492-9.169-27.902-20.586-34.703-35.946c-1.492-3.379-4.023-6.626-6.879-9.323
			c-6.106-5.757-13.944-4.699-17.983,2.228c-1.375,2.351-2.038,5.009-2.998,7.455c-8.187-15.014-5.49-33.445,12.158-44.01
			c2.892-1.736,5.39-4.405,7.015-7.101c2.817-4.671-0.489-9.131-6.684-9.398c-2.767-0.114-5.706,0.213-8.343,0.939
			c-3.665,0.999-7.115,2.56-10.784,3.924c0.145-4.787,1.776-9.081,4.804-13.066c5.843-7.69,14.838-11.799,24.3-15.237
			c4.672-1.697,9.709-2.691,14.604-3.936c5.182-1.32,10.115-3.013,13.71-6.637c5.116-5.151,3.629-11.564-3.423-14.637
			c-1.618-0.704-3.448-1.348-5.226-1.451c-3.817-0.218-7.665-0.065-12.115-0.065c8.953-6.577,18.978-9.442,29.991-9.972
			c18.792-0.9,35.668,4.088,51.379,12.416c1.556,0.824,2.973,1.84,4.452,2.762c-11.375-19.866-27.453-36.76-43.973-53.446
			c19.638,8.541,37.086,19.751,54.068,31.54c0.373-0.143,0.747-0.284,1.119-0.426c-3.256-10.173-6.511-20.346-9.993-31.22
			c2.893,2.857,5.644,5.098,7.733,7.717c9.946,12.479,19.926,24.95,29.474,37.65c6.868,9.136,13.175,18.535,24.15,24.784
			c3.251,1.85,6.278,4.028,9.158,6.281c1.099,0.868,2.006,2.347,2.134,3.608c0.689,6.872,1.896,13.601,5.828,19.773
			c2.217,3.481,4.958,6.614,9.181,8.447c6.633,2.888,11.092,0.813,13.087-4.999c0.628-1.828,0.593-3.826,0.941-6.364
			c3.738,5.719,7.393,10.866,10.518,16.236c2.168,3.728,4.071,7.652,5.288,11.669C444.122,221.25,440.521,228.018,428.059,230.898z"
			/>
	</g>
</g>
<g id="_x31_" display="none">
</g>
</svg>
